G04 #@! TF.GenerationSoftware,KiCad,Pcbnew,9.0.1*
G04 #@! TF.CreationDate,2025-05-24T10:28:29+02:00*
G04 #@! TF.ProjectId,carte_rants_V1,63617274-655f-4726-916e-74735f56312e,rev?*
G04 #@! TF.SameCoordinates,Original*
G04 #@! TF.FileFunction,Soldermask,Bot*
G04 #@! TF.FilePolarity,Negative*
%FSLAX46Y46*%
G04 Gerber Fmt 4.6, Leading zero omitted, Abs format (unit mm)*
G04 Created by KiCad (PCBNEW 9.0.1) date 2025-05-24 10:28:29*
%MOMM*%
%LPD*%
G01*
G04 APERTURE LIST*
G04 Aperture macros list*
%AMRoundRect*
0 Rectangle with rounded corners*
0 $1 Rounding radius*
0 $2 $3 $4 $5 $6 $7 $8 $9 X,Y pos of 4 corners*
0 Add a 4 corners polygon primitive as box body*
4,1,4,$2,$3,$4,$5,$6,$7,$8,$9,$2,$3,0*
0 Add four circle primitives for the rounded corners*
1,1,$1+$1,$2,$3*
1,1,$1+$1,$4,$5*
1,1,$1+$1,$6,$7*
1,1,$1+$1,$8,$9*
0 Add four rect primitives between the rounded corners*
20,1,$1+$1,$2,$3,$4,$5,0*
20,1,$1+$1,$4,$5,$6,$7,0*
20,1,$1+$1,$6,$7,$8,$9,0*
20,1,$1+$1,$8,$9,$2,$3,0*%
%AMHorizOval*
0 Thick line with rounded ends*
0 $1 width*
0 $2 $3 position (X,Y) of the first rounded end (center of the circle)*
0 $4 $5 position (X,Y) of the second rounded end (center of the circle)*
0 Add line between two ends*
20,1,$1,$2,$3,$4,$5,0*
0 Add two circle primitives to create the rounded ends*
1,1,$1,$2,$3*
1,1,$1,$4,$5*%
%AMRotRect*
0 Rectangle, with rotation*
0 The origin of the aperture is its center*
0 $1 length*
0 $2 width*
0 $3 Rotation angle, in degrees counterclockwise*
0 Add horizontal line*
21,1,$1,$2,0,0,$3*%
G04 Aperture macros list end*
%ADD10C,3.500000*%
%ADD11C,4.000000*%
%ADD12R,2.032000X2.032000*%
%ADD13O,2.032000X2.032000*%
%ADD14R,1.727200X2.032000*%
%ADD15O,1.727200X2.032000*%
%ADD16C,2.000000*%
%ADD17R,1.700000X1.700000*%
%ADD18O,1.700000X1.700000*%
%ADD19RotRect,1.700000X1.700000X55.000000*%
%ADD20HorizOval,1.700000X0.000000X0.000000X0.000000X0.000000X0*%
%ADD21RotRect,1.700000X1.700000X35.000000*%
%ADD22HorizOval,1.700000X0.000000X0.000000X0.000000X0.000000X0*%
%ADD23RotRect,1.700000X1.700000X125.000000*%
%ADD24HorizOval,1.700000X0.000000X0.000000X0.000000X0.000000X0*%
%ADD25RotRect,1.700000X1.700000X145.000000*%
%ADD26HorizOval,1.700000X0.000000X0.000000X0.000000X0.000000X0*%
%ADD27C,1.720000*%
%ADD28R,1.720000X1.720000*%
%ADD29O,2.000000X1.000000*%
%ADD30R,1.100000X1.250000*%
%ADD31RoundRect,0.250000X0.450000X-0.350000X0.450000X0.350000X-0.450000X0.350000X-0.450000X-0.350000X0*%
G04 APERTURE END LIST*
D10*
X133650000Y-43000000D03*
X147150000Y-43000000D03*
D11*
X165400000Y-140000000D03*
X115400000Y-140000000D03*
X130400000Y-24000000D03*
X150400000Y-24000000D03*
D10*
X104450000Y-93000000D03*
X104450000Y-75000000D03*
X176350000Y-75000000D03*
X176350000Y-93000000D03*
D12*
X101910000Y-100000000D03*
D13*
X104450000Y-100000000D03*
D12*
X176350000Y-100000000D03*
D13*
X178890000Y-100000000D03*
D14*
X114450000Y-100000000D03*
D15*
X116990000Y-100000000D03*
X119530000Y-100000000D03*
X122070000Y-100000000D03*
D14*
X166350000Y-100000000D03*
D15*
X163810000Y-100000000D03*
X161270000Y-100000000D03*
X158730000Y-100000000D03*
D16*
X170150000Y-124885000D03*
D17*
X148020000Y-30000000D03*
D18*
X145480000Y-30000000D03*
X142940000Y-30000000D03*
X140400000Y-30000000D03*
X137860000Y-30000000D03*
X135320000Y-30000000D03*
X132780000Y-30000000D03*
D19*
X176641939Y-35370652D03*
D20*
X174561292Y-33913768D03*
X172480646Y-32456884D03*
X170400000Y-31000000D03*
X168319354Y-29543116D03*
X166238708Y-28086232D03*
X164158061Y-26629348D03*
D21*
X196770653Y-58241939D03*
D22*
X195313768Y-56161294D03*
X193856885Y-54080646D03*
X192400000Y-52000000D03*
X190943115Y-49919354D03*
X189486232Y-47838706D03*
X188029347Y-45758061D03*
D23*
X116641938Y-26629348D03*
D24*
X114561293Y-28086231D03*
X112480646Y-29543116D03*
X110400000Y-31000000D03*
X108319354Y-32456884D03*
X106238707Y-33913769D03*
X104158062Y-35370652D03*
D25*
X92770653Y-45758061D03*
D26*
X91313769Y-47838707D03*
X89856884Y-49919354D03*
X88400000Y-52000000D03*
X86943116Y-54080646D03*
X85486231Y-56161293D03*
X84029347Y-58241939D03*
D17*
X114745000Y-36750000D03*
D18*
X114745000Y-39290000D03*
X117285000Y-36750000D03*
X117285000Y-39290000D03*
X119825000Y-36750000D03*
X119825000Y-39290000D03*
X122365000Y-36750000D03*
X122365000Y-39290000D03*
X124905000Y-36750000D03*
X124905000Y-39290000D03*
X127445000Y-36750000D03*
X127445000Y-39290000D03*
D17*
X170400000Y-116000000D03*
D18*
X170400000Y-118540000D03*
D27*
X186500000Y-115975000D03*
D28*
X191500000Y-115975000D03*
D29*
X198050000Y-104440000D03*
X198050000Y-105710000D03*
X198050000Y-106980000D03*
X198050000Y-108250000D03*
D30*
X158775000Y-142375000D03*
X158775000Y-144725000D03*
D31*
X158775000Y-140450000D03*
X158775000Y-138450000D03*
D17*
X102210000Y-109725000D03*
D18*
X104750000Y-109725000D03*
X107290000Y-109725000D03*
X109830000Y-109725000D03*
X112370000Y-109725000D03*
X114910000Y-109725000D03*
X117450000Y-109725000D03*
X119990000Y-109725000D03*
X122530000Y-109725000D03*
X125070000Y-109725000D03*
X127610000Y-109725000D03*
X130150000Y-109725000D03*
X132690000Y-109725000D03*
X135230000Y-109725000D03*
X137770000Y-109725000D03*
X140310000Y-109725000D03*
X142850000Y-109725000D03*
X145390000Y-109725000D03*
X147930000Y-109725000D03*
X150470000Y-109725000D03*
X150470000Y-127505000D03*
X147930000Y-127505000D03*
X145390000Y-127505000D03*
X142850000Y-127505000D03*
X140310000Y-127505000D03*
X137770000Y-127505000D03*
X135230000Y-127505000D03*
X132690000Y-127505000D03*
X130150000Y-127505000D03*
X127610000Y-127505000D03*
X125070000Y-127505000D03*
X122530000Y-127505000D03*
X119990000Y-127505000D03*
X117450000Y-127505000D03*
X114910000Y-127505000D03*
X112370000Y-127505000D03*
X109830000Y-127505000D03*
X107290000Y-127505000D03*
X104750000Y-127505000D03*
D17*
X102210000Y-127505000D03*
M02*
