G04 #@! TF.GenerationSoftware,KiCad,Pcbnew,9.0.1*
G04 #@! TF.CreationDate,2025-05-24T10:28:28+02:00*
G04 #@! TF.ProjectId,carte_rants_V1,63617274-655f-4726-916e-74735f56312e,rev?*
G04 #@! TF.SameCoordinates,Original*
G04 #@! TF.FileFunction,Copper,L2,Bot*
G04 #@! TF.FilePolarity,Positive*
%FSLAX46Y46*%
G04 Gerber Fmt 4.6, Leading zero omitted, Abs format (unit mm)*
G04 Created by KiCad (PCBNEW 9.0.1) date 2025-05-24 10:28:28*
%MOMM*%
%LPD*%
G01*
G04 APERTURE LIST*
G04 Aperture macros list*
%AMRoundRect*
0 Rectangle with rounded corners*
0 $1 Rounding radius*
0 $2 $3 $4 $5 $6 $7 $8 $9 X,Y pos of 4 corners*
0 Add a 4 corners polygon primitive as box body*
4,1,4,$2,$3,$4,$5,$6,$7,$8,$9,$2,$3,0*
0 Add four circle primitives for the rounded corners*
1,1,$1+$1,$2,$3*
1,1,$1+$1,$4,$5*
1,1,$1+$1,$6,$7*
1,1,$1+$1,$8,$9*
0 Add four rect primitives between the rounded corners*
20,1,$1+$1,$2,$3,$4,$5,0*
20,1,$1+$1,$4,$5,$6,$7,0*
20,1,$1+$1,$6,$7,$8,$9,0*
20,1,$1+$1,$8,$9,$2,$3,0*%
%AMHorizOval*
0 Thick line with rounded ends*
0 $1 width*
0 $2 $3 position (X,Y) of the first rounded end (center of the circle)*
0 $4 $5 position (X,Y) of the second rounded end (center of the circle)*
0 Add line between two ends*
20,1,$1,$2,$3,$4,$5,0*
0 Add two circle primitives to create the rounded ends*
1,1,$1,$2,$3*
1,1,$1,$4,$5*%
%AMRotRect*
0 Rectangle, with rotation*
0 The origin of the aperture is its center*
0 $1 length*
0 $2 width*
0 $3 Rotation angle, in degrees counterclockwise*
0 Add horizontal line*
21,1,$1,$2,0,0,$3*%
G04 Aperture macros list end*
G04 #@! TA.AperFunction,ComponentPad*
%ADD10C,3.500000*%
G04 #@! TD*
G04 #@! TA.AperFunction,ComponentPad*
%ADD11C,4.000000*%
G04 #@! TD*
G04 #@! TA.AperFunction,ComponentPad*
%ADD12R,2.032000X2.032000*%
G04 #@! TD*
G04 #@! TA.AperFunction,ComponentPad*
%ADD13O,2.032000X2.032000*%
G04 #@! TD*
G04 #@! TA.AperFunction,ComponentPad*
%ADD14R,1.727200X2.032000*%
G04 #@! TD*
G04 #@! TA.AperFunction,ComponentPad*
%ADD15O,1.727200X2.032000*%
G04 #@! TD*
G04 #@! TA.AperFunction,SMDPad,CuDef*
%ADD16C,1.000000*%
G04 #@! TD*
G04 #@! TA.AperFunction,ComponentPad*
%ADD17R,1.700000X1.700000*%
G04 #@! TD*
G04 #@! TA.AperFunction,ComponentPad*
%ADD18O,1.700000X1.700000*%
G04 #@! TD*
G04 #@! TA.AperFunction,ComponentPad*
%ADD19RotRect,1.700000X1.700000X55.000000*%
G04 #@! TD*
G04 #@! TA.AperFunction,ComponentPad*
%ADD20HorizOval,1.700000X0.000000X0.000000X0.000000X0.000000X0*%
G04 #@! TD*
G04 #@! TA.AperFunction,ComponentPad*
%ADD21RotRect,1.700000X1.700000X35.000000*%
G04 #@! TD*
G04 #@! TA.AperFunction,ComponentPad*
%ADD22HorizOval,1.700000X0.000000X0.000000X0.000000X0.000000X0*%
G04 #@! TD*
G04 #@! TA.AperFunction,ComponentPad*
%ADD23RotRect,1.700000X1.700000X125.000000*%
G04 #@! TD*
G04 #@! TA.AperFunction,ComponentPad*
%ADD24HorizOval,1.700000X0.000000X0.000000X0.000000X0.000000X0*%
G04 #@! TD*
G04 #@! TA.AperFunction,ComponentPad*
%ADD25RotRect,1.700000X1.700000X145.000000*%
G04 #@! TD*
G04 #@! TA.AperFunction,ComponentPad*
%ADD26HorizOval,1.700000X0.000000X0.000000X0.000000X0.000000X0*%
G04 #@! TD*
G04 #@! TA.AperFunction,ComponentPad*
%ADD27C,1.720000*%
G04 #@! TD*
G04 #@! TA.AperFunction,ComponentPad*
%ADD28R,1.720000X1.720000*%
G04 #@! TD*
G04 #@! TA.AperFunction,ComponentPad*
%ADD29O,2.000000X1.000000*%
G04 #@! TD*
G04 #@! TA.AperFunction,SMDPad,CuDef*
%ADD30R,1.100000X1.250000*%
G04 #@! TD*
G04 #@! TA.AperFunction,SMDPad,CuDef*
%ADD31RoundRect,0.250000X0.450000X-0.350000X0.450000X0.350000X-0.450000X0.350000X-0.450000X-0.350000X0*%
G04 #@! TD*
G04 #@! TA.AperFunction,ViaPad*
%ADD32C,0.600000*%
G04 #@! TD*
G04 #@! TA.AperFunction,ViaPad*
%ADD33C,0.700000*%
G04 #@! TD*
G04 #@! TA.AperFunction,Conductor*
%ADD34C,0.250000*%
G04 #@! TD*
G04 #@! TA.AperFunction,Conductor*
%ADD35C,0.350000*%
G04 #@! TD*
G04 APERTURE END LIST*
D10*
X133650000Y-43000000D03*
X147150000Y-43000000D03*
D11*
X165400000Y-140000000D03*
X115400000Y-140000000D03*
X130400000Y-24000000D03*
X150400000Y-24000000D03*
D10*
X104450000Y-93000000D03*
X104450000Y-75000000D03*
X176350000Y-75000000D03*
X176350000Y-93000000D03*
D12*
X101910000Y-100000000D03*
D13*
X104450000Y-100000000D03*
D12*
X176350000Y-100000000D03*
D13*
X178890000Y-100000000D03*
D14*
X114450000Y-100000000D03*
D15*
X116990000Y-100000000D03*
X119530000Y-100000000D03*
X122070000Y-100000000D03*
D14*
X166350000Y-100000000D03*
D15*
X163810000Y-100000000D03*
X161270000Y-100000000D03*
X158730000Y-100000000D03*
D16*
X170150000Y-124885000D03*
D17*
X148020000Y-30000000D03*
D18*
X145480000Y-30000000D03*
X142940000Y-30000000D03*
X140400000Y-30000000D03*
X137860000Y-30000000D03*
X135320000Y-30000000D03*
X132780000Y-30000000D03*
D19*
X176641939Y-35370652D03*
D20*
X174561292Y-33913768D03*
X172480646Y-32456884D03*
X170400000Y-31000000D03*
X168319354Y-29543116D03*
X166238708Y-28086232D03*
X164158061Y-26629348D03*
D21*
X196770653Y-58241939D03*
D22*
X195313768Y-56161294D03*
X193856885Y-54080646D03*
X192400000Y-52000000D03*
X190943115Y-49919354D03*
X189486232Y-47838706D03*
X188029347Y-45758061D03*
D23*
X116641938Y-26629348D03*
D24*
X114561293Y-28086231D03*
X112480646Y-29543116D03*
X110400000Y-31000000D03*
X108319354Y-32456884D03*
X106238707Y-33913769D03*
X104158062Y-35370652D03*
D25*
X92770653Y-45758061D03*
D26*
X91313769Y-47838707D03*
X89856884Y-49919354D03*
X88400000Y-52000000D03*
X86943116Y-54080646D03*
X85486231Y-56161293D03*
X84029347Y-58241939D03*
D17*
X114745000Y-36750000D03*
D18*
X114745000Y-39290000D03*
X117285000Y-36750000D03*
X117285000Y-39290000D03*
X119825000Y-36750000D03*
X119825000Y-39290000D03*
X122365000Y-36750000D03*
X122365000Y-39290000D03*
X124905000Y-36750000D03*
X124905000Y-39290000D03*
X127445000Y-36750000D03*
X127445000Y-39290000D03*
D17*
X170400000Y-116000000D03*
D18*
X170400000Y-118540000D03*
D27*
X186500000Y-115975000D03*
D28*
X191500000Y-115975000D03*
D29*
X198050000Y-104440000D03*
X198050000Y-105710000D03*
X198050000Y-106980000D03*
X198050000Y-108250000D03*
D30*
X158775000Y-142375000D03*
X158775000Y-144725000D03*
D31*
X158775000Y-140450000D03*
X158775000Y-138450000D03*
D17*
X102210000Y-109725000D03*
D18*
X104750000Y-109725000D03*
X107290000Y-109725000D03*
X109830000Y-109725000D03*
X112370000Y-109725000D03*
X114910000Y-109725000D03*
X117450000Y-109725000D03*
X119990000Y-109725000D03*
X122530000Y-109725000D03*
X125070000Y-109725000D03*
X127610000Y-109725000D03*
X130150000Y-109725000D03*
X132690000Y-109725000D03*
X135230000Y-109725000D03*
X137770000Y-109725000D03*
X140310000Y-109725000D03*
X142850000Y-109725000D03*
X145390000Y-109725000D03*
X147930000Y-109725000D03*
X150470000Y-109725000D03*
X150470000Y-127505000D03*
X147930000Y-127505000D03*
X145390000Y-127505000D03*
X142850000Y-127505000D03*
X140310000Y-127505000D03*
X137770000Y-127505000D03*
X135230000Y-127505000D03*
X132690000Y-127505000D03*
X130150000Y-127505000D03*
X127610000Y-127505000D03*
X125070000Y-127505000D03*
X122530000Y-127505000D03*
X119990000Y-127505000D03*
X117450000Y-127505000D03*
X114910000Y-127505000D03*
X112370000Y-127505000D03*
X109830000Y-127505000D03*
X107290000Y-127505000D03*
X104750000Y-127505000D03*
D17*
X102210000Y-127505000D03*
D32*
X117525000Y-89100000D03*
X129350000Y-89100000D03*
X129450000Y-42375000D03*
X117525000Y-111725000D03*
X116450000Y-106300000D03*
X120000000Y-112600000D03*
X129450000Y-117950000D03*
X129625000Y-119725000D03*
X141500000Y-98800000D03*
X138125000Y-103725000D03*
X119700000Y-107400000D03*
X122700000Y-96375000D03*
X139225000Y-106150000D03*
D33*
X145050000Y-87275000D03*
X107400000Y-81375000D03*
D32*
X145325000Y-83075000D03*
X146275000Y-81825000D03*
X170925000Y-89150000D03*
X135425000Y-103875000D03*
X135025000Y-107125000D03*
X149975000Y-82725000D03*
X127475000Y-105025000D03*
X135180000Y-34370000D03*
X125550000Y-48120000D03*
X125550000Y-90575000D03*
X138350000Y-125400000D03*
X162525000Y-104400000D03*
X140050000Y-91275000D03*
X143525000Y-80175000D03*
X144899333Y-82457500D03*
X132700000Y-119695000D03*
X133625000Y-91425000D03*
X133325000Y-78975000D03*
X124100000Y-122100000D03*
X114575000Y-42050000D03*
X135025000Y-86225000D03*
X137200000Y-84486906D03*
X127700000Y-95100000D03*
X133950000Y-112250000D03*
X130350000Y-102175000D03*
X128987500Y-102487500D03*
X147950000Y-130125000D03*
X132050000Y-112300000D03*
X126750000Y-96500000D03*
X111025000Y-78875000D03*
X112225000Y-122650000D03*
D34*
X117830000Y-42375000D02*
X114745000Y-39290000D01*
X129450000Y-42375000D02*
X117830000Y-42375000D01*
X117525000Y-89100000D02*
X129350000Y-89100000D01*
X116324000Y-110524000D02*
X117525000Y-111725000D01*
X116450000Y-106300000D02*
X116324000Y-106426000D01*
X125070000Y-127505000D02*
X120000000Y-122435000D01*
X120000000Y-122435000D02*
X120000000Y-112600000D01*
X116324000Y-106426000D02*
X116324000Y-110524000D01*
X129625000Y-118125000D02*
X129450000Y-117950000D01*
X129625000Y-119725000D02*
X129625000Y-118125000D01*
X101561231Y-33063769D02*
X90600000Y-44025000D01*
X168763768Y-35325000D02*
X162375000Y-28936232D01*
X145425000Y-27250000D02*
X121925000Y-27250000D01*
X178250000Y-32600000D02*
X191750000Y-46100000D01*
X120238769Y-28936231D02*
X121925000Y-27250000D01*
X115411293Y-28936231D02*
X120238769Y-28936231D01*
X145425000Y-27250000D02*
X148522000Y-27250000D01*
X103549174Y-33063769D02*
X101561231Y-33063769D01*
X174561292Y-33913768D02*
X173150060Y-35325000D01*
X173150060Y-35325000D02*
X168763768Y-35325000D01*
X90600000Y-47124938D02*
X91313769Y-47838707D01*
X141500000Y-98800000D02*
X141500000Y-98775000D01*
X195313768Y-51563768D02*
X195313768Y-56161294D01*
X145480000Y-30000000D02*
X145480000Y-27305000D01*
X145480000Y-27305000D02*
X145425000Y-27250000D01*
X162375000Y-28936232D02*
X150208232Y-28936232D01*
X114561293Y-28086231D02*
X108526712Y-28086231D01*
X191750000Y-48000000D02*
X195313768Y-51563768D01*
X191750000Y-46100000D02*
X191750000Y-48000000D01*
X175875060Y-32600000D02*
X178250000Y-32600000D01*
X114561293Y-28086231D02*
X115411293Y-28936231D01*
X90600000Y-44025000D02*
X90600000Y-47124938D01*
X108526712Y-28086231D02*
X103549174Y-33063769D01*
X141500000Y-98775000D02*
X184113706Y-56161294D01*
X174561292Y-33913768D02*
X175875060Y-32600000D01*
X150208232Y-28936232D02*
X148522000Y-27250000D01*
X184113706Y-56161294D02*
X195313768Y-56161294D01*
X181700000Y-60150000D02*
X138125000Y-103725000D01*
X196770653Y-58241939D02*
X194862592Y-60150000D01*
X194862592Y-60150000D02*
X181700000Y-60150000D01*
X119800000Y-107300000D02*
X119700000Y-107400000D01*
X123209600Y-96884600D02*
X123209600Y-105515400D01*
X123209600Y-105515400D02*
X121425000Y-107300000D01*
X122700000Y-96375000D02*
X123209600Y-96884600D01*
X121425000Y-107300000D02*
X119800000Y-107300000D01*
X140325000Y-107250000D02*
X147995000Y-107250000D01*
X139225000Y-106150000D02*
X140325000Y-107250000D01*
X147995000Y-107250000D02*
X150470000Y-109725000D01*
D35*
X109225000Y-45275000D02*
X96258061Y-58241939D01*
X107400000Y-69466939D02*
X96175000Y-58241939D01*
X109225000Y-38425000D02*
X109225000Y-39100000D01*
X147100000Y-81199000D02*
X146350000Y-81199000D01*
X84029347Y-58241939D02*
X96175000Y-58241939D01*
X117095000Y-31175000D02*
X114745000Y-33525000D01*
X107887410Y-39100000D02*
X104158062Y-35370652D01*
X185031204Y-46893796D02*
X185031204Y-48756204D01*
X146901000Y-81398000D02*
X147100000Y-81199000D01*
X107576000Y-81199000D02*
X146350000Y-81199000D01*
X146901000Y-81565702D02*
X146901000Y-82600000D01*
X146534298Y-81199000D02*
X146901000Y-81565702D01*
X132780000Y-30000000D02*
X131605000Y-31175000D01*
X109225000Y-39100000D02*
X107887410Y-39100000D01*
X107400000Y-81375000D02*
X107400000Y-69466939D01*
X185031204Y-48756204D02*
X152588408Y-81199000D01*
X114745000Y-33525000D02*
X114745000Y-36750000D01*
X146901000Y-82600000D02*
X146901000Y-85499000D01*
X107400000Y-81375000D02*
X107576000Y-81199000D01*
X110900000Y-36750000D02*
X109225000Y-38425000D01*
X146350000Y-81199000D02*
X146534298Y-81199000D01*
X152588408Y-81199000D02*
X147100000Y-81199000D01*
X186166939Y-45758061D02*
X185031204Y-46893796D01*
X145125000Y-87275000D02*
X145050000Y-87275000D01*
X188029347Y-45758061D02*
X186166939Y-45758061D01*
X114745000Y-36750000D02*
X110900000Y-36750000D01*
X131605000Y-31175000D02*
X117095000Y-31175000D01*
X96258061Y-58241939D02*
X96175000Y-58241939D01*
X109225000Y-39100000D02*
X109225000Y-45275000D01*
X145125000Y-87275000D02*
X146901000Y-85499000D01*
X146901000Y-82600000D02*
X146901000Y-81398000D01*
D34*
X118835000Y-83075000D02*
X145325000Y-83075000D01*
X102645000Y-97530000D02*
X104380000Y-97530000D01*
X104380000Y-97530000D02*
X118835000Y-83075000D01*
X101910000Y-98265000D02*
X102645000Y-97530000D01*
X101910000Y-100000000D02*
X101910000Y-98265000D01*
X146275000Y-82939588D02*
X146275000Y-81825000D01*
X145539588Y-83675000D02*
X146275000Y-82939588D01*
X104450000Y-100000000D02*
X120775000Y-83675000D01*
X120775000Y-83675000D02*
X145539588Y-83675000D01*
X170925000Y-89150000D02*
X170925000Y-97775000D01*
X173150000Y-100000000D02*
X176350000Y-100000000D01*
X170925000Y-97775000D02*
X173150000Y-100000000D01*
X125070000Y-109725000D02*
X130045000Y-104750000D01*
X130045000Y-104750000D02*
X156520000Y-104750000D01*
X156520000Y-104750000D02*
X161270000Y-100000000D01*
X122530000Y-110630000D02*
X122530000Y-109725000D01*
X152335000Y-111475000D02*
X123375000Y-111475000D01*
X123375000Y-111475000D02*
X122530000Y-110630000D01*
X163810000Y-100000000D02*
X152335000Y-111475000D01*
X104125000Y-103650000D02*
X102210000Y-105565000D01*
X116990000Y-101110000D02*
X114450000Y-103650000D01*
X116990000Y-100000000D02*
X116990000Y-101110000D01*
X114450000Y-103650000D02*
X104125000Y-103650000D01*
X102210000Y-105565000D02*
X102210000Y-109725000D01*
X104750000Y-105200000D02*
X105450000Y-104500000D01*
X105450000Y-104500000D02*
X116400000Y-104500000D01*
X116400000Y-104500000D02*
X119530000Y-101370000D01*
X119530000Y-101370000D02*
X119530000Y-100000000D01*
X104750000Y-109725000D02*
X104750000Y-105200000D01*
X184986455Y-54080645D02*
X135425000Y-103642100D01*
X132750000Y-107125000D02*
X130150000Y-109725000D01*
X135425000Y-103642100D02*
X135425000Y-103875000D01*
X135025000Y-107125000D02*
X132750000Y-107125000D01*
X193856885Y-54080645D02*
X184986455Y-54080645D01*
X149975000Y-87325000D02*
X133225000Y-104075000D01*
X128425000Y-104075000D02*
X127475000Y-105025000D01*
X133225000Y-104075000D02*
X128425000Y-104075000D01*
X149975000Y-82725000D02*
X149975000Y-87325000D01*
X120213588Y-107701000D02*
X121591100Y-107701000D01*
X117450000Y-127505000D02*
X118864000Y-126091000D01*
X121591100Y-107701000D02*
X125550000Y-103742100D01*
X135180000Y-37459588D02*
X125550000Y-47089588D01*
X125550000Y-47089588D02*
X125550000Y-48120000D01*
X135180000Y-34370000D02*
X135180000Y-37459588D01*
X118864000Y-109050588D02*
X120213588Y-107701000D01*
X118864000Y-126091000D02*
X118864000Y-109050588D01*
X125550000Y-103742100D02*
X125550000Y-90575000D01*
X137770000Y-127505000D02*
X137770000Y-125980000D01*
X137770000Y-125980000D02*
X138350000Y-125400000D01*
X142850000Y-124075000D02*
X142850000Y-127505000D01*
X162525000Y-104400000D02*
X142850000Y-124075000D01*
X137200000Y-84486906D02*
X136763094Y-84486906D01*
X136763094Y-84486906D02*
X135025000Y-86225000D01*
X130150000Y-130575000D02*
X130150000Y-127505000D01*
X158775000Y-144725000D02*
X144300000Y-144725000D01*
X144300000Y-144725000D02*
X130150000Y-130575000D01*
X141436000Y-119736000D02*
X133950000Y-112250000D01*
X149100000Y-128875000D02*
X142627595Y-128875000D01*
X142627595Y-128875000D02*
X141436000Y-127683405D01*
X141436000Y-127683405D02*
X141436000Y-119736000D01*
X150470000Y-127505000D02*
X149100000Y-128875000D01*
X130350000Y-102175000D02*
X127700000Y-99525000D01*
X127700000Y-99525000D02*
X127700000Y-95100000D01*
X126750000Y-100250000D02*
X126750000Y-96500000D01*
X141337595Y-130125000D02*
X147950000Y-130125000D01*
X138926000Y-127713405D02*
X141337595Y-130125000D01*
X138926000Y-119176000D02*
X138926000Y-127713405D01*
X132050000Y-112300000D02*
X138926000Y-119176000D01*
X128987500Y-102487500D02*
X126750000Y-100250000D01*
X114278595Y-38164000D02*
X111025000Y-41417595D01*
X118411000Y-38164000D02*
X114278595Y-38164000D01*
X121235000Y-128800000D02*
X117152595Y-128800000D01*
X117152595Y-128800000D02*
X116324000Y-127971405D01*
X122530000Y-127505000D02*
X121235000Y-128800000D01*
X111025000Y-41417595D02*
X111025000Y-78875000D01*
X119825000Y-36750000D02*
X118411000Y-38164000D01*
X116324000Y-127971405D02*
X116324000Y-126749000D01*
X116324000Y-126749000D02*
X112225000Y-122650000D01*
X158775000Y-140450000D02*
X158775000Y-142375000D01*
G04 #@! TA.AperFunction,Conductor*
G36*
X144747539Y-27945185D02*
G01*
X144793294Y-27997989D01*
X144804500Y-28049500D01*
X144804500Y-28696879D01*
X144784815Y-28763918D01*
X144749390Y-28798593D01*
X144749919Y-28799321D01*
X144567641Y-28931752D01*
X144567636Y-28931756D01*
X144411756Y-29087636D01*
X144411752Y-29087641D01*
X144310318Y-29227254D01*
X144254988Y-29269920D01*
X144185375Y-29275899D01*
X144123580Y-29243293D01*
X144109682Y-29227254D01*
X144008247Y-29087641D01*
X144008243Y-29087636D01*
X143852363Y-28931756D01*
X143852358Y-28931752D01*
X143674025Y-28802187D01*
X143674024Y-28802186D01*
X143674022Y-28802185D01*
X143611096Y-28770122D01*
X143477606Y-28702104D01*
X143477603Y-28702103D01*
X143267952Y-28633985D01*
X143159086Y-28616742D01*
X143050222Y-28599500D01*
X142829778Y-28599500D01*
X142762714Y-28610122D01*
X142612047Y-28633985D01*
X142402396Y-28702103D01*
X142402393Y-28702104D01*
X142205974Y-28802187D01*
X142027641Y-28931752D01*
X142027636Y-28931756D01*
X141871756Y-29087636D01*
X141871752Y-29087641D01*
X141770318Y-29227254D01*
X141714988Y-29269920D01*
X141645375Y-29275899D01*
X141583580Y-29243293D01*
X141569682Y-29227254D01*
X141468247Y-29087641D01*
X141468243Y-29087636D01*
X141312363Y-28931756D01*
X141312358Y-28931752D01*
X141134025Y-28802187D01*
X141134024Y-28802186D01*
X141134022Y-28802185D01*
X141071096Y-28770122D01*
X140937606Y-28702104D01*
X140937603Y-28702103D01*
X140727952Y-28633985D01*
X140619086Y-28616742D01*
X140510222Y-28599500D01*
X140289778Y-28599500D01*
X140222714Y-28610122D01*
X140072047Y-28633985D01*
X139862396Y-28702103D01*
X139862393Y-28702104D01*
X139665974Y-28802187D01*
X139487641Y-28931752D01*
X139487636Y-28931756D01*
X139331756Y-29087636D01*
X139331752Y-29087641D01*
X139202187Y-29265974D01*
X139102104Y-29462393D01*
X139102103Y-29462396D01*
X139033985Y-29672047D01*
X138999500Y-29889778D01*
X138999500Y-30110221D01*
X139033985Y-30327952D01*
X139102103Y-30537603D01*
X139102104Y-30537606D01*
X139139684Y-30611359D01*
X139197129Y-30724100D01*
X139202187Y-30734025D01*
X139331752Y-30912358D01*
X139331756Y-30912363D01*
X139487636Y-31068243D01*
X139487641Y-31068247D01*
X139612537Y-31158988D01*
X139665978Y-31197815D01*
X139794375Y-31263237D01*
X139862393Y-31297895D01*
X139862396Y-31297896D01*
X139954898Y-31327951D01*
X140072049Y-31366015D01*
X140289778Y-31400500D01*
X140289779Y-31400500D01*
X140510221Y-31400500D01*
X140510222Y-31400500D01*
X140727951Y-31366015D01*
X140937606Y-31297895D01*
X141134022Y-31197815D01*
X141312365Y-31068242D01*
X141468242Y-30912365D01*
X141484652Y-30889778D01*
X141569682Y-30772745D01*
X141625011Y-30730079D01*
X141694625Y-30724100D01*
X141756420Y-30756705D01*
X141770318Y-30772745D01*
X141871752Y-30912358D01*
X141871756Y-30912363D01*
X142027636Y-31068243D01*
X142027641Y-31068247D01*
X142152537Y-31158988D01*
X142205978Y-31197815D01*
X142334375Y-31263237D01*
X142402393Y-31297895D01*
X142402396Y-31297896D01*
X142494898Y-31327951D01*
X142612049Y-31366015D01*
X142829778Y-31400500D01*
X142829779Y-31400500D01*
X143050221Y-31400500D01*
X143050222Y-31400500D01*
X143267951Y-31366015D01*
X143477606Y-31297895D01*
X143674022Y-31197815D01*
X143852365Y-31068242D01*
X144008242Y-30912365D01*
X144024652Y-30889778D01*
X144109682Y-30772745D01*
X144165011Y-30730079D01*
X144234625Y-30724100D01*
X144296420Y-30756705D01*
X144310318Y-30772745D01*
X144411752Y-30912358D01*
X144411756Y-30912363D01*
X144567636Y-31068243D01*
X144567641Y-31068247D01*
X144692537Y-31158988D01*
X144745978Y-31197815D01*
X144874375Y-31263237D01*
X144942393Y-31297895D01*
X144942396Y-31297896D01*
X145034898Y-31327951D01*
X145152049Y-31366015D01*
X145369778Y-31400500D01*
X145369779Y-31400500D01*
X145590221Y-31400500D01*
X145590222Y-31400500D01*
X145807951Y-31366015D01*
X146017606Y-31297895D01*
X146214022Y-31197815D01*
X146392365Y-31068242D01*
X146453717Y-31006889D01*
X146515036Y-30973407D01*
X146584728Y-30978391D01*
X146640662Y-31020262D01*
X146656748Y-31049081D01*
X146664305Y-31068242D01*
X146685638Y-31122342D01*
X146777077Y-31242922D01*
X146897656Y-31334360D01*
X146897657Y-31334360D01*
X146897658Y-31334361D01*
X147038436Y-31389877D01*
X147126898Y-31400500D01*
X147126903Y-31400500D01*
X148913097Y-31400500D01*
X148913102Y-31400500D01*
X149001564Y-31389877D01*
X149142342Y-31334361D01*
X149262922Y-31242922D01*
X149354361Y-31122342D01*
X149409877Y-30981564D01*
X149420500Y-30893102D01*
X149420500Y-29403163D01*
X149440185Y-29336124D01*
X149492989Y-29290369D01*
X149562147Y-29280425D01*
X149625703Y-29309450D01*
X149632167Y-29315468D01*
X149707251Y-29390552D01*
X149777627Y-29460928D01*
X149777630Y-29460930D01*
X149888252Y-29534845D01*
X149888255Y-29534846D01*
X149888263Y-29534852D01*
X150011196Y-29585772D01*
X150011200Y-29585772D01*
X150011201Y-29585773D01*
X150141698Y-29611732D01*
X150141701Y-29611732D01*
X150274763Y-29611732D01*
X162043837Y-29611732D01*
X162110876Y-29631417D01*
X162131518Y-29648051D01*
X168239073Y-35755606D01*
X168333162Y-35849695D01*
X168333165Y-35849697D01*
X168333166Y-35849698D01*
X168443788Y-35923613D01*
X168443791Y-35923614D01*
X168443799Y-35923620D01*
X168566732Y-35974540D01*
X168566736Y-35974540D01*
X168566737Y-35974541D01*
X168697234Y-36000500D01*
X168697237Y-36000500D01*
X173216592Y-36000500D01*
X173216593Y-36000499D01*
X173347096Y-35974541D01*
X173470029Y-35923620D01*
X173580666Y-35849695D01*
X174117498Y-35312861D01*
X174178819Y-35279378D01*
X174228387Y-35279912D01*
X174228529Y-35279021D01*
X174234155Y-35279912D01*
X174451070Y-35314268D01*
X174451071Y-35314268D01*
X174671513Y-35314268D01*
X174671514Y-35314268D01*
X174783562Y-35296521D01*
X174852854Y-35305475D01*
X174906306Y-35350471D01*
X174926946Y-35417223D01*
X174923544Y-35447893D01*
X174905147Y-35524654D01*
X174905146Y-35524662D01*
X174905146Y-35524663D01*
X174910886Y-35675883D01*
X174957212Y-35819948D01*
X175040688Y-35946171D01*
X175040689Y-35946172D01*
X175040690Y-35946173D01*
X175093303Y-35993293D01*
X175107059Y-36005612D01*
X176570232Y-37030137D01*
X176648788Y-37072175D01*
X176795950Y-37107445D01*
X176947170Y-37101705D01*
X177091235Y-37055379D01*
X177217458Y-36971903D01*
X177276899Y-36905532D01*
X178301424Y-35442359D01*
X178343462Y-35363803D01*
X178378732Y-35216641D01*
X178372992Y-35065421D01*
X178326666Y-34921356D01*
X178243190Y-34795133D01*
X178218324Y-34772863D01*
X178176825Y-34735697D01*
X178176816Y-34735690D01*
X178008854Y-34618082D01*
X176713646Y-33711167D01*
X176710295Y-33709374D01*
X176652106Y-33678235D01*
X176635090Y-33669129D01*
X176635089Y-33669128D01*
X176635088Y-33669128D01*
X176487933Y-33633860D01*
X176487928Y-33633859D01*
X176336708Y-33639599D01*
X176289750Y-33654699D01*
X176192642Y-33685925D01*
X176192639Y-33685927D01*
X176127546Y-33728976D01*
X176094486Y-33739155D01*
X176061491Y-33749526D01*
X176061127Y-33749426D01*
X176060770Y-33749537D01*
X176027467Y-33740230D01*
X175994092Y-33731113D01*
X175993841Y-33730834D01*
X175993478Y-33730733D01*
X175970426Y-33704824D01*
X175947346Y-33679185D01*
X175947200Y-33678719D01*
X175947035Y-33678533D01*
X175936763Y-33645514D01*
X175936732Y-33645326D01*
X175927307Y-33585817D01*
X175926737Y-33584064D01*
X175925686Y-33577619D01*
X175929458Y-33547323D01*
X175930978Y-33516838D01*
X175933817Y-33512312D01*
X175934319Y-33508285D01*
X175942503Y-33498469D01*
X175960383Y-33469976D01*
X176118543Y-33311816D01*
X176179866Y-33278334D01*
X176206223Y-33275500D01*
X177918837Y-33275500D01*
X177985876Y-33295185D01*
X178006518Y-33311819D01*
X191038181Y-46343482D01*
X191071666Y-46404805D01*
X191074500Y-46431163D01*
X191074500Y-47411872D01*
X191054815Y-47478911D01*
X191002011Y-47524666D01*
X190932853Y-47534610D01*
X190869297Y-47505585D01*
X190832569Y-47450190D01*
X190784128Y-47301102D01*
X190784127Y-47301099D01*
X190729713Y-47194308D01*
X190684047Y-47104684D01*
X190624465Y-47022676D01*
X190554479Y-46926347D01*
X190554475Y-46926342D01*
X190398595Y-46770462D01*
X190398590Y-46770458D01*
X190220257Y-46640893D01*
X190220256Y-46640892D01*
X190220254Y-46640891D01*
X190157328Y-46608828D01*
X190023838Y-46540810D01*
X190023835Y-46540809D01*
X189814184Y-46472691D01*
X189705318Y-46455448D01*
X189596454Y-46438206D01*
X189451600Y-46438206D01*
X189384561Y-46418521D01*
X189338806Y-46365717D01*
X189328862Y-46296559D01*
X189333669Y-46275889D01*
X189394415Y-46088927D01*
X189395362Y-46086012D01*
X189429847Y-45868283D01*
X189429847Y-45647839D01*
X189395362Y-45430110D01*
X189327242Y-45220455D01*
X189327242Y-45220454D01*
X189280902Y-45129509D01*
X189227162Y-45024039D01*
X189153845Y-44923126D01*
X189097594Y-44845702D01*
X189097590Y-44845697D01*
X188941710Y-44689817D01*
X188941705Y-44689813D01*
X188763372Y-44560248D01*
X188763371Y-44560247D01*
X188763369Y-44560246D01*
X188700443Y-44528183D01*
X188566953Y-44460165D01*
X188566950Y-44460164D01*
X188357299Y-44392046D01*
X188220069Y-44370311D01*
X188139569Y-44357561D01*
X187919125Y-44357561D01*
X187846548Y-44369056D01*
X187701394Y-44392046D01*
X187491743Y-44460164D01*
X187491740Y-44460165D01*
X187295321Y-44560248D01*
X187116988Y-44689813D01*
X187116983Y-44689817D01*
X186961105Y-44845695D01*
X186905363Y-44922417D01*
X186862476Y-44981446D01*
X186807148Y-45024112D01*
X186762159Y-45032561D01*
X186095482Y-45032561D01*
X185955324Y-45060440D01*
X185955318Y-45060442D01*
X185823287Y-45115131D01*
X185704456Y-45194530D01*
X184467674Y-46431312D01*
X184467670Y-46431317D01*
X184449093Y-46459121D01*
X184427814Y-46490968D01*
X184416496Y-46507907D01*
X184388274Y-46550143D01*
X184333585Y-46682175D01*
X184333583Y-46682181D01*
X184305704Y-46822338D01*
X184305704Y-48404330D01*
X184286019Y-48471369D01*
X184269385Y-48492011D01*
X152324215Y-80437181D01*
X152262892Y-80470666D01*
X152236534Y-80473500D01*
X108249500Y-80473500D01*
X108182461Y-80453815D01*
X108136706Y-80401011D01*
X108125500Y-80349500D01*
X108125500Y-69395481D01*
X108097620Y-69255324D01*
X108097619Y-69255323D01*
X108097619Y-69255319D01*
X108042929Y-69123286D01*
X107963532Y-69004459D01*
X107963530Y-69004456D01*
X107963529Y-69004455D01*
X97330223Y-58371150D01*
X97296738Y-58309827D01*
X97301722Y-58240135D01*
X97330223Y-58195788D01*
X103534384Y-51991628D01*
X109788532Y-45737480D01*
X109867929Y-45618653D01*
X109922619Y-45486620D01*
X109927392Y-45462621D01*
X109929812Y-45450461D01*
X109929812Y-45450460D01*
X109950500Y-45346457D01*
X109950500Y-38776873D01*
X109970185Y-38709834D01*
X109986819Y-38689192D01*
X111164192Y-37511819D01*
X111225515Y-37478334D01*
X111251873Y-37475500D01*
X113220500Y-37475500D01*
X113287539Y-37495185D01*
X113333294Y-37547989D01*
X113344500Y-37599500D01*
X113344500Y-37643102D01*
X113350126Y-37689954D01*
X113355122Y-37731561D01*
X113410639Y-37872342D01*
X113433423Y-37902388D01*
X113458245Y-37967699D01*
X113443816Y-38036063D01*
X113422299Y-38064993D01*
X110500307Y-40986985D01*
X110500304Y-40986989D01*
X110426383Y-41097619D01*
X110426378Y-41097629D01*
X110375459Y-41220558D01*
X110375457Y-41220566D01*
X110349500Y-41351059D01*
X110349500Y-78317482D01*
X110329815Y-78384521D01*
X110328602Y-78386373D01*
X110271300Y-78472130D01*
X110271295Y-78472140D01*
X110207184Y-78626917D01*
X110207182Y-78626925D01*
X110174500Y-78791228D01*
X110174500Y-78958771D01*
X110207182Y-79123074D01*
X110207184Y-79123082D01*
X110271295Y-79277860D01*
X110364373Y-79417162D01*
X110482837Y-79535626D01*
X110575494Y-79597537D01*
X110622137Y-79628703D01*
X110776918Y-79692816D01*
X110941228Y-79725499D01*
X110941232Y-79725500D01*
X110941233Y-79725500D01*
X111108768Y-79725500D01*
X111108769Y-79725499D01*
X111273082Y-79692816D01*
X111427863Y-79628703D01*
X111567162Y-79535626D01*
X111685626Y-79417162D01*
X111778703Y-79277863D01*
X111842816Y-79123082D01*
X111875500Y-78958767D01*
X111875500Y-78791233D01*
X111842816Y-78626918D01*
X111778703Y-78472137D01*
X111778701Y-78472134D01*
X111778699Y-78472130D01*
X111721398Y-78386373D01*
X111700520Y-78319695D01*
X111700500Y-78317482D01*
X111700500Y-41748757D01*
X111720185Y-41681718D01*
X111736814Y-41661081D01*
X113371594Y-40026300D01*
X113432915Y-39992817D01*
X113502607Y-39997801D01*
X113558540Y-40039673D01*
X113559552Y-40041043D01*
X113575319Y-40062745D01*
X113676758Y-40202365D01*
X113832636Y-40358243D01*
X113832641Y-40358247D01*
X113912011Y-40415912D01*
X114010978Y-40487815D01*
X114112142Y-40539361D01*
X114207393Y-40587895D01*
X114207396Y-40587896D01*
X114312221Y-40621955D01*
X114417049Y-40656015D01*
X114634778Y-40690500D01*
X114634779Y-40690500D01*
X114855221Y-40690500D01*
X114855222Y-40690500D01*
X114970094Y-40672305D01*
X115077763Y-40655253D01*
X115077960Y-40656500D01*
X115141914Y-40659681D01*
X115188794Y-40689095D01*
X117399390Y-42899692D01*
X117399394Y-42899695D01*
X117510024Y-42973616D01*
X117510028Y-42973618D01*
X117510031Y-42973620D01*
X117632964Y-43024541D01*
X117763464Y-43050499D01*
X117763468Y-43050500D01*
X117763469Y-43050500D01*
X128334425Y-43050500D01*
X128401464Y-43070185D01*
X128447219Y-43122989D01*
X128457163Y-43192147D01*
X128428138Y-43255703D01*
X128422106Y-43262181D01*
X125025307Y-46658978D01*
X125025304Y-46658982D01*
X124951383Y-46769612D01*
X124951378Y-46769622D01*
X124900459Y-46892551D01*
X124900457Y-46892559D01*
X124874574Y-47022676D01*
X124874575Y-47022677D01*
X124874501Y-47023049D01*
X124874500Y-47023061D01*
X124874500Y-47562482D01*
X124854815Y-47629521D01*
X124853602Y-47631373D01*
X124796300Y-47717130D01*
X124796295Y-47717140D01*
X124732184Y-47871917D01*
X124732182Y-47871925D01*
X124699500Y-48036228D01*
X124699500Y-48203771D01*
X124732182Y-48368074D01*
X124732184Y-48368082D01*
X124796295Y-48522860D01*
X124889373Y-48662162D01*
X125007837Y-48780626D01*
X125078229Y-48827660D01*
X125147137Y-48873703D01*
X125301918Y-48937816D01*
X125452740Y-48967816D01*
X125466228Y-48970499D01*
X125466232Y-48970500D01*
X125466233Y-48970500D01*
X125633768Y-48970500D01*
X125633769Y-48970499D01*
X125798082Y-48937816D01*
X125952863Y-48873703D01*
X126092162Y-48780626D01*
X126210626Y-48662162D01*
X126303703Y-48522863D01*
X126367816Y-48368082D01*
X126400500Y-48203767D01*
X126400500Y-48036233D01*
X126367816Y-47871918D01*
X126303703Y-47717137D01*
X126303701Y-47717134D01*
X126303699Y-47717130D01*
X126246398Y-47631373D01*
X126240747Y-47613326D01*
X126230523Y-47597417D01*
X126226071Y-47566455D01*
X126225520Y-47564695D01*
X126225500Y-47562482D01*
X126225500Y-47420751D01*
X126245185Y-47353712D01*
X126261819Y-47333070D01*
X135704693Y-37890196D01*
X135704695Y-37890194D01*
X135735540Y-37844031D01*
X135778620Y-37779557D01*
X135800232Y-37727381D01*
X135829541Y-37656624D01*
X135855500Y-37526119D01*
X135855500Y-37393057D01*
X135855500Y-34927516D01*
X135875185Y-34860477D01*
X135876398Y-34858625D01*
X135893488Y-34833048D01*
X135933703Y-34772863D01*
X135997816Y-34618082D01*
X136030500Y-34453767D01*
X136030500Y-34286233D01*
X135997816Y-34121918D01*
X135933703Y-33967137D01*
X135889047Y-33900305D01*
X135840626Y-33827837D01*
X135722162Y-33709373D01*
X135582860Y-33616295D01*
X135428082Y-33552184D01*
X135428074Y-33552182D01*
X135263771Y-33519500D01*
X135263767Y-33519500D01*
X135096233Y-33519500D01*
X135096228Y-33519500D01*
X134931925Y-33552182D01*
X134931917Y-33552184D01*
X134777139Y-33616295D01*
X134637837Y-33709373D01*
X134519373Y-33827837D01*
X134426295Y-33967139D01*
X134362184Y-34121917D01*
X134362182Y-34121925D01*
X134329500Y-34286228D01*
X134329500Y-34453771D01*
X134362182Y-34618074D01*
X134362184Y-34618082D01*
X134426295Y-34772860D01*
X134426296Y-34772862D01*
X134426297Y-34772863D01*
X134441177Y-34795133D01*
X134483602Y-34858625D01*
X134504480Y-34925302D01*
X134504500Y-34927516D01*
X134504500Y-37128424D01*
X134484815Y-37195463D01*
X134468181Y-37216105D01*
X130050782Y-41633503D01*
X129989459Y-41666988D01*
X129919767Y-41662004D01*
X129894211Y-41648925D01*
X129871130Y-41633503D01*
X129852863Y-41621297D01*
X129852860Y-41621295D01*
X129852859Y-41621295D01*
X129698082Y-41557184D01*
X129698074Y-41557182D01*
X129533771Y-41524500D01*
X129533767Y-41524500D01*
X129366233Y-41524500D01*
X129366228Y-41524500D01*
X129201925Y-41557182D01*
X129201917Y-41557184D01*
X129047140Y-41621295D01*
X129047131Y-41621300D01*
X128961374Y-41678602D01*
X128894697Y-41699480D01*
X128892483Y-41699500D01*
X118161163Y-41699500D01*
X118094124Y-41679815D01*
X118073482Y-41663181D01*
X116144095Y-39733794D01*
X116110610Y-39672471D01*
X116111148Y-39622904D01*
X116110253Y-39622763D01*
X116145500Y-39400221D01*
X116145500Y-39179778D01*
X116114317Y-38982898D01*
X116123272Y-38913605D01*
X116168268Y-38860153D01*
X116235019Y-38839513D01*
X116236790Y-38839500D01*
X118333210Y-38839500D01*
X118400249Y-38859185D01*
X118446004Y-38911989D01*
X118455948Y-38981147D01*
X118455683Y-38982898D01*
X118424500Y-39179778D01*
X118424500Y-39400221D01*
X118458985Y-39617952D01*
X118527103Y-39827603D01*
X118527104Y-39827606D01*
X118589214Y-39949500D01*
X118622129Y-40014100D01*
X118627187Y-40024025D01*
X118756752Y-40202358D01*
X118756756Y-40202363D01*
X118912636Y-40358243D01*
X118912641Y-40358247D01*
X118992011Y-40415912D01*
X119090978Y-40487815D01*
X119192142Y-40539361D01*
X119287393Y-40587895D01*
X119287396Y-40587896D01*
X119392221Y-40621955D01*
X119497049Y-40656015D01*
X119714778Y-40690500D01*
X119714779Y-40690500D01*
X119935221Y-40690500D01*
X119935222Y-40690500D01*
X120152951Y-40656015D01*
X120362606Y-40587895D01*
X120559022Y-40487815D01*
X120737365Y-40358242D01*
X120893242Y-40202365D01*
X120903804Y-40187826D01*
X120994682Y-40062745D01*
X121050011Y-40020079D01*
X121119625Y-40014100D01*
X121181420Y-40046705D01*
X121195318Y-40062745D01*
X121296752Y-40202358D01*
X121296756Y-40202363D01*
X121452636Y-40358243D01*
X121452641Y-40358247D01*
X121532011Y-40415912D01*
X121630978Y-40487815D01*
X121732142Y-40539361D01*
X121827393Y-40587895D01*
X121827396Y-40587896D01*
X121932221Y-40621955D01*
X122037049Y-40656015D01*
X122254778Y-40690500D01*
X122254779Y-40690500D01*
X122475221Y-40690500D01*
X122475222Y-40690500D01*
X122692951Y-40656015D01*
X122902606Y-40587895D01*
X123099022Y-40487815D01*
X123277365Y-40358242D01*
X123433242Y-40202365D01*
X123443804Y-40187826D01*
X123534682Y-40062745D01*
X123590011Y-40020079D01*
X123659625Y-40014100D01*
X123721420Y-40046705D01*
X123735318Y-40062745D01*
X123836752Y-40202358D01*
X123836756Y-40202363D01*
X123992636Y-40358243D01*
X123992641Y-40358247D01*
X124072011Y-40415912D01*
X124170978Y-40487815D01*
X124272142Y-40539361D01*
X124367393Y-40587895D01*
X124367396Y-40587896D01*
X124472221Y-40621955D01*
X124577049Y-40656015D01*
X124794778Y-40690500D01*
X124794779Y-40690500D01*
X125015221Y-40690500D01*
X125015222Y-40690500D01*
X125232951Y-40656015D01*
X125442606Y-40587895D01*
X125639022Y-40487815D01*
X125817365Y-40358242D01*
X125973242Y-40202365D01*
X125983804Y-40187826D01*
X126074682Y-40062745D01*
X126130011Y-40020079D01*
X126199625Y-40014100D01*
X126261420Y-40046705D01*
X126275318Y-40062745D01*
X126376752Y-40202358D01*
X126376756Y-40202363D01*
X126532636Y-40358243D01*
X126532641Y-40358247D01*
X126612011Y-40415912D01*
X126710978Y-40487815D01*
X126812142Y-40539361D01*
X126907393Y-40587895D01*
X126907396Y-40587896D01*
X127012221Y-40621955D01*
X127117049Y-40656015D01*
X127334778Y-40690500D01*
X127334779Y-40690500D01*
X127555221Y-40690500D01*
X127555222Y-40690500D01*
X127772951Y-40656015D01*
X127982606Y-40587895D01*
X128179022Y-40487815D01*
X128357365Y-40358242D01*
X128513242Y-40202365D01*
X128642815Y-40024022D01*
X128742895Y-39827606D01*
X128811015Y-39617951D01*
X128845500Y-39400222D01*
X128845500Y-39179778D01*
X128811015Y-38962049D01*
X128742895Y-38752394D01*
X128742895Y-38752393D01*
X128708237Y-38684375D01*
X128642815Y-38555978D01*
X128614681Y-38517254D01*
X128513247Y-38377641D01*
X128513243Y-38377636D01*
X128357363Y-38221756D01*
X128357358Y-38221752D01*
X128217745Y-38120318D01*
X128175079Y-38064989D01*
X128169100Y-37995375D01*
X128201705Y-37933580D01*
X128217745Y-37919682D01*
X128357358Y-37818247D01*
X128357356Y-37818247D01*
X128357365Y-37818242D01*
X128513242Y-37662365D01*
X128642815Y-37484022D01*
X128742895Y-37287606D01*
X128811015Y-37077951D01*
X128845500Y-36860222D01*
X128845500Y-36639778D01*
X128811015Y-36422049D01*
X128776955Y-36317221D01*
X128742896Y-36212396D01*
X128742895Y-36212393D01*
X128689231Y-36107074D01*
X128642815Y-36015978D01*
X128612710Y-35974542D01*
X128513247Y-35837641D01*
X128513243Y-35837636D01*
X128357363Y-35681756D01*
X128357358Y-35681752D01*
X128179025Y-35552187D01*
X128179024Y-35552186D01*
X128179022Y-35552185D01*
X128116096Y-35520122D01*
X127982606Y-35452104D01*
X127982603Y-35452103D01*
X127772952Y-35383985D01*
X127645527Y-35363803D01*
X127555222Y-35349500D01*
X127334778Y-35349500D01*
X127267714Y-35360122D01*
X127117047Y-35383985D01*
X126907396Y-35452103D01*
X126907393Y-35452104D01*
X126710974Y-35552187D01*
X126532641Y-35681752D01*
X126532636Y-35681756D01*
X126376756Y-35837636D01*
X126376752Y-35837641D01*
X126275318Y-35977254D01*
X126219988Y-36019920D01*
X126150375Y-36025899D01*
X126088580Y-35993293D01*
X126074682Y-35977254D01*
X125973247Y-35837641D01*
X125973243Y-35837636D01*
X125817363Y-35681756D01*
X125817358Y-35681752D01*
X125639025Y-35552187D01*
X125639024Y-35552186D01*
X125639022Y-35552185D01*
X125576096Y-35520122D01*
X125442606Y-35452104D01*
X125442603Y-35452103D01*
X125232952Y-35383985D01*
X125105527Y-35363803D01*
X125015222Y-35349500D01*
X124794778Y-35349500D01*
X124727714Y-35360122D01*
X124577047Y-35383985D01*
X124367396Y-35452103D01*
X124367393Y-35452104D01*
X124170974Y-35552187D01*
X123992641Y-35681752D01*
X123992636Y-35681756D01*
X123836756Y-35837636D01*
X123836752Y-35837641D01*
X123735318Y-35977254D01*
X123679988Y-36019920D01*
X123610375Y-36025899D01*
X123548580Y-35993293D01*
X123534682Y-35977254D01*
X123433247Y-35837641D01*
X123433243Y-35837636D01*
X123277363Y-35681756D01*
X123277358Y-35681752D01*
X123099025Y-35552187D01*
X123099024Y-35552186D01*
X123099022Y-35552185D01*
X123036096Y-35520122D01*
X122902606Y-35452104D01*
X122902603Y-35452103D01*
X122692952Y-35383985D01*
X122565527Y-35363803D01*
X122475222Y-35349500D01*
X122254778Y-35349500D01*
X122187714Y-35360122D01*
X122037047Y-35383985D01*
X121827396Y-35452103D01*
X121827393Y-35452104D01*
X121630974Y-35552187D01*
X121452641Y-35681752D01*
X121452636Y-35681756D01*
X121296756Y-35837636D01*
X121296752Y-35837641D01*
X121195318Y-35977254D01*
X121139988Y-36019920D01*
X121070375Y-36025899D01*
X121008580Y-35993293D01*
X120994682Y-35977254D01*
X120893247Y-35837641D01*
X120893243Y-35837636D01*
X120737363Y-35681756D01*
X120737358Y-35681752D01*
X120559025Y-35552187D01*
X120559024Y-35552186D01*
X120559022Y-35552185D01*
X120496096Y-35520122D01*
X120362606Y-35452104D01*
X120362603Y-35452103D01*
X120152952Y-35383985D01*
X120025527Y-35363803D01*
X119935222Y-35349500D01*
X119714778Y-35349500D01*
X119647714Y-35360122D01*
X119497047Y-35383985D01*
X119287396Y-35452103D01*
X119287393Y-35452104D01*
X119090974Y-35552187D01*
X118912641Y-35681752D01*
X118912636Y-35681756D01*
X118756756Y-35837636D01*
X118756752Y-35837641D01*
X118655318Y-35977254D01*
X118599988Y-36019920D01*
X118530375Y-36025899D01*
X118468580Y-35993293D01*
X118454682Y-35977254D01*
X118353247Y-35837641D01*
X118353243Y-35837636D01*
X118197363Y-35681756D01*
X118197358Y-35681752D01*
X118019025Y-35552187D01*
X118019024Y-35552186D01*
X118019022Y-35552185D01*
X117956096Y-35520122D01*
X117822606Y-35452104D01*
X117822603Y-35452103D01*
X117612952Y-35383985D01*
X117485527Y-35363803D01*
X117395222Y-35349500D01*
X117174778Y-35349500D01*
X117107714Y-35360122D01*
X116957047Y-35383985D01*
X116747396Y-35452103D01*
X116747393Y-35452104D01*
X116550974Y-35552187D01*
X116372642Y-35681751D01*
X116311285Y-35743108D01*
X116249961Y-35776592D01*
X116180270Y-35771607D01*
X116124336Y-35729736D01*
X116108252Y-35700921D01*
X116079361Y-35627658D01*
X116057261Y-35598516D01*
X115987922Y-35507077D01*
X115867343Y-35415639D01*
X115770631Y-35377501D01*
X115726564Y-35360123D01*
X115726563Y-35360122D01*
X115726561Y-35360122D01*
X115680926Y-35354642D01*
X115638102Y-35349500D01*
X115638097Y-35349500D01*
X115594500Y-35349500D01*
X115527461Y-35329815D01*
X115481706Y-35277011D01*
X115470500Y-35225500D01*
X115470500Y-33876874D01*
X115490185Y-33809835D01*
X115506819Y-33789193D01*
X117359193Y-31936819D01*
X117420516Y-31903334D01*
X117446874Y-31900500D01*
X131676457Y-31900500D01*
X131770751Y-31881742D01*
X131816620Y-31872619D01*
X131948653Y-31817929D01*
X131994599Y-31787229D01*
X132067480Y-31738532D01*
X132396971Y-31409039D01*
X132458290Y-31375557D01*
X132504043Y-31374250D01*
X132669778Y-31400500D01*
X132669779Y-31400500D01*
X132890221Y-31400500D01*
X132890222Y-31400500D01*
X133107951Y-31366015D01*
X133317606Y-31297895D01*
X133514022Y-31197815D01*
X133692365Y-31068242D01*
X133848242Y-30912365D01*
X133864652Y-30889778D01*
X133949682Y-30772745D01*
X134005011Y-30730079D01*
X134074625Y-30724100D01*
X134136420Y-30756705D01*
X134150318Y-30772745D01*
X134251752Y-30912358D01*
X134251756Y-30912363D01*
X134407636Y-31068243D01*
X134407641Y-31068247D01*
X134532537Y-31158988D01*
X134585978Y-31197815D01*
X134714375Y-31263237D01*
X134782393Y-31297895D01*
X134782396Y-31297896D01*
X134874898Y-31327951D01*
X134992049Y-31366015D01*
X135209778Y-31400500D01*
X135209779Y-31400500D01*
X135430221Y-31400500D01*
X135430222Y-31400500D01*
X135647951Y-31366015D01*
X135857606Y-31297895D01*
X136054022Y-31197815D01*
X136232365Y-31068242D01*
X136388242Y-30912365D01*
X136517815Y-30734022D01*
X136617895Y-30537606D01*
X136686015Y-30327951D01*
X136720500Y-30110222D01*
X136720500Y-29889778D01*
X136686015Y-29672049D01*
X136641436Y-29534847D01*
X136617896Y-29462396D01*
X136617895Y-29462393D01*
X136578016Y-29384128D01*
X136517815Y-29265978D01*
X136489681Y-29227254D01*
X136388247Y-29087641D01*
X136388243Y-29087636D01*
X136232363Y-28931756D01*
X136232358Y-28931752D01*
X136054025Y-28802187D01*
X136054024Y-28802186D01*
X136054022Y-28802185D01*
X135991096Y-28770122D01*
X135857606Y-28702104D01*
X135857603Y-28702103D01*
X135647952Y-28633985D01*
X135539086Y-28616742D01*
X135430222Y-28599500D01*
X135209778Y-28599500D01*
X135142714Y-28610122D01*
X134992047Y-28633985D01*
X134782396Y-28702103D01*
X134782393Y-28702104D01*
X134585974Y-28802187D01*
X134407641Y-28931752D01*
X134407636Y-28931756D01*
X134251756Y-29087636D01*
X134251752Y-29087641D01*
X134150318Y-29227254D01*
X134094988Y-29269920D01*
X134025375Y-29275899D01*
X133963580Y-29243293D01*
X133949682Y-29227254D01*
X133848247Y-29087641D01*
X133848243Y-29087636D01*
X133692363Y-28931756D01*
X133692358Y-28931752D01*
X133514025Y-28802187D01*
X133514024Y-28802186D01*
X133514022Y-28802185D01*
X133451096Y-28770122D01*
X133317606Y-28702104D01*
X133317603Y-28702103D01*
X133107952Y-28633985D01*
X132999086Y-28616742D01*
X132890222Y-28599500D01*
X132669778Y-28599500D01*
X132602714Y-28610122D01*
X132452047Y-28633985D01*
X132242396Y-28702103D01*
X132242393Y-28702104D01*
X132045974Y-28802187D01*
X131867641Y-28931752D01*
X131867636Y-28931756D01*
X131711756Y-29087636D01*
X131711752Y-29087641D01*
X131582187Y-29265974D01*
X131482104Y-29462393D01*
X131482103Y-29462396D01*
X131413985Y-29672047D01*
X131404316Y-29733094D01*
X131379500Y-29889778D01*
X131379500Y-30110222D01*
X131404169Y-30265978D01*
X131405749Y-30275950D01*
X131405048Y-30281374D01*
X131406960Y-30286500D01*
X131400617Y-30315658D01*
X131396794Y-30345243D01*
X131392963Y-30350845D01*
X131392109Y-30354773D01*
X131370959Y-30383028D01*
X131340808Y-30413180D01*
X131279485Y-30446666D01*
X131253125Y-30449500D01*
X117023543Y-30449500D01*
X116900091Y-30474057D01*
X116887528Y-30476555D01*
X116883379Y-30477381D01*
X116751348Y-30532070D01*
X116632517Y-30611469D01*
X114181469Y-33062517D01*
X114103148Y-33179735D01*
X114103141Y-33179746D01*
X114102600Y-33180554D01*
X114102068Y-33181351D01*
X114047382Y-33313375D01*
X114047379Y-33313385D01*
X114019500Y-33453542D01*
X114019500Y-35225500D01*
X113999815Y-35292539D01*
X113947011Y-35338294D01*
X113895500Y-35349500D01*
X113851898Y-35349500D01*
X113812853Y-35354188D01*
X113763438Y-35360122D01*
X113622656Y-35415639D01*
X113502077Y-35507077D01*
X113410639Y-35627656D01*
X113355122Y-35768438D01*
X113349188Y-35817853D01*
X113344500Y-35856898D01*
X113344500Y-35856903D01*
X113344500Y-35900500D01*
X113324815Y-35967539D01*
X113272011Y-36013294D01*
X113220500Y-36024500D01*
X110828543Y-36024500D01*
X110688385Y-36052379D01*
X110688379Y-36052381D01*
X110556349Y-36107069D01*
X110556340Y-36107074D01*
X110437521Y-36186467D01*
X110437517Y-36186470D01*
X108661472Y-37962514D01*
X108661466Y-37962521D01*
X108604423Y-38047894D01*
X108604422Y-38047896D01*
X108582075Y-38081338D01*
X108582069Y-38081349D01*
X108527381Y-38213379D01*
X108527379Y-38213387D01*
X108515185Y-38274691D01*
X108500474Y-38302814D01*
X108487281Y-38331703D01*
X108484391Y-38333560D01*
X108482800Y-38336602D01*
X108455217Y-38352308D01*
X108428503Y-38369477D01*
X108423908Y-38370137D01*
X108422085Y-38371176D01*
X108393568Y-38374500D01*
X108239284Y-38374500D01*
X108172245Y-38354815D01*
X108151603Y-38338181D01*
X105567105Y-35753683D01*
X105533620Y-35692360D01*
X105532313Y-35646604D01*
X105558562Y-35480873D01*
X105558562Y-35336021D01*
X105578247Y-35268982D01*
X105631051Y-35223227D01*
X105700209Y-35213283D01*
X105720874Y-35218088D01*
X105910756Y-35279784D01*
X106128485Y-35314269D01*
X106128486Y-35314269D01*
X106348928Y-35314269D01*
X106348929Y-35314269D01*
X106566658Y-35279784D01*
X106776313Y-35211664D01*
X106972729Y-35111584D01*
X107151072Y-34982011D01*
X107306949Y-34826134D01*
X107436522Y-34647791D01*
X107536602Y-34451375D01*
X107604722Y-34241720D01*
X107639207Y-34023991D01*
X107639207Y-33803547D01*
X107604722Y-33585818D01*
X107561744Y-33453542D01*
X107536603Y-33376165D01*
X107536602Y-33376162D01*
X107476065Y-33257354D01*
X107436522Y-33179747D01*
X107351350Y-33062517D01*
X107306954Y-33001410D01*
X107306950Y-33001405D01*
X107151070Y-32845525D01*
X107151065Y-32845521D01*
X106972732Y-32715956D01*
X106972731Y-32715955D01*
X106972729Y-32715954D01*
X106909803Y-32683891D01*
X106776313Y-32615873D01*
X106776310Y-32615872D01*
X106566659Y-32547754D01*
X106457793Y-32530511D01*
X106348929Y-32513269D01*
X106128485Y-32513269D01*
X106055908Y-32524764D01*
X105910754Y-32547754D01*
X105701103Y-32615872D01*
X105701100Y-32615873D01*
X105504681Y-32715956D01*
X105326348Y-32845521D01*
X105326343Y-32845525D01*
X105170463Y-33001405D01*
X105170459Y-33001410D01*
X105040894Y-33179743D01*
X104940811Y-33376162D01*
X104940810Y-33376165D01*
X104872692Y-33585816D01*
X104838207Y-33803547D01*
X104838207Y-33948399D01*
X104818522Y-34015438D01*
X104765718Y-34061193D01*
X104696560Y-34071137D01*
X104675890Y-34066330D01*
X104486015Y-34004637D01*
X104486016Y-34004637D01*
X104322716Y-33978773D01*
X104268284Y-33970152D01*
X104047840Y-33970152D01*
X103975263Y-33981647D01*
X103830109Y-34004637D01*
X103620458Y-34072755D01*
X103620455Y-34072756D01*
X103424036Y-34172839D01*
X103245703Y-34302404D01*
X103245698Y-34302408D01*
X103089818Y-34458288D01*
X103089814Y-34458293D01*
X102960249Y-34636626D01*
X102860166Y-34833045D01*
X102860165Y-34833048D01*
X102792047Y-35042699D01*
X102757562Y-35260430D01*
X102757562Y-35480873D01*
X102792047Y-35698604D01*
X102860165Y-35908255D01*
X102860166Y-35908258D01*
X102960249Y-36104677D01*
X103089814Y-36283010D01*
X103089818Y-36283015D01*
X103245698Y-36438895D01*
X103245703Y-36438899D01*
X103401254Y-36551912D01*
X103424040Y-36568467D01*
X103552437Y-36633889D01*
X103620455Y-36668547D01*
X103620458Y-36668548D01*
X103725283Y-36702607D01*
X103830111Y-36736667D01*
X104047840Y-36771152D01*
X104047841Y-36771152D01*
X104268283Y-36771152D01*
X104268284Y-36771152D01*
X104377474Y-36753858D01*
X104434014Y-36744903D01*
X104503308Y-36753858D01*
X104541093Y-36779695D01*
X107424925Y-39663528D01*
X107424928Y-39663531D01*
X107424931Y-39663533D01*
X107510348Y-39720606D01*
X107543757Y-39742929D01*
X107675790Y-39797619D01*
X107675794Y-39797619D01*
X107675795Y-39797620D01*
X107815952Y-39825500D01*
X107815955Y-39825500D01*
X108375500Y-39825500D01*
X108442539Y-39845185D01*
X108488294Y-39897989D01*
X108499500Y-39949500D01*
X108499500Y-44923126D01*
X108479815Y-44990165D01*
X108463181Y-45010807D01*
X95993868Y-57480120D01*
X95932545Y-57513605D01*
X95906187Y-57516439D01*
X86385339Y-57516439D01*
X86318300Y-57496754D01*
X86272545Y-57443950D01*
X86262601Y-57374792D01*
X86291626Y-57311236D01*
X86312451Y-57292122D01*
X86398596Y-57229535D01*
X86554473Y-57073658D01*
X86684046Y-56895315D01*
X86784126Y-56698899D01*
X86852246Y-56489244D01*
X86886731Y-56271515D01*
X86886731Y-56051071D01*
X86852246Y-55833342D01*
X86784126Y-55623688D01*
X86784126Y-55623686D01*
X86712223Y-55482571D01*
X86684046Y-55427271D01*
X86667491Y-55404485D01*
X86554478Y-55248934D01*
X86554474Y-55248929D01*
X86398594Y-55093049D01*
X86398589Y-55093045D01*
X86220256Y-54963480D01*
X86220255Y-54963479D01*
X86220253Y-54963478D01*
X86119396Y-54912088D01*
X86023837Y-54863397D01*
X86023834Y-54863396D01*
X85814183Y-54795278D01*
X85705317Y-54778035D01*
X85596453Y-54760793D01*
X85376009Y-54760793D01*
X85303432Y-54772288D01*
X85158278Y-54795278D01*
X84948627Y-54863396D01*
X84948624Y-54863397D01*
X84752205Y-54963480D01*
X84573872Y-55093045D01*
X84573867Y-55093049D01*
X84417987Y-55248929D01*
X84417983Y-55248934D01*
X84288418Y-55427267D01*
X84188335Y-55623686D01*
X84188334Y-55623689D01*
X84120216Y-55833340D01*
X84085731Y-56051071D01*
X84085731Y-56271514D01*
X84120216Y-56489245D01*
X84181910Y-56679121D01*
X84183905Y-56748962D01*
X84147824Y-56808795D01*
X84085123Y-56839623D01*
X84063979Y-56841439D01*
X83919125Y-56841439D01*
X83846548Y-56852934D01*
X83701394Y-56875924D01*
X83491743Y-56944042D01*
X83491740Y-56944043D01*
X83295321Y-57044126D01*
X83116988Y-57173691D01*
X83116983Y-57173695D01*
X82961103Y-57329575D01*
X82961099Y-57329580D01*
X82831534Y-57507913D01*
X82731451Y-57704332D01*
X82731450Y-57704335D01*
X82663332Y-57913986D01*
X82628847Y-58131717D01*
X82628847Y-58352160D01*
X82663332Y-58569891D01*
X82731450Y-58779542D01*
X82731451Y-58779545D01*
X82831534Y-58975964D01*
X82961099Y-59154297D01*
X82961103Y-59154302D01*
X83116983Y-59310182D01*
X83116988Y-59310186D01*
X83243376Y-59402011D01*
X83295325Y-59439754D01*
X83423722Y-59505176D01*
X83491740Y-59539834D01*
X83491743Y-59539835D01*
X83596568Y-59573894D01*
X83701396Y-59607954D01*
X83919125Y-59642439D01*
X83919126Y-59642439D01*
X84139568Y-59642439D01*
X84139569Y-59642439D01*
X84357298Y-59607954D01*
X84566953Y-59539834D01*
X84763369Y-59439754D01*
X84941712Y-59310181D01*
X85097589Y-59154304D01*
X85196217Y-59018553D01*
X85251546Y-58975888D01*
X85296535Y-58967439D01*
X95823126Y-58967439D01*
X95890165Y-58987124D01*
X95910807Y-59003758D01*
X106638181Y-69731132D01*
X106671666Y-69792455D01*
X106674500Y-69818813D01*
X106674500Y-80802314D01*
X106654815Y-80869353D01*
X106653602Y-80871205D01*
X106601988Y-80948449D01*
X106601987Y-80948452D01*
X106534106Y-81112332D01*
X106534103Y-81112341D01*
X106499500Y-81286304D01*
X106499500Y-81463695D01*
X106534103Y-81637658D01*
X106534106Y-81637667D01*
X106601983Y-81801540D01*
X106601990Y-81801553D01*
X106700535Y-81949034D01*
X106700538Y-81949038D01*
X106825961Y-82074461D01*
X106825965Y-82074464D01*
X106973446Y-82173009D01*
X106973459Y-82173016D01*
X107096363Y-82223923D01*
X107137334Y-82240894D01*
X107137336Y-82240894D01*
X107137341Y-82240896D01*
X107311304Y-82275499D01*
X107311307Y-82275500D01*
X107311309Y-82275500D01*
X107488693Y-82275500D01*
X107488694Y-82275499D01*
X107546682Y-82263964D01*
X107662658Y-82240896D01*
X107662661Y-82240894D01*
X107662666Y-82240894D01*
X107826547Y-82173013D01*
X107974035Y-82074464D01*
X108024189Y-82024310D01*
X108087681Y-81960819D01*
X108149004Y-81927334D01*
X108175362Y-81924500D01*
X145325865Y-81924500D01*
X145356322Y-81933443D01*
X145387226Y-81940746D01*
X145389611Y-81943218D01*
X145392904Y-81944185D01*
X145413685Y-81968168D01*
X145435741Y-81991026D01*
X145437285Y-81995403D01*
X145438659Y-81996989D01*
X145447483Y-82024310D01*
X145457826Y-82076310D01*
X145451597Y-82145901D01*
X145408734Y-82201078D01*
X145342844Y-82224322D01*
X145336208Y-82224500D01*
X145241228Y-82224500D01*
X145076925Y-82257182D01*
X145076917Y-82257184D01*
X144922140Y-82321295D01*
X144922131Y-82321300D01*
X144836374Y-82378602D01*
X144769697Y-82399480D01*
X144767483Y-82399500D01*
X118768467Y-82399500D01*
X118637969Y-82425458D01*
X118637959Y-82425461D01*
X118515038Y-82476376D01*
X118515020Y-82476386D01*
X118404398Y-82550301D01*
X118404390Y-82550307D01*
X104136518Y-96818181D01*
X104075195Y-96851666D01*
X104048837Y-96854500D01*
X102578464Y-96854500D01*
X102447971Y-96880457D01*
X102447963Y-96880459D01*
X102325034Y-96931378D01*
X102325024Y-96931383D01*
X102214394Y-97005304D01*
X102214390Y-97005307D01*
X101385307Y-97834390D01*
X101385304Y-97834394D01*
X101311383Y-97945024D01*
X101311378Y-97945034D01*
X101265956Y-98054692D01*
X101260459Y-98067964D01*
X101246255Y-98139374D01*
X101234500Y-98198469D01*
X101234500Y-98314003D01*
X101234173Y-98318498D01*
X101223438Y-98347171D01*
X101214815Y-98376539D01*
X101211305Y-98379580D01*
X101209676Y-98383932D01*
X101185139Y-98402252D01*
X101162011Y-98422294D01*
X101156773Y-98423433D01*
X101153691Y-98425735D01*
X101142614Y-98426513D01*
X101110500Y-98433500D01*
X100850898Y-98433500D01*
X100811853Y-98438188D01*
X100762438Y-98444122D01*
X100621656Y-98499639D01*
X100501077Y-98591077D01*
X100409639Y-98711656D01*
X100354122Y-98852438D01*
X100348188Y-98901853D01*
X100343500Y-98940898D01*
X100343500Y-101059102D01*
X100349126Y-101105954D01*
X100354122Y-101147561D01*
X100354122Y-101147563D01*
X100354123Y-101147564D01*
X100369551Y-101186687D01*
X100409639Y-101288343D01*
X100501077Y-101408922D01*
X100621656Y-101500360D01*
X100621657Y-101500360D01*
X100621658Y-101500361D01*
X100762436Y-101555877D01*
X100850898Y-101566500D01*
X100850903Y-101566500D01*
X102969097Y-101566500D01*
X102969102Y-101566500D01*
X103057564Y-101555877D01*
X103198342Y-101500361D01*
X103318922Y-101408922D01*
X103389459Y-101315904D01*
X103445651Y-101274382D01*
X103515372Y-101269830D01*
X103561147Y-101290511D01*
X103628975Y-101339791D01*
X103723049Y-101387724D01*
X103848668Y-101451731D01*
X103848670Y-101451731D01*
X103848673Y-101451733D01*
X103971934Y-101491783D01*
X104083176Y-101527928D01*
X104326709Y-101566500D01*
X104326714Y-101566500D01*
X104573291Y-101566500D01*
X104816823Y-101527928D01*
X104901665Y-101500361D01*
X105051327Y-101451733D01*
X105271025Y-101339791D01*
X105470506Y-101194859D01*
X105644859Y-101020506D01*
X105789791Y-100821025D01*
X105901733Y-100601327D01*
X105977928Y-100366823D01*
X106016500Y-100123291D01*
X106016500Y-99876708D01*
X105982847Y-99664236D01*
X105977928Y-99633177D01*
X105950938Y-99550110D01*
X105948943Y-99480269D01*
X105981186Y-99424113D01*
X116462820Y-88942480D01*
X116524142Y-88908996D01*
X116593834Y-88913980D01*
X116649767Y-88955852D01*
X116674184Y-89021316D01*
X116674500Y-89030162D01*
X116674500Y-89183771D01*
X116707182Y-89348074D01*
X116707184Y-89348082D01*
X116771295Y-89502860D01*
X116864373Y-89642162D01*
X116982837Y-89760626D01*
X117073638Y-89821297D01*
X117122137Y-89853703D01*
X117276918Y-89917816D01*
X117441228Y-89950499D01*
X117441232Y-89950500D01*
X117441233Y-89950500D01*
X117608768Y-89950500D01*
X117608769Y-89950499D01*
X117773082Y-89917816D01*
X117927863Y-89853703D01*
X118013626Y-89796398D01*
X118080303Y-89775520D01*
X118082517Y-89775500D01*
X124847349Y-89775500D01*
X124914388Y-89795185D01*
X124960143Y-89847989D01*
X124970087Y-89917147D01*
X124941062Y-89980703D01*
X124935030Y-89987181D01*
X124889376Y-90032834D01*
X124889373Y-90032837D01*
X124796295Y-90172139D01*
X124732184Y-90326917D01*
X124732182Y-90326925D01*
X124699500Y-90491228D01*
X124699500Y-90658771D01*
X124732182Y-90823074D01*
X124732184Y-90823082D01*
X124796295Y-90977860D01*
X124853602Y-91063625D01*
X124874480Y-91130302D01*
X124874500Y-91132516D01*
X124874500Y-103410937D01*
X124854815Y-103477976D01*
X124838181Y-103498618D01*
X124096781Y-104240018D01*
X124035458Y-104273503D01*
X123965766Y-104268519D01*
X123909833Y-104226647D01*
X123885416Y-104161183D01*
X123885100Y-104152337D01*
X123885100Y-96818066D01*
X123859141Y-96687569D01*
X123859140Y-96687568D01*
X123859140Y-96687564D01*
X123808220Y-96564631D01*
X123737484Y-96458767D01*
X123734298Y-96453998D01*
X123734297Y-96453997D01*
X123734295Y-96453994D01*
X123640206Y-96359905D01*
X123571874Y-96291573D01*
X123538389Y-96230250D01*
X123537968Y-96228232D01*
X123517816Y-96126918D01*
X123453703Y-95972137D01*
X123422537Y-95925494D01*
X123360626Y-95832837D01*
X123242162Y-95714373D01*
X123102860Y-95621295D01*
X122948082Y-95557184D01*
X122948074Y-95557182D01*
X122783771Y-95524500D01*
X122783767Y-95524500D01*
X122616233Y-95524500D01*
X122616228Y-95524500D01*
X122451925Y-95557182D01*
X122451917Y-95557184D01*
X122297139Y-95621295D01*
X122157837Y-95714373D01*
X122039373Y-95832837D01*
X121946295Y-95972139D01*
X121882184Y-96126917D01*
X121882182Y-96126925D01*
X121849500Y-96291228D01*
X121849500Y-96458771D01*
X121882182Y-96623074D01*
X121882184Y-96623082D01*
X121946295Y-96777860D01*
X122039373Y-96917162D01*
X122157837Y-97035626D01*
X122250494Y-97097537D01*
X122297137Y-97128703D01*
X122297138Y-97128703D01*
X122297139Y-97128704D01*
X122457546Y-97195147D01*
X122456300Y-97198154D01*
X122503218Y-97227825D01*
X122532706Y-97291167D01*
X122534100Y-97309710D01*
X122534100Y-105184237D01*
X122514415Y-105251276D01*
X122497781Y-105271918D01*
X121181518Y-106588181D01*
X121120195Y-106621666D01*
X121093837Y-106624500D01*
X120074906Y-106624500D01*
X120027453Y-106615061D01*
X119992196Y-106600457D01*
X119948082Y-106582184D01*
X119948074Y-106582182D01*
X119783771Y-106549500D01*
X119783767Y-106549500D01*
X119616233Y-106549500D01*
X119616228Y-106549500D01*
X119451925Y-106582182D01*
X119451917Y-106582184D01*
X119297139Y-106646295D01*
X119157837Y-106739373D01*
X119039373Y-106857837D01*
X118946295Y-106997139D01*
X118882184Y-107151917D01*
X118882182Y-107151925D01*
X118849500Y-107316228D01*
X118849500Y-107483771D01*
X118876044Y-107617215D01*
X118882184Y-107648082D01*
X118946297Y-107802863D01*
X118958682Y-107821398D01*
X118973925Y-107844211D01*
X118994802Y-107910889D01*
X118976317Y-107978269D01*
X118958503Y-108000782D01*
X118402595Y-108556691D01*
X118341272Y-108590176D01*
X118271581Y-108585192D01*
X118242030Y-108569329D01*
X118184024Y-108527186D01*
X117987606Y-108427104D01*
X117987603Y-108427103D01*
X117777952Y-108358985D01*
X117648115Y-108338421D01*
X117560222Y-108324500D01*
X117339778Y-108324500D01*
X117142897Y-108355682D01*
X117073604Y-108346727D01*
X117020152Y-108301731D01*
X116999513Y-108234979D01*
X116999500Y-108233209D01*
X116999500Y-107004650D01*
X117019185Y-106937611D01*
X117035814Y-106916973D01*
X117110626Y-106842162D01*
X117203703Y-106702863D01*
X117267816Y-106548082D01*
X117300500Y-106383767D01*
X117300500Y-106216233D01*
X117267816Y-106051918D01*
X117205686Y-105901925D01*
X117203704Y-105897139D01*
X117189245Y-105875500D01*
X117158258Y-105829124D01*
X117110626Y-105757837D01*
X116992162Y-105639373D01*
X116852860Y-105546295D01*
X116698082Y-105482184D01*
X116698074Y-105482182D01*
X116533771Y-105449500D01*
X116533767Y-105449500D01*
X116366233Y-105449500D01*
X116366228Y-105449500D01*
X116201925Y-105482182D01*
X116201917Y-105482184D01*
X116047139Y-105546295D01*
X115907837Y-105639373D01*
X115789373Y-105757837D01*
X115696295Y-105897139D01*
X115632184Y-106051917D01*
X115632182Y-106051925D01*
X115599500Y-106216228D01*
X115599500Y-106383771D01*
X115632182Y-106548075D01*
X115632185Y-106548086D01*
X115639060Y-106564682D01*
X115648500Y-106612137D01*
X115648500Y-108327115D01*
X115628815Y-108394154D01*
X115576011Y-108439909D01*
X115506853Y-108449853D01*
X115468207Y-108437601D01*
X115447607Y-108427105D01*
X115447603Y-108427103D01*
X115237952Y-108358985D01*
X115108115Y-108338421D01*
X115020222Y-108324500D01*
X114799778Y-108324500D01*
X114783268Y-108327115D01*
X114582047Y-108358985D01*
X114372396Y-108427103D01*
X114372393Y-108427104D01*
X114175974Y-108527187D01*
X113997641Y-108656752D01*
X113997636Y-108656756D01*
X113841756Y-108812636D01*
X113841752Y-108812641D01*
X113740318Y-108952254D01*
X113684988Y-108994920D01*
X113615375Y-109000899D01*
X113553580Y-108968293D01*
X113539682Y-108952254D01*
X113438247Y-108812641D01*
X113438243Y-108812636D01*
X113282363Y-108656756D01*
X113282358Y-108656752D01*
X113104025Y-108527187D01*
X113104024Y-108527186D01*
X113104022Y-108527185D01*
X113028920Y-108488918D01*
X112907606Y-108427104D01*
X112907603Y-108427103D01*
X112697952Y-108358985D01*
X112568115Y-108338421D01*
X112480222Y-108324500D01*
X112259778Y-108324500D01*
X112243268Y-108327115D01*
X112042047Y-108358985D01*
X111832396Y-108427103D01*
X111832393Y-108427104D01*
X111635974Y-108527187D01*
X111457641Y-108656752D01*
X111457636Y-108656756D01*
X111301756Y-108812636D01*
X111301752Y-108812641D01*
X111200318Y-108952254D01*
X111144988Y-108994920D01*
X111075375Y-109000899D01*
X111013580Y-108968293D01*
X110999682Y-108952254D01*
X110898247Y-108812641D01*
X110898243Y-108812636D01*
X110742363Y-108656756D01*
X110742358Y-108656752D01*
X110564025Y-108527187D01*
X110564024Y-108527186D01*
X110564022Y-108527185D01*
X110488920Y-108488918D01*
X110367606Y-108427104D01*
X110367603Y-108427103D01*
X110157952Y-108358985D01*
X110028115Y-108338421D01*
X109940222Y-108324500D01*
X109719778Y-108324500D01*
X109703268Y-108327115D01*
X109502047Y-108358985D01*
X109292396Y-108427103D01*
X109292393Y-108427104D01*
X109095974Y-108527187D01*
X108917641Y-108656752D01*
X108917636Y-108656756D01*
X108761756Y-108812636D01*
X108761752Y-108812641D01*
X108632187Y-108990974D01*
X108532104Y-109187393D01*
X108532103Y-109187396D01*
X108463985Y-109397047D01*
X108429500Y-109614778D01*
X108429500Y-109835221D01*
X108463985Y-110052952D01*
X108532103Y-110262603D01*
X108532104Y-110262606D01*
X108562354Y-110321973D01*
X108627129Y-110449100D01*
X108632187Y-110459025D01*
X108761752Y-110637358D01*
X108761756Y-110637363D01*
X108917636Y-110793243D01*
X108917641Y-110793247D01*
X109073192Y-110906260D01*
X109095978Y-110922815D01*
X109184505Y-110967922D01*
X109292393Y-111022895D01*
X109292396Y-111022896D01*
X109345977Y-111040305D01*
X109502049Y-111091015D01*
X109719778Y-111125500D01*
X109719779Y-111125500D01*
X109940221Y-111125500D01*
X109940222Y-111125500D01*
X110157951Y-111091015D01*
X110367606Y-111022895D01*
X110564022Y-110922815D01*
X110742365Y-110793242D01*
X110898242Y-110637365D01*
X110923489Y-110602615D01*
X110999682Y-110497745D01*
X111055011Y-110455079D01*
X111124625Y-110449100D01*
X111186420Y-110481705D01*
X111200318Y-110497745D01*
X111301752Y-110637358D01*
X111301756Y-110637363D01*
X111457636Y-110793243D01*
X111457641Y-110793247D01*
X111613192Y-110906260D01*
X111635978Y-110922815D01*
X111724505Y-110967922D01*
X111832393Y-111022895D01*
X111832396Y-111022896D01*
X111885977Y-111040305D01*
X112042049Y-111091015D01*
X112259778Y-111125500D01*
X112259779Y-111125500D01*
X112480221Y-111125500D01*
X112480222Y-111125500D01*
X112697951Y-111091015D01*
X112907606Y-111022895D01*
X113104022Y-110922815D01*
X113282365Y-110793242D01*
X113438242Y-110637365D01*
X113463489Y-110602615D01*
X113539682Y-110497745D01*
X113595011Y-110455079D01*
X113664625Y-110449100D01*
X113726420Y-110481705D01*
X113740318Y-110497745D01*
X113841752Y-110637358D01*
X113841756Y-110637363D01*
X113997636Y-110793243D01*
X113997641Y-110793247D01*
X114153192Y-110906260D01*
X114175978Y-110922815D01*
X114264505Y-110967922D01*
X114372393Y-111022895D01*
X114372396Y-111022896D01*
X114425977Y-111040305D01*
X114582049Y-111091015D01*
X114799778Y-111125500D01*
X114799779Y-111125500D01*
X115020221Y-111125500D01*
X115020222Y-111125500D01*
X115237951Y-111091015D01*
X115447606Y-111022895D01*
X115644022Y-110922815D01*
X115644023Y-110922814D01*
X115646247Y-110921681D01*
X115714916Y-110908784D01*
X115779657Y-110935060D01*
X115798390Y-110953493D01*
X115799301Y-110954603D01*
X116653124Y-111808425D01*
X116686609Y-111869748D01*
X116687060Y-111871915D01*
X116707182Y-111973074D01*
X116707184Y-111973082D01*
X116771295Y-112127860D01*
X116864373Y-112267162D01*
X116982837Y-112385626D01*
X117054390Y-112433436D01*
X117122137Y-112478703D01*
X117276918Y-112542816D01*
X117441228Y-112575499D01*
X117441232Y-112575500D01*
X117441233Y-112575500D01*
X117608768Y-112575500D01*
X117608769Y-112575499D01*
X117773082Y-112542816D01*
X117927863Y-112478703D01*
X117995610Y-112433435D01*
X118062286Y-112412558D01*
X118129667Y-112431042D01*
X118176357Y-112483021D01*
X118188500Y-112536538D01*
X118188500Y-125759836D01*
X118168815Y-125826875D01*
X118152181Y-125847517D01*
X117893794Y-126105903D01*
X117832471Y-126139388D01*
X117782903Y-126138861D01*
X117782763Y-126139747D01*
X117648115Y-126118421D01*
X117560222Y-126104500D01*
X117339778Y-126104500D01*
X117274538Y-126114833D01*
X117122047Y-126138985D01*
X116912394Y-126207104D01*
X116876742Y-126225270D01*
X116808073Y-126238166D01*
X116743332Y-126211889D01*
X116732767Y-126202466D01*
X113096874Y-122566573D01*
X113063389Y-122505250D01*
X113062968Y-122503232D01*
X113042816Y-122401918D01*
X112978703Y-122247137D01*
X112900565Y-122130195D01*
X112885626Y-122107837D01*
X112767162Y-121989373D01*
X112627860Y-121896295D01*
X112473082Y-121832184D01*
X112473074Y-121832182D01*
X112308771Y-121799500D01*
X112308767Y-121799500D01*
X112141233Y-121799500D01*
X112141228Y-121799500D01*
X111976925Y-121832182D01*
X111976917Y-121832184D01*
X111822139Y-121896295D01*
X111682837Y-121989373D01*
X111564373Y-122107837D01*
X111471295Y-122247139D01*
X111407184Y-122401917D01*
X111407182Y-122401925D01*
X111374500Y-122566228D01*
X111374500Y-122733771D01*
X111407182Y-122898074D01*
X111407184Y-122898082D01*
X111471295Y-123052860D01*
X111564373Y-123192162D01*
X111682837Y-123310626D01*
X111775494Y-123372537D01*
X111822137Y-123403703D01*
X111976918Y-123467816D01*
X112078086Y-123487939D01*
X112139993Y-123520322D01*
X112141573Y-123521874D01*
X114572283Y-125952584D01*
X114605768Y-126013907D01*
X114600784Y-126083599D01*
X114558912Y-126139532D01*
X114522920Y-126158196D01*
X114372396Y-126207103D01*
X114372393Y-126207104D01*
X114175974Y-126307187D01*
X113997641Y-126436752D01*
X113997636Y-126436756D01*
X113841756Y-126592636D01*
X113841752Y-126592641D01*
X113740318Y-126732254D01*
X113684988Y-126774920D01*
X113615375Y-126780899D01*
X113553580Y-126748293D01*
X113539682Y-126732254D01*
X113438247Y-126592641D01*
X113438243Y-126592636D01*
X113282363Y-126436756D01*
X113282358Y-126436752D01*
X113104025Y-126307187D01*
X113104024Y-126307186D01*
X113104022Y-126307185D01*
X113028920Y-126268918D01*
X112907606Y-126207104D01*
X112907603Y-126207103D01*
X112697952Y-126138985D01*
X112568115Y-126118421D01*
X112480222Y-126104500D01*
X112259778Y-126104500D01*
X112194538Y-126114833D01*
X112042047Y-126138985D01*
X111832396Y-126207103D01*
X111832393Y-126207104D01*
X111635974Y-126307187D01*
X111457641Y-126436752D01*
X111457636Y-126436756D01*
X111301756Y-126592636D01*
X111301752Y-126592641D01*
X111200318Y-126732254D01*
X111144988Y-126774920D01*
X111075375Y-126780899D01*
X111013580Y-126748293D01*
X110999682Y-126732254D01*
X110898247Y-126592641D01*
X110898243Y-126592636D01*
X110742363Y-126436756D01*
X110742358Y-126436752D01*
X110564025Y-126307187D01*
X110564024Y-126307186D01*
X110564022Y-126307185D01*
X110488920Y-126268918D01*
X110367606Y-126207104D01*
X110367603Y-126207103D01*
X110157952Y-126138985D01*
X110028115Y-126118421D01*
X109940222Y-126104500D01*
X109719778Y-126104500D01*
X109654538Y-126114833D01*
X109502047Y-126138985D01*
X109292396Y-126207103D01*
X109292393Y-126207104D01*
X109095974Y-126307187D01*
X108917641Y-126436752D01*
X108917636Y-126436756D01*
X108761756Y-126592636D01*
X108761752Y-126592641D01*
X108632187Y-126770974D01*
X108532104Y-126967393D01*
X108532103Y-126967396D01*
X108463985Y-127177047D01*
X108429500Y-127394778D01*
X108429500Y-127615221D01*
X108463985Y-127832952D01*
X108532103Y-128042603D01*
X108532104Y-128042606D01*
X108575112Y-128127011D01*
X108627129Y-128229100D01*
X108632187Y-128239025D01*
X108761752Y-128417358D01*
X108761756Y-128417363D01*
X108917636Y-128573243D01*
X108917641Y-128573247D01*
X108992099Y-128627343D01*
X109095978Y-128702815D01*
X109224375Y-128768237D01*
X109292393Y-128802895D01*
X109292396Y-128802896D01*
X109381873Y-128831968D01*
X109502049Y-128871015D01*
X109719778Y-128905500D01*
X109719779Y-128905500D01*
X109940221Y-128905500D01*
X109940222Y-128905500D01*
X110157951Y-128871015D01*
X110367606Y-128802895D01*
X110564022Y-128702815D01*
X110742365Y-128573242D01*
X110898242Y-128417365D01*
X110912242Y-128398096D01*
X110999682Y-128277745D01*
X111055011Y-128235079D01*
X111124625Y-128229100D01*
X111186420Y-128261705D01*
X111200318Y-128277745D01*
X111301752Y-128417358D01*
X111301756Y-128417363D01*
X111457636Y-128573243D01*
X111457641Y-128573247D01*
X111532099Y-128627343D01*
X111635978Y-128702815D01*
X111764375Y-128768237D01*
X111832393Y-128802895D01*
X111832396Y-128802896D01*
X111921873Y-128831968D01*
X112042049Y-128871015D01*
X112259778Y-128905500D01*
X112259779Y-128905500D01*
X112480221Y-128905500D01*
X112480222Y-128905500D01*
X112697951Y-128871015D01*
X112907606Y-128802895D01*
X113104022Y-128702815D01*
X113282365Y-128573242D01*
X113438242Y-128417365D01*
X113452242Y-128398096D01*
X113539682Y-128277745D01*
X113595011Y-128235079D01*
X113664625Y-128229100D01*
X113726420Y-128261705D01*
X113740318Y-128277745D01*
X113841752Y-128417358D01*
X113841756Y-128417363D01*
X113997636Y-128573243D01*
X113997641Y-128573247D01*
X114072099Y-128627343D01*
X114175978Y-128702815D01*
X114304375Y-128768237D01*
X114372393Y-128802895D01*
X114372396Y-128802896D01*
X114461873Y-128831968D01*
X114582049Y-128871015D01*
X114799778Y-128905500D01*
X114799779Y-128905500D01*
X115020221Y-128905500D01*
X115020222Y-128905500D01*
X115237951Y-128871015D01*
X115447606Y-128802895D01*
X115644022Y-128702815D01*
X115822365Y-128573242D01*
X115822366Y-128573240D01*
X115822505Y-128573140D01*
X115888311Y-128549660D01*
X115956365Y-128565485D01*
X115983071Y-128585777D01*
X116627900Y-129230606D01*
X116721989Y-129324695D01*
X116721992Y-129324697D01*
X116721993Y-129324698D01*
X116832623Y-129398619D01*
X116832625Y-129398619D01*
X116832626Y-129398620D01*
X116955462Y-129449500D01*
X116955559Y-129449540D01*
X116998269Y-129458035D01*
X117086062Y-129475500D01*
X117086064Y-129475500D01*
X121301532Y-129475500D01*
X121301533Y-129475499D01*
X121432036Y-129449541D01*
X121554969Y-129398620D01*
X121665606Y-129324695D01*
X122086207Y-128904092D01*
X122147526Y-128870610D01*
X122197095Y-128871144D01*
X122197237Y-128870253D01*
X122202863Y-128871144D01*
X122419778Y-128905500D01*
X122419779Y-128905500D01*
X122640221Y-128905500D01*
X122640222Y-128905500D01*
X122857951Y-128871015D01*
X123067606Y-128802895D01*
X123264022Y-128702815D01*
X123442365Y-128573242D01*
X123598242Y-128417365D01*
X123612242Y-128398096D01*
X123699682Y-128277745D01*
X123755011Y-128235079D01*
X123824625Y-128229100D01*
X123886420Y-128261705D01*
X123900318Y-128277745D01*
X124001752Y-128417358D01*
X124001756Y-128417363D01*
X124157636Y-128573243D01*
X124157641Y-128573247D01*
X124232099Y-128627343D01*
X124335978Y-128702815D01*
X124464375Y-128768237D01*
X124532393Y-128802895D01*
X124532396Y-128802896D01*
X124621873Y-128831968D01*
X124742049Y-128871015D01*
X124959778Y-128905500D01*
X124959779Y-128905500D01*
X125180221Y-128905500D01*
X125180222Y-128905500D01*
X125397951Y-128871015D01*
X125607606Y-128802895D01*
X125804022Y-128702815D01*
X125982365Y-128573242D01*
X126138242Y-128417365D01*
X126152242Y-128398096D01*
X126239682Y-128277745D01*
X126295011Y-128235079D01*
X126364625Y-128229100D01*
X126426420Y-128261705D01*
X126440318Y-128277745D01*
X126541752Y-128417358D01*
X126541756Y-128417363D01*
X126697636Y-128573243D01*
X126697641Y-128573247D01*
X126772099Y-128627343D01*
X126875978Y-128702815D01*
X127004375Y-128768237D01*
X127072393Y-128802895D01*
X127072396Y-128802896D01*
X127161873Y-128831968D01*
X127282049Y-128871015D01*
X127499778Y-128905500D01*
X127499779Y-128905500D01*
X127720221Y-128905500D01*
X127720222Y-128905500D01*
X127937951Y-128871015D01*
X128147606Y-128802895D01*
X128344022Y-128702815D01*
X128522365Y-128573242D01*
X128678242Y-128417365D01*
X128692242Y-128398096D01*
X128779682Y-128277745D01*
X128835011Y-128235079D01*
X128904625Y-128229100D01*
X128966420Y-128261705D01*
X128980318Y-128277745D01*
X129081752Y-128417358D01*
X129081756Y-128417363D01*
X129081758Y-128417365D01*
X129237635Y-128573242D01*
X129415978Y-128702815D01*
X129415982Y-128702817D01*
X129419920Y-128705678D01*
X129419180Y-128706696D01*
X129462161Y-128754196D01*
X129474500Y-128808120D01*
X129474500Y-130641535D01*
X129479598Y-130667162D01*
X129500459Y-130772036D01*
X129520403Y-130820185D01*
X129551378Y-130894965D01*
X129551383Y-130894975D01*
X129625304Y-131005605D01*
X129625307Y-131005609D01*
X143869390Y-145249692D01*
X143869394Y-145249695D01*
X143980024Y-145323616D01*
X143980028Y-145323618D01*
X143980031Y-145323620D01*
X144102964Y-145374541D01*
X144196277Y-145393102D01*
X144233464Y-145400499D01*
X144233468Y-145400500D01*
X144233469Y-145400500D01*
X144366531Y-145400500D01*
X157568761Y-145400500D01*
X157635800Y-145420185D01*
X157681555Y-145472989D01*
X157684115Y-145479010D01*
X157740637Y-145622339D01*
X157740638Y-145622341D01*
X157832077Y-145742922D01*
X157952658Y-145834361D01*
X157960052Y-145838519D01*
X157958266Y-145841695D01*
X158000081Y-145874340D01*
X158023168Y-145940285D01*
X158006937Y-146008243D01*
X157956541Y-146056638D01*
X157932662Y-146066061D01*
X156969307Y-146334909D01*
X156966342Y-146335697D01*
X155422189Y-146725725D01*
X155419205Y-146726440D01*
X153865827Y-147078160D01*
X153862827Y-147078800D01*
X152301269Y-147391976D01*
X152298254Y-147392542D01*
X150729402Y-147666994D01*
X150726374Y-147667485D01*
X149151220Y-147903043D01*
X149148180Y-147903459D01*
X147567698Y-148099976D01*
X147564649Y-148100317D01*
X145979796Y-148257673D01*
X145976740Y-148257939D01*
X144388404Y-148376047D01*
X144385342Y-148376236D01*
X142794656Y-148455010D01*
X142791591Y-148455124D01*
X141199405Y-148494525D01*
X141196337Y-148494563D01*
X139603665Y-148494563D01*
X139600597Y-148494525D01*
X138008410Y-148455124D01*
X138005345Y-148455010D01*
X136414659Y-148376236D01*
X136411597Y-148376047D01*
X134823260Y-148257939D01*
X134820204Y-148257673D01*
X133235352Y-148100317D01*
X133232303Y-148099976D01*
X131651821Y-147903459D01*
X131648781Y-147903043D01*
X130073627Y-147667485D01*
X130070599Y-147666994D01*
X128501747Y-147392542D01*
X128498732Y-147391976D01*
X126937173Y-147078800D01*
X126934173Y-147078160D01*
X125939093Y-146852851D01*
X125380785Y-146726437D01*
X125377821Y-146725727D01*
X123833659Y-146335697D01*
X123830694Y-146334909D01*
X122833573Y-146056638D01*
X122296634Y-145906792D01*
X122293697Y-145905933D01*
X122275938Y-145900500D01*
X121760864Y-145742922D01*
X120770693Y-145439996D01*
X120767771Y-145439062D01*
X119256823Y-144935611D01*
X119253924Y-144934606D01*
X117755806Y-144393900D01*
X117752934Y-144392823D01*
X116268687Y-143815236D01*
X116265842Y-143814088D01*
X115258063Y-143392922D01*
X114796338Y-143199959D01*
X114793527Y-143198744D01*
X113339661Y-142548448D01*
X113336903Y-142547173D01*
X112544864Y-142169120D01*
X111899542Y-141861097D01*
X111896791Y-141859741D01*
X110476902Y-141138348D01*
X110474184Y-141136925D01*
X109072544Y-140380609D01*
X109069862Y-140379119D01*
X107687356Y-139588359D01*
X107684712Y-139586803D01*
X106322186Y-138762079D01*
X106319582Y-138760458D01*
X104977904Y-137902299D01*
X104975340Y-137900614D01*
X103655275Y-137009508D01*
X103652754Y-137007760D01*
X102355157Y-136084284D01*
X102352711Y-136082497D01*
X101078301Y-135127163D01*
X101075880Y-135125300D01*
X99825557Y-134138779D01*
X99823172Y-134136849D01*
X98597620Y-133119688D01*
X98595284Y-133117700D01*
X97395244Y-132070507D01*
X97393054Y-132068549D01*
X96219242Y-130991950D01*
X96217016Y-130989856D01*
X96168208Y-130942815D01*
X96141454Y-130917030D01*
X96134743Y-130910035D01*
X92323051Y-126611898D01*
X100809500Y-126611898D01*
X100809500Y-128398102D01*
X100815126Y-128444954D01*
X100820122Y-128486561D01*
X100820122Y-128486563D01*
X100820123Y-128486564D01*
X100825089Y-128499156D01*
X100875639Y-128627343D01*
X100967077Y-128747922D01*
X101087656Y-128839360D01*
X101087657Y-128839360D01*
X101087658Y-128839361D01*
X101228436Y-128894877D01*
X101316898Y-128905500D01*
X101316903Y-128905500D01*
X103103097Y-128905500D01*
X103103102Y-128905500D01*
X103191564Y-128894877D01*
X103332342Y-128839361D01*
X103452922Y-128747922D01*
X103544361Y-128627342D01*
X103573251Y-128554082D01*
X103616154Y-128498940D01*
X103682061Y-128475746D01*
X103750046Y-128491866D01*
X103776285Y-128511892D01*
X103837636Y-128573243D01*
X103837641Y-128573247D01*
X103912099Y-128627343D01*
X104015978Y-128702815D01*
X104144375Y-128768237D01*
X104212393Y-128802895D01*
X104212396Y-128802896D01*
X104301873Y-128831968D01*
X104422049Y-128871015D01*
X104639778Y-128905500D01*
X104639779Y-128905500D01*
X104860221Y-128905500D01*
X104860222Y-128905500D01*
X105077951Y-128871015D01*
X105287606Y-128802895D01*
X105484022Y-128702815D01*
X105662365Y-128573242D01*
X105818242Y-128417365D01*
X105947815Y-128239022D01*
X106047895Y-128042606D01*
X106116015Y-127832951D01*
X106150500Y-127615222D01*
X106150500Y-127394778D01*
X106116015Y-127177049D01*
X106047895Y-126967394D01*
X106047895Y-126967393D01*
X106013237Y-126899375D01*
X105947815Y-126770978D01*
X105919681Y-126732254D01*
X105818247Y-126592641D01*
X105818243Y-126592636D01*
X105662363Y-126436756D01*
X105662358Y-126436752D01*
X105484025Y-126307187D01*
X105484024Y-126307186D01*
X105484022Y-126307185D01*
X105408920Y-126268918D01*
X105287606Y-126207104D01*
X105287603Y-126207103D01*
X105077952Y-126138985D01*
X104948115Y-126118421D01*
X104860222Y-126104500D01*
X104639778Y-126104500D01*
X104574538Y-126114833D01*
X104422047Y-126138985D01*
X104212396Y-126207103D01*
X104212393Y-126207104D01*
X104015974Y-126307187D01*
X103837642Y-126436751D01*
X103776285Y-126498108D01*
X103714961Y-126531592D01*
X103645270Y-126526607D01*
X103589336Y-126484736D01*
X103573252Y-126455921D01*
X103544361Y-126382658D01*
X103489595Y-126310438D01*
X103452922Y-126262077D01*
X103332343Y-126170639D01*
X103236192Y-126132722D01*
X103191564Y-126115123D01*
X103191563Y-126115122D01*
X103191561Y-126115122D01*
X103145926Y-126109642D01*
X103103102Y-126104500D01*
X101316898Y-126104500D01*
X101277853Y-126109188D01*
X101228438Y-126115122D01*
X101087656Y-126170639D01*
X100967077Y-126262077D01*
X100875639Y-126382656D01*
X100820122Y-126523438D01*
X100814188Y-126572853D01*
X100809500Y-126611898D01*
X92323051Y-126611898D01*
X88553619Y-122361414D01*
X88546256Y-122352274D01*
X87841410Y-121386861D01*
X87839651Y-121384387D01*
X87673953Y-121145227D01*
X86932583Y-120075173D01*
X86930966Y-120072775D01*
X86056511Y-118741443D01*
X86054904Y-118738929D01*
X86000404Y-118651305D01*
X85213740Y-117386515D01*
X85212153Y-117383892D01*
X85058317Y-117122343D01*
X84404666Y-116011018D01*
X84403154Y-116008371D01*
X83661369Y-114672651D01*
X83657199Y-114664433D01*
X80965952Y-108831898D01*
X100809500Y-108831898D01*
X100809500Y-110618102D01*
X100814274Y-110657853D01*
X100820122Y-110706561D01*
X100820122Y-110706563D01*
X100820123Y-110706564D01*
X100837722Y-110751192D01*
X100875639Y-110847343D01*
X100967077Y-110967922D01*
X101087656Y-111059360D01*
X101087657Y-111059360D01*
X101087658Y-111059361D01*
X101228436Y-111114877D01*
X101316898Y-111125500D01*
X101316903Y-111125500D01*
X103103097Y-111125500D01*
X103103102Y-111125500D01*
X103191564Y-111114877D01*
X103332342Y-111059361D01*
X103452922Y-110967922D01*
X103544361Y-110847342D01*
X103573251Y-110774082D01*
X103616154Y-110718940D01*
X103682061Y-110695746D01*
X103750046Y-110711866D01*
X103776285Y-110731892D01*
X103837636Y-110793243D01*
X103837641Y-110793247D01*
X103993192Y-110906260D01*
X104015978Y-110922815D01*
X104104505Y-110967922D01*
X104212393Y-111022895D01*
X104212396Y-111022896D01*
X104265977Y-111040305D01*
X104422049Y-111091015D01*
X104639778Y-111125500D01*
X104639779Y-111125500D01*
X104860221Y-111125500D01*
X104860222Y-111125500D01*
X105077951Y-111091015D01*
X105287606Y-111022895D01*
X105484022Y-110922815D01*
X105662365Y-110793242D01*
X105818242Y-110637365D01*
X105947815Y-110459022D01*
X106047895Y-110262606D01*
X106116015Y-110052951D01*
X106150500Y-109835222D01*
X106150500Y-109614778D01*
X106116015Y-109397049D01*
X106047895Y-109187394D01*
X106047895Y-109187393D01*
X105986028Y-109065975D01*
X105947815Y-108990978D01*
X105895996Y-108919655D01*
X105818247Y-108812641D01*
X105818243Y-108812636D01*
X105662363Y-108656756D01*
X105662358Y-108656752D01*
X105480081Y-108524321D01*
X105480818Y-108523305D01*
X105437834Y-108475794D01*
X105425500Y-108421879D01*
X105425500Y-105531163D01*
X105445185Y-105464124D01*
X105461819Y-105443482D01*
X105693482Y-105211819D01*
X105754805Y-105178334D01*
X105781163Y-105175500D01*
X116466532Y-105175500D01*
X116466533Y-105175499D01*
X116597036Y-105149541D01*
X116719969Y-105098620D01*
X116830606Y-105024695D01*
X120054695Y-101800606D01*
X120082134Y-101759540D01*
X120128620Y-101689969D01*
X120179540Y-101567036D01*
X120202893Y-101449633D01*
X120235278Y-101387724D01*
X120268219Y-101363340D01*
X120271150Y-101361847D01*
X120451225Y-101231015D01*
X120608615Y-101073625D01*
X120739447Y-100893550D01*
X120840498Y-100695226D01*
X120871887Y-100598620D01*
X120909279Y-100483540D01*
X120909279Y-100483539D01*
X120909280Y-100483536D01*
X120944100Y-100263692D01*
X120944100Y-99736308D01*
X120909280Y-99516464D01*
X120909279Y-99516460D01*
X120909279Y-99516459D01*
X120840499Y-99304776D01*
X120776400Y-99178975D01*
X120739447Y-99106450D01*
X120608615Y-98926375D01*
X120451225Y-98768985D01*
X120271150Y-98638153D01*
X120094739Y-98548267D01*
X120072823Y-98537100D01*
X119861139Y-98468320D01*
X119696253Y-98442205D01*
X119641292Y-98433500D01*
X119418708Y-98433500D01*
X119351644Y-98444122D01*
X119198862Y-98468320D01*
X119198859Y-98468320D01*
X118987176Y-98537100D01*
X118788849Y-98638153D01*
X118608772Y-98768987D01*
X118451387Y-98926372D01*
X118451387Y-98926373D01*
X118451385Y-98926375D01*
X118412792Y-98979494D01*
X118360318Y-99051718D01*
X118304988Y-99094383D01*
X118235374Y-99100362D01*
X118173579Y-99067756D01*
X118159682Y-99051718D01*
X118155132Y-99045455D01*
X118068615Y-98926375D01*
X117911225Y-98768985D01*
X117731150Y-98638153D01*
X117554739Y-98548267D01*
X117532823Y-98537100D01*
X117321139Y-98468320D01*
X117156253Y-98442205D01*
X117101292Y-98433500D01*
X116878708Y-98433500D01*
X116811644Y-98444122D01*
X116658862Y-98468320D01*
X116658859Y-98468320D01*
X116447176Y-98537100D01*
X116248849Y-98638153D01*
X116068772Y-98768987D01*
X116024445Y-98813314D01*
X115963122Y-98846798D01*
X115893430Y-98841813D01*
X115837497Y-98799941D01*
X115821410Y-98771121D01*
X115820568Y-98768987D01*
X115806364Y-98732967D01*
X115797961Y-98711657D01*
X115706522Y-98591077D01*
X115585943Y-98499639D01*
X115456205Y-98448477D01*
X115445164Y-98444123D01*
X115445163Y-98444122D01*
X115445161Y-98444122D01*
X115399526Y-98438642D01*
X115356702Y-98433500D01*
X113543298Y-98433500D01*
X113504253Y-98438188D01*
X113454838Y-98444122D01*
X113314056Y-98499639D01*
X113193477Y-98591077D01*
X113102039Y-98711656D01*
X113046522Y-98852438D01*
X113040588Y-98901853D01*
X113035900Y-98940898D01*
X113035900Y-101059102D01*
X113041526Y-101105954D01*
X113046522Y-101147561D01*
X113046522Y-101147563D01*
X113046523Y-101147564D01*
X113061951Y-101186687D01*
X113102039Y-101288343D01*
X113193477Y-101408922D01*
X113314056Y-101500360D01*
X113314057Y-101500360D01*
X113314058Y-101500361D01*
X113454836Y-101555877D01*
X113543298Y-101566500D01*
X113543303Y-101566500D01*
X115278836Y-101566500D01*
X115345875Y-101586185D01*
X115391630Y-101638989D01*
X115401574Y-101708147D01*
X115372549Y-101771703D01*
X115366517Y-101778181D01*
X114206518Y-102938181D01*
X114145195Y-102971666D01*
X114118837Y-102974500D01*
X104058464Y-102974500D01*
X103927971Y-103000457D01*
X103927963Y-103000459D01*
X103805034Y-103051378D01*
X103805024Y-103051383D01*
X103694394Y-103125304D01*
X103694390Y-103125307D01*
X101685307Y-105134390D01*
X101685304Y-105134394D01*
X101611383Y-105245024D01*
X101611378Y-105245034D01*
X101560459Y-105367963D01*
X101560459Y-105367964D01*
X101543026Y-105455606D01*
X101543026Y-105455608D01*
X101534500Y-105498467D01*
X101534500Y-108200500D01*
X101514815Y-108267539D01*
X101462011Y-108313294D01*
X101410500Y-108324500D01*
X101316898Y-108324500D01*
X101277853Y-108329188D01*
X101228438Y-108335122D01*
X101087656Y-108390639D01*
X100967077Y-108482077D01*
X100875639Y-108602656D01*
X100820122Y-108743438D01*
X100814188Y-108792853D01*
X100809500Y-108831898D01*
X80965952Y-108831898D01*
X80250178Y-107280656D01*
X80246666Y-107272240D01*
X79726118Y-105882933D01*
X79725112Y-105880143D01*
X79203335Y-104375250D01*
X79202398Y-104372436D01*
X79030837Y-103835023D01*
X78975669Y-103662210D01*
X78974034Y-103592360D01*
X79010422Y-103532713D01*
X79073281Y-103502209D01*
X79093796Y-103500500D01*
X91465890Y-103500500D01*
X91465892Y-103500500D01*
X91593186Y-103466392D01*
X91707314Y-103400500D01*
X91800500Y-103307314D01*
X91866392Y-103193186D01*
X91900500Y-103065892D01*
X91900500Y-64934108D01*
X91866392Y-64806814D01*
X91861965Y-64799147D01*
X91857563Y-64791521D01*
X91800500Y-64692686D01*
X91707314Y-64599500D01*
X91650250Y-64566554D01*
X91593187Y-64533608D01*
X91529539Y-64516554D01*
X91465892Y-64499500D01*
X91465891Y-64499500D01*
X79093793Y-64499500D01*
X79026754Y-64479815D01*
X78980999Y-64427011D01*
X78971055Y-64357853D01*
X78975666Y-64337790D01*
X79055974Y-64086226D01*
X79202403Y-63627538D01*
X79203323Y-63624774D01*
X79725118Y-62119830D01*
X79726106Y-62117092D01*
X80284949Y-60625574D01*
X80286053Y-60622739D01*
X80881595Y-59145573D01*
X80882738Y-59142835D01*
X81514665Y-57680797D01*
X81515905Y-57678026D01*
X81548723Y-57606979D01*
X82183781Y-56232125D01*
X82185092Y-56229378D01*
X82272870Y-56051071D01*
X82888539Y-54800430D01*
X82889893Y-54797764D01*
X83628490Y-53386625D01*
X83629898Y-53384013D01*
X84403181Y-51991575D01*
X84404643Y-51989015D01*
X85212172Y-50616071D01*
X85213716Y-50613520D01*
X86054902Y-49261068D01*
X86056517Y-49258540D01*
X86806683Y-48116435D01*
X86808587Y-48113626D01*
X88224160Y-46088927D01*
X88225455Y-46087116D01*
X88780595Y-45326752D01*
X88782368Y-45324385D01*
X89702191Y-44127840D01*
X89758655Y-44086688D01*
X89828405Y-44082595D01*
X89889295Y-44116861D01*
X89921993Y-44178607D01*
X89924500Y-44203414D01*
X89924500Y-47191473D01*
X89946307Y-47301102D01*
X89950459Y-47321974D01*
X89963605Y-47353712D01*
X89965811Y-47359036D01*
X89973280Y-47428505D01*
X89969181Y-47444806D01*
X89947754Y-47510752D01*
X89928943Y-47629521D01*
X89913269Y-47728485D01*
X89913269Y-47948929D01*
X89927097Y-48036233D01*
X89947754Y-48166659D01*
X90009448Y-48356536D01*
X90011443Y-48426378D01*
X89975362Y-48486210D01*
X89912661Y-48517038D01*
X89891517Y-48518854D01*
X89746662Y-48518854D01*
X89674085Y-48530349D01*
X89528931Y-48553339D01*
X89319280Y-48621457D01*
X89319277Y-48621458D01*
X89122858Y-48721541D01*
X88944525Y-48851106D01*
X88944520Y-48851110D01*
X88788640Y-49006990D01*
X88788636Y-49006995D01*
X88659071Y-49185328D01*
X88558988Y-49381747D01*
X88558987Y-49381750D01*
X88490869Y-49591401D01*
X88456384Y-49809132D01*
X88456384Y-50029575D01*
X88490869Y-50247306D01*
X88552563Y-50437182D01*
X88554558Y-50507023D01*
X88518477Y-50566856D01*
X88455776Y-50597684D01*
X88434632Y-50599500D01*
X88289778Y-50599500D01*
X88217201Y-50610995D01*
X88072047Y-50633985D01*
X87862396Y-50702103D01*
X87862393Y-50702104D01*
X87665974Y-50802187D01*
X87487641Y-50931752D01*
X87487636Y-50931756D01*
X87331756Y-51087636D01*
X87331752Y-51087641D01*
X87202187Y-51265974D01*
X87102104Y-51462393D01*
X87102103Y-51462396D01*
X87033985Y-51672047D01*
X86999500Y-51889778D01*
X86999500Y-52110221D01*
X87033985Y-52327952D01*
X87102103Y-52537603D01*
X87102104Y-52537606D01*
X87137798Y-52607657D01*
X87185390Y-52701061D01*
X87202187Y-52734025D01*
X87331752Y-52912358D01*
X87331756Y-52912363D01*
X87487636Y-53068243D01*
X87487641Y-53068247D01*
X87642596Y-53180827D01*
X87665978Y-53197815D01*
X87741226Y-53236156D01*
X87862393Y-53297895D01*
X87862396Y-53297896D01*
X87967221Y-53331955D01*
X88072049Y-53366015D01*
X88289778Y-53400500D01*
X88289779Y-53400500D01*
X88510221Y-53400500D01*
X88510222Y-53400500D01*
X88727951Y-53366015D01*
X88937606Y-53297895D01*
X89134022Y-53197815D01*
X89312365Y-53068242D01*
X89468242Y-52912365D01*
X89597815Y-52734022D01*
X89697895Y-52537606D01*
X89766015Y-52327951D01*
X89800500Y-52110222D01*
X89800500Y-51889778D01*
X89766015Y-51672049D01*
X89704320Y-51482171D01*
X89702326Y-51412331D01*
X89738407Y-51352498D01*
X89801108Y-51321670D01*
X89822252Y-51319854D01*
X89967105Y-51319854D01*
X89967106Y-51319854D01*
X90184835Y-51285369D01*
X90394490Y-51217249D01*
X90590906Y-51117169D01*
X90769249Y-50987596D01*
X90925126Y-50831719D01*
X91054699Y-50653376D01*
X91154779Y-50456960D01*
X91222899Y-50247305D01*
X91257384Y-50029576D01*
X91257384Y-49809132D01*
X91222899Y-49591403D01*
X91161205Y-49401525D01*
X91159210Y-49331683D01*
X91195291Y-49271851D01*
X91257992Y-49241023D01*
X91279136Y-49239207D01*
X91423990Y-49239207D01*
X91423991Y-49239207D01*
X91641720Y-49204722D01*
X91851375Y-49136602D01*
X92047791Y-49036522D01*
X92226134Y-48906949D01*
X92382011Y-48751072D01*
X92511584Y-48572729D01*
X92611664Y-48376313D01*
X92679784Y-48166658D01*
X92714269Y-47948929D01*
X92714269Y-47728485D01*
X92696522Y-47616436D01*
X92705476Y-47547145D01*
X92750472Y-47493693D01*
X92817224Y-47473053D01*
X92847894Y-47476454D01*
X92924664Y-47494854D01*
X93075884Y-47489114D01*
X93219949Y-47442788D01*
X93346172Y-47359312D01*
X93405613Y-47292941D01*
X94430138Y-45829768D01*
X94472176Y-45751212D01*
X94507446Y-45604050D01*
X94501706Y-45452830D01*
X94455380Y-45308765D01*
X94371904Y-45182542D01*
X94305533Y-45123101D01*
X92842360Y-44098576D01*
X92812496Y-44082595D01*
X92763802Y-44056537D01*
X92616647Y-44021269D01*
X92616642Y-44021268D01*
X92465422Y-44027008D01*
X92393389Y-44050171D01*
X92321356Y-44073334D01*
X92321353Y-44073336D01*
X92195131Y-44156812D01*
X92135698Y-44223174D01*
X92135697Y-44223176D01*
X92135693Y-44223181D01*
X91511142Y-45115132D01*
X91501075Y-45129509D01*
X91446498Y-45173133D01*
X91376999Y-45180326D01*
X91314645Y-45148804D01*
X91279231Y-45088574D01*
X91275500Y-45058385D01*
X91275500Y-44356163D01*
X91295185Y-44289124D01*
X91311819Y-44268482D01*
X101804713Y-33775588D01*
X101866036Y-33742103D01*
X101892394Y-33739269D01*
X103615706Y-33739269D01*
X103615707Y-33739268D01*
X103746210Y-33713310D01*
X103869143Y-33662389D01*
X103979780Y-33588464D01*
X108770194Y-28798050D01*
X108831517Y-28764565D01*
X108857875Y-28761731D01*
X111104613Y-28761731D01*
X111171652Y-28781416D01*
X111217407Y-28834220D01*
X111227351Y-28903378D01*
X111215098Y-28942026D01*
X111182750Y-29005509D01*
X111182749Y-29005512D01*
X111114631Y-29215163D01*
X111080146Y-29432894D01*
X111080146Y-29577747D01*
X111060461Y-29644786D01*
X111007657Y-29690541D01*
X110938499Y-29700485D01*
X110917829Y-29695678D01*
X110727953Y-29633985D01*
X110727954Y-29633985D01*
X110564654Y-29608121D01*
X110510222Y-29599500D01*
X110289778Y-29599500D01*
X110217201Y-29610995D01*
X110072047Y-29633985D01*
X109862396Y-29702103D01*
X109862393Y-29702104D01*
X109665974Y-29802187D01*
X109487641Y-29931752D01*
X109487636Y-29931756D01*
X109331756Y-30087636D01*
X109331752Y-30087641D01*
X109202187Y-30265974D01*
X109102104Y-30462393D01*
X109102103Y-30462396D01*
X109033985Y-30672047D01*
X108999500Y-30889778D01*
X108999500Y-31110221D01*
X109033985Y-31327952D01*
X109102103Y-31537603D01*
X109102104Y-31537606D01*
X109202187Y-31734025D01*
X109331752Y-31912358D01*
X109331756Y-31912363D01*
X109487634Y-32068241D01*
X109487641Y-32068247D01*
X109620883Y-32165052D01*
X109665978Y-32197815D01*
X109794375Y-32263237D01*
X109862393Y-32297895D01*
X109862396Y-32297896D01*
X109882171Y-32304321D01*
X110072049Y-32366015D01*
X110289778Y-32400500D01*
X110289779Y-32400500D01*
X110510221Y-32400500D01*
X110510222Y-32400500D01*
X110727951Y-32366015D01*
X110937606Y-32297895D01*
X111134022Y-32197815D01*
X111312365Y-32068242D01*
X111468242Y-31912365D01*
X111597815Y-31734022D01*
X111697895Y-31537606D01*
X111766015Y-31327951D01*
X111800500Y-31110222D01*
X111800500Y-30965368D01*
X111820185Y-30898329D01*
X111872989Y-30852574D01*
X111942147Y-30842630D01*
X111962816Y-30847436D01*
X112152695Y-30909131D01*
X112370424Y-30943616D01*
X112370425Y-30943616D01*
X112590867Y-30943616D01*
X112590868Y-30943616D01*
X112808597Y-30909131D01*
X113018252Y-30841011D01*
X113214668Y-30740931D01*
X113393011Y-30611358D01*
X113548888Y-30455481D01*
X113678461Y-30277138D01*
X113778541Y-30080722D01*
X113846661Y-29871067D01*
X113881146Y-29653338D01*
X113881146Y-29508483D01*
X113900831Y-29441444D01*
X113953635Y-29395689D01*
X114022793Y-29385745D01*
X114043464Y-29390552D01*
X114082278Y-29403163D01*
X114233342Y-29452246D01*
X114451071Y-29486731D01*
X114451072Y-29486731D01*
X114671514Y-29486731D01*
X114671515Y-29486731D01*
X114889244Y-29452246D01*
X114889252Y-29452243D01*
X114893979Y-29451109D01*
X114894393Y-29452833D01*
X114920828Y-29452647D01*
X114954258Y-29451578D01*
X114956151Y-29452398D01*
X114957242Y-29452391D01*
X114973285Y-29459823D01*
X114989449Y-29466827D01*
X114990760Y-29467656D01*
X115091324Y-29534851D01*
X115097768Y-29537520D01*
X115214257Y-29585772D01*
X115344757Y-29611730D01*
X115344761Y-29611731D01*
X115344762Y-29611731D01*
X120305301Y-29611731D01*
X120305302Y-29611730D01*
X120435805Y-29585772D01*
X120558738Y-29534851D01*
X120669375Y-29460926D01*
X122168482Y-27961819D01*
X122229805Y-27928334D01*
X122256163Y-27925500D01*
X144680500Y-27925500D01*
X144747539Y-27945185D01*
G37*
G04 #@! TD.AperFunction*
G04 #@! TA.AperFunction,Conductor*
G36*
X196194471Y-51660287D02*
G01*
X196220151Y-51691135D01*
X196395326Y-51988965D01*
X196396848Y-51991628D01*
X197170076Y-53383969D01*
X197171532Y-53386669D01*
X197910088Y-54797730D01*
X197911477Y-54800465D01*
X198614907Y-56229378D01*
X198616228Y-56232147D01*
X199284094Y-57678026D01*
X199285346Y-57680827D01*
X199917241Y-59142789D01*
X199918423Y-59145620D01*
X200513946Y-60622739D01*
X200515058Y-60625598D01*
X201073866Y-62117018D01*
X201074907Y-62119904D01*
X201596651Y-63624701D01*
X201597620Y-63627612D01*
X201824334Y-64337790D01*
X201825969Y-64407640D01*
X201789581Y-64467286D01*
X201726722Y-64497791D01*
X201706207Y-64499500D01*
X189334108Y-64499500D01*
X189206812Y-64533608D01*
X189092686Y-64599500D01*
X189092683Y-64599502D01*
X188999502Y-64692683D01*
X188999500Y-64692686D01*
X188933608Y-64806812D01*
X188899500Y-64934108D01*
X188899500Y-103065891D01*
X188933608Y-103193187D01*
X188952559Y-103226010D01*
X188999500Y-103307314D01*
X189092686Y-103400500D01*
X189206814Y-103466392D01*
X189334108Y-103500500D01*
X196704505Y-103500500D01*
X196771544Y-103520185D01*
X196817299Y-103572989D01*
X196827243Y-103642147D01*
X196798218Y-103705703D01*
X196792186Y-103712181D01*
X196734025Y-103770341D01*
X196734024Y-103770342D01*
X196619058Y-103942403D01*
X196539870Y-104133579D01*
X196539868Y-104133587D01*
X196499500Y-104336530D01*
X196499500Y-104543469D01*
X196539868Y-104746412D01*
X196539870Y-104746420D01*
X196572455Y-104825088D01*
X196619059Y-104937598D01*
X196635485Y-104962181D01*
X196734024Y-105109657D01*
X196880342Y-105255975D01*
X196880345Y-105255977D01*
X197052402Y-105370941D01*
X197243580Y-105450130D01*
X197440874Y-105489374D01*
X197446530Y-105490499D01*
X197446534Y-105490500D01*
X197446535Y-105490500D01*
X198653466Y-105490500D01*
X198653467Y-105490499D01*
X198856420Y-105450130D01*
X199047598Y-105370941D01*
X199219655Y-105255977D01*
X199365977Y-105109655D01*
X199480941Y-104937598D01*
X199560130Y-104746420D01*
X199600500Y-104543465D01*
X199600500Y-104336535D01*
X199560130Y-104133580D01*
X199480941Y-103942402D01*
X199365977Y-103770345D01*
X199365975Y-103770342D01*
X199307814Y-103712181D01*
X199274329Y-103650858D01*
X199279313Y-103581166D01*
X199321185Y-103525233D01*
X199386649Y-103500816D01*
X199395495Y-103500500D01*
X201706206Y-103500500D01*
X201773245Y-103520185D01*
X201819000Y-103572989D01*
X201828944Y-103642147D01*
X201824333Y-103662210D01*
X201597619Y-104372387D01*
X201596650Y-104375298D01*
X201074906Y-105880095D01*
X201073865Y-105882981D01*
X200515057Y-107374401D01*
X200513945Y-107377260D01*
X199918422Y-108854379D01*
X199917240Y-108857210D01*
X199285345Y-110319172D01*
X199284093Y-110321973D01*
X198616227Y-111767851D01*
X198614906Y-111770620D01*
X197911477Y-113199535D01*
X197910088Y-113202270D01*
X197171532Y-114613329D01*
X197170076Y-114616029D01*
X196396847Y-116008371D01*
X196395325Y-116011035D01*
X195587848Y-117383892D01*
X195586260Y-117386516D01*
X194745097Y-118738930D01*
X194743444Y-118741515D01*
X193869102Y-120072675D01*
X193867387Y-120075218D01*
X192960331Y-121384415D01*
X192958552Y-121386915D01*
X192019436Y-122673202D01*
X192017597Y-122675657D01*
X191046914Y-123938364D01*
X191045014Y-123940773D01*
X190043418Y-125179046D01*
X190041460Y-125181407D01*
X189009501Y-126394566D01*
X189007511Y-126396847D01*
X188891480Y-126526607D01*
X188512840Y-126950042D01*
X188510327Y-126952769D01*
X185692547Y-129920287D01*
X185688677Y-129924186D01*
X184582986Y-130989855D01*
X184580751Y-130991957D01*
X183957076Y-131563981D01*
X183406986Y-132068514D01*
X183404728Y-132070534D01*
X182204717Y-133117700D01*
X182202381Y-133119688D01*
X180976829Y-134136850D01*
X180974444Y-134138780D01*
X179724121Y-135125300D01*
X179721689Y-135127171D01*
X178447305Y-136082487D01*
X178444828Y-136084296D01*
X177147247Y-137007760D01*
X177144726Y-137009508D01*
X175824661Y-137900614D01*
X175822097Y-137902299D01*
X174480419Y-138760458D01*
X174477815Y-138762079D01*
X173115289Y-139586803D01*
X173112645Y-139588359D01*
X171730139Y-140379119D01*
X171727457Y-140380609D01*
X170325817Y-141136925D01*
X170323099Y-141138348D01*
X168903210Y-141859741D01*
X168900459Y-141861097D01*
X167463125Y-142547161D01*
X167460340Y-142548448D01*
X166006474Y-143198744D01*
X166003658Y-143199962D01*
X164534160Y-143814088D01*
X164531315Y-143815236D01*
X163047066Y-144392823D01*
X163044194Y-144393900D01*
X161546077Y-144934606D01*
X161543178Y-144935611D01*
X160038698Y-145436907D01*
X159968874Y-145439424D01*
X159908773Y-145403792D01*
X159877478Y-145341323D01*
X159875500Y-145319266D01*
X159875500Y-144056903D01*
X159875500Y-144056898D01*
X159864877Y-143968436D01*
X159809361Y-143827658D01*
X159809360Y-143827657D01*
X159809360Y-143827656D01*
X159717922Y-143707077D01*
X159641076Y-143648804D01*
X159599553Y-143592612D01*
X159595001Y-143522891D01*
X159628865Y-143461777D01*
X159641076Y-143451196D01*
X159717922Y-143392922D01*
X159809360Y-143272343D01*
X159809359Y-143272343D01*
X159809361Y-143272342D01*
X159864877Y-143131564D01*
X159875500Y-143043102D01*
X159875500Y-141706898D01*
X159864877Y-141618436D01*
X159809361Y-141477658D01*
X159809358Y-141477654D01*
X159808684Y-141476455D01*
X159808398Y-141475218D01*
X159806249Y-141469767D01*
X159807067Y-141469444D01*
X159792981Y-141408373D01*
X159816579Y-141342609D01*
X159829081Y-141327996D01*
X159854816Y-141302262D01*
X159950789Y-141149522D01*
X160010368Y-140979255D01*
X160025500Y-140844954D01*
X160025500Y-140055046D01*
X160010368Y-139920745D01*
X159950789Y-139750478D01*
X159854816Y-139597738D01*
X159727262Y-139470184D01*
X159574523Y-139374211D01*
X159404254Y-139314631D01*
X159404249Y-139314630D01*
X159269960Y-139299500D01*
X159269954Y-139299500D01*
X158280046Y-139299500D01*
X158280039Y-139299500D01*
X158145750Y-139314630D01*
X158145745Y-139314631D01*
X157975476Y-139374211D01*
X157822737Y-139470184D01*
X157695184Y-139597737D01*
X157599211Y-139750476D01*
X157539631Y-139920745D01*
X157539630Y-139920750D01*
X157524500Y-140055039D01*
X157524500Y-140844960D01*
X157539630Y-140979249D01*
X157539631Y-140979254D01*
X157599211Y-141149523D01*
X157695184Y-141302262D01*
X157720914Y-141327992D01*
X157754399Y-141389315D01*
X157749415Y-141459007D01*
X157741326Y-141476434D01*
X157740639Y-141477654D01*
X157685123Y-141618434D01*
X157685123Y-141618436D01*
X157674500Y-141706898D01*
X157674500Y-143043102D01*
X157680126Y-143089954D01*
X157685122Y-143131561D01*
X157740639Y-143272343D01*
X157832077Y-143392922D01*
X157908923Y-143451196D01*
X157950447Y-143507389D01*
X157954998Y-143577110D01*
X157921133Y-143638224D01*
X157908923Y-143648804D01*
X157832077Y-143707077D01*
X157740638Y-143827658D01*
X157740637Y-143827660D01*
X157684115Y-143970990D01*
X157641209Y-144026134D01*
X157575302Y-144049327D01*
X157568761Y-144049500D01*
X144631163Y-144049500D01*
X144564124Y-144029815D01*
X144543482Y-144013181D01*
X130861819Y-130331518D01*
X130828334Y-130270195D01*
X130825500Y-130243837D01*
X130825500Y-128808120D01*
X130845185Y-128741081D01*
X130880610Y-128706408D01*
X130880080Y-128705678D01*
X130884017Y-128702817D01*
X130884022Y-128702815D01*
X131062365Y-128573242D01*
X131218242Y-128417365D01*
X131347815Y-128239022D01*
X131447895Y-128042606D01*
X131516015Y-127832951D01*
X131550500Y-127615222D01*
X131550500Y-127394778D01*
X131516015Y-127177049D01*
X131447895Y-126967394D01*
X131447895Y-126967393D01*
X131413237Y-126899375D01*
X131347815Y-126770978D01*
X131319681Y-126732254D01*
X131218247Y-126592641D01*
X131218243Y-126592636D01*
X131062363Y-126436756D01*
X131062358Y-126436752D01*
X130884025Y-126307187D01*
X130884024Y-126307186D01*
X130884022Y-126307185D01*
X130808920Y-126268918D01*
X130687606Y-126207104D01*
X130687603Y-126207103D01*
X130477952Y-126138985D01*
X130348115Y-126118421D01*
X130260222Y-126104500D01*
X130039778Y-126104500D01*
X129974538Y-126114833D01*
X129822047Y-126138985D01*
X129612396Y-126207103D01*
X129612393Y-126207104D01*
X129415974Y-126307187D01*
X129237641Y-126436752D01*
X129237636Y-126436756D01*
X129081756Y-126592636D01*
X129081752Y-126592641D01*
X128980318Y-126732254D01*
X128924988Y-126774920D01*
X128855375Y-126780899D01*
X128793580Y-126748293D01*
X128779682Y-126732254D01*
X128678247Y-126592641D01*
X128678243Y-126592636D01*
X128522363Y-126436756D01*
X128522358Y-126436752D01*
X128344025Y-126307187D01*
X128344024Y-126307186D01*
X128344022Y-126307185D01*
X128268920Y-126268918D01*
X128147606Y-126207104D01*
X128147603Y-126207103D01*
X127937952Y-126138985D01*
X127808115Y-126118421D01*
X127720222Y-126104500D01*
X127499778Y-126104500D01*
X127434538Y-126114833D01*
X127282047Y-126138985D01*
X127072396Y-126207103D01*
X127072393Y-126207104D01*
X126875974Y-126307187D01*
X126697641Y-126436752D01*
X126697636Y-126436756D01*
X126541756Y-126592636D01*
X126541752Y-126592641D01*
X126440318Y-126732254D01*
X126384988Y-126774920D01*
X126315375Y-126780899D01*
X126253580Y-126748293D01*
X126239682Y-126732254D01*
X126138247Y-126592641D01*
X126138243Y-126592636D01*
X125982363Y-126436756D01*
X125982358Y-126436752D01*
X125804025Y-126307187D01*
X125804024Y-126307186D01*
X125804022Y-126307185D01*
X125728920Y-126268918D01*
X125607606Y-126207104D01*
X125607603Y-126207103D01*
X125397952Y-126138985D01*
X125268115Y-126118421D01*
X125180222Y-126104500D01*
X124959778Y-126104500D01*
X124871885Y-126118421D01*
X124737237Y-126139747D01*
X124737041Y-126138515D01*
X124673014Y-126135293D01*
X124626204Y-126105903D01*
X120711819Y-122191518D01*
X120678334Y-122130195D01*
X120675500Y-122103837D01*
X120675500Y-117866228D01*
X128599500Y-117866228D01*
X128599500Y-118033771D01*
X128632182Y-118198074D01*
X128632184Y-118198082D01*
X128696295Y-118352860D01*
X128789372Y-118492160D01*
X128789373Y-118492161D01*
X128789374Y-118492162D01*
X128907838Y-118610626D01*
X128907840Y-118610627D01*
X128912146Y-118614933D01*
X128910361Y-118616717D01*
X128943490Y-118665329D01*
X128949500Y-118703464D01*
X128949500Y-119167482D01*
X128929815Y-119234521D01*
X128928602Y-119236373D01*
X128871300Y-119322130D01*
X128871295Y-119322140D01*
X128807184Y-119476917D01*
X128807182Y-119476925D01*
X128774500Y-119641228D01*
X128774500Y-119808771D01*
X128807182Y-119973074D01*
X128807184Y-119973082D01*
X128871295Y-120127860D01*
X128964373Y-120267162D01*
X129082837Y-120385626D01*
X129175494Y-120447537D01*
X129222137Y-120478703D01*
X129376918Y-120542816D01*
X129541228Y-120575499D01*
X129541232Y-120575500D01*
X129541233Y-120575500D01*
X129708768Y-120575500D01*
X129708769Y-120575499D01*
X129873082Y-120542816D01*
X130027863Y-120478703D01*
X130167162Y-120385626D01*
X130285626Y-120267162D01*
X130378703Y-120127863D01*
X130442816Y-119973082D01*
X130475500Y-119808767D01*
X130475500Y-119641233D01*
X130442816Y-119476918D01*
X130378703Y-119322137D01*
X130378701Y-119322134D01*
X130378699Y-119322130D01*
X130321398Y-119236373D01*
X130300520Y-119169695D01*
X130300500Y-119167482D01*
X130300500Y-118058475D01*
X130300500Y-118058469D01*
X130300498Y-118058463D01*
X130300481Y-118058283D01*
X130300481Y-118033953D01*
X130300499Y-118033771D01*
X130300500Y-118033767D01*
X130300500Y-117866233D01*
X130267816Y-117701918D01*
X130203703Y-117547137D01*
X130172537Y-117500494D01*
X130110626Y-117407837D01*
X129992162Y-117289373D01*
X129852860Y-117196295D01*
X129698082Y-117132184D01*
X129698074Y-117132182D01*
X129533771Y-117099500D01*
X129533767Y-117099500D01*
X129366233Y-117099500D01*
X129366228Y-117099500D01*
X129201925Y-117132182D01*
X129201917Y-117132184D01*
X129047139Y-117196295D01*
X128907837Y-117289373D01*
X128789373Y-117407837D01*
X128696295Y-117547139D01*
X128632184Y-117701917D01*
X128632182Y-117701925D01*
X128599500Y-117866228D01*
X120675500Y-117866228D01*
X120675500Y-113157516D01*
X120695185Y-113090477D01*
X120696398Y-113088625D01*
X120698490Y-113085494D01*
X120753703Y-113002863D01*
X120817816Y-112848082D01*
X120850500Y-112683767D01*
X120850500Y-112516233D01*
X120817816Y-112351918D01*
X120753703Y-112197137D01*
X120722537Y-112150494D01*
X120660626Y-112057837D01*
X120542162Y-111939373D01*
X120402860Y-111846295D01*
X120248082Y-111782184D01*
X120248074Y-111782182D01*
X120083771Y-111749500D01*
X120083767Y-111749500D01*
X119916233Y-111749500D01*
X119916228Y-111749500D01*
X119751925Y-111782182D01*
X119751913Y-111782185D01*
X119710952Y-111799152D01*
X119641482Y-111806621D01*
X119579003Y-111775345D01*
X119543352Y-111715256D01*
X119539500Y-111684591D01*
X119539500Y-109381751D01*
X119559185Y-109314712D01*
X119575819Y-109294070D01*
X120457070Y-108412819D01*
X120518393Y-108379334D01*
X120544751Y-108376500D01*
X121621744Y-108376500D01*
X121688783Y-108396185D01*
X121734538Y-108448989D01*
X121744482Y-108518147D01*
X121715457Y-108581703D01*
X121694629Y-108600818D01*
X121617641Y-108656752D01*
X121617636Y-108656756D01*
X121461756Y-108812636D01*
X121461752Y-108812641D01*
X121332187Y-108990974D01*
X121232104Y-109187393D01*
X121232103Y-109187396D01*
X121163985Y-109397047D01*
X121129500Y-109614778D01*
X121129500Y-109835221D01*
X121163985Y-110052952D01*
X121232103Y-110262603D01*
X121232104Y-110262606D01*
X121262354Y-110321973D01*
X121327129Y-110449100D01*
X121332187Y-110459025D01*
X121461752Y-110637358D01*
X121461756Y-110637363D01*
X121617636Y-110793243D01*
X121617641Y-110793247D01*
X121773192Y-110906260D01*
X121795978Y-110922815D01*
X121927432Y-110989794D01*
X121944934Y-110998712D01*
X121991740Y-111040304D01*
X122005305Y-111060606D01*
X122005306Y-111060607D01*
X122005309Y-111060611D01*
X122850305Y-111905606D01*
X122944394Y-111999695D01*
X122944397Y-111999697D01*
X122944398Y-111999698D01*
X123055020Y-112073613D01*
X123055023Y-112073614D01*
X123055031Y-112073620D01*
X123177964Y-112124540D01*
X123177968Y-112124540D01*
X123177969Y-112124541D01*
X123308466Y-112150500D01*
X123308469Y-112150500D01*
X131075500Y-112150500D01*
X131142539Y-112170185D01*
X131188294Y-112222989D01*
X131199500Y-112274500D01*
X131199500Y-112383771D01*
X131232182Y-112548074D01*
X131232184Y-112548082D01*
X131296295Y-112702860D01*
X131389373Y-112842162D01*
X131507837Y-112960626D01*
X131571045Y-113002860D01*
X131647137Y-113053703D01*
X131801918Y-113117816D01*
X131903086Y-113137939D01*
X131964993Y-113170322D01*
X131966573Y-113171874D01*
X138214181Y-119419482D01*
X138247666Y-119480805D01*
X138250500Y-119507163D01*
X138250500Y-124450865D01*
X138230815Y-124517904D01*
X138178011Y-124563659D01*
X138150691Y-124572482D01*
X138101925Y-124582182D01*
X138101917Y-124582184D01*
X137947139Y-124646295D01*
X137807837Y-124739373D01*
X137689373Y-124857837D01*
X137596295Y-124997139D01*
X137532184Y-125151917D01*
X137532182Y-125151923D01*
X137512060Y-125253084D01*
X137479675Y-125314995D01*
X137478124Y-125316573D01*
X137245307Y-125549390D01*
X137245304Y-125549394D01*
X137171383Y-125660024D01*
X137171378Y-125660034D01*
X137120459Y-125782963D01*
X137120457Y-125782970D01*
X137098380Y-125893963D01*
X137098380Y-125893966D01*
X137094500Y-125913469D01*
X137094500Y-126201879D01*
X137074815Y-126268918D01*
X137039390Y-126303593D01*
X137039919Y-126304321D01*
X136857641Y-126436752D01*
X136857636Y-126436756D01*
X136701756Y-126592636D01*
X136701752Y-126592641D01*
X136600318Y-126732254D01*
X136544988Y-126774920D01*
X136475375Y-126780899D01*
X136413580Y-126748293D01*
X136399682Y-126732254D01*
X136298247Y-126592641D01*
X136298243Y-126592636D01*
X136142363Y-126436756D01*
X136142358Y-126436752D01*
X135964025Y-126307187D01*
X135964024Y-126307186D01*
X135964022Y-126307185D01*
X135888920Y-126268918D01*
X135767606Y-126207104D01*
X135767603Y-126207103D01*
X135557952Y-126138985D01*
X135428115Y-126118421D01*
X135340222Y-126104500D01*
X135119778Y-126104500D01*
X135054538Y-126114833D01*
X134902047Y-126138985D01*
X134692396Y-126207103D01*
X134692393Y-126207104D01*
X134495974Y-126307187D01*
X134317641Y-126436752D01*
X134317636Y-126436756D01*
X134161756Y-126592636D01*
X134161752Y-126592641D01*
X134032187Y-126770974D01*
X133932104Y-126967393D01*
X133932103Y-126967396D01*
X133863985Y-127177047D01*
X133829500Y-127394778D01*
X133829500Y-127615221D01*
X133863985Y-127832952D01*
X133932103Y-128042603D01*
X133932104Y-128042606D01*
X133975112Y-128127011D01*
X134027129Y-128229100D01*
X134032187Y-128239025D01*
X134161752Y-128417358D01*
X134161756Y-128417363D01*
X134317636Y-128573243D01*
X134317641Y-128573247D01*
X134392099Y-128627343D01*
X134495978Y-128702815D01*
X134624375Y-128768237D01*
X134692393Y-128802895D01*
X134692396Y-128802896D01*
X134781873Y-128831968D01*
X134902049Y-128871015D01*
X135119778Y-128905500D01*
X135119779Y-128905500D01*
X135340221Y-128905500D01*
X135340222Y-128905500D01*
X135557951Y-128871015D01*
X135767606Y-128802895D01*
X135964022Y-128702815D01*
X136142365Y-128573242D01*
X136298242Y-128417365D01*
X136312242Y-128398096D01*
X136399682Y-128277745D01*
X136455011Y-128235079D01*
X136524625Y-128229100D01*
X136586420Y-128261705D01*
X136600318Y-128277745D01*
X136701752Y-128417358D01*
X136701756Y-128417363D01*
X136857636Y-128573243D01*
X136857641Y-128573247D01*
X136932099Y-128627343D01*
X137035978Y-128702815D01*
X137164375Y-128768237D01*
X137232393Y-128802895D01*
X137232396Y-128802896D01*
X137321873Y-128831968D01*
X137442049Y-128871015D01*
X137659778Y-128905500D01*
X137659779Y-128905500D01*
X137880221Y-128905500D01*
X137880222Y-128905500D01*
X138097951Y-128871015D01*
X138307606Y-128802895D01*
X138504022Y-128702815D01*
X138682365Y-128573242D01*
X138682366Y-128573240D01*
X138682505Y-128573140D01*
X138748311Y-128549660D01*
X138816365Y-128565485D01*
X138843071Y-128585777D01*
X140812900Y-130555606D01*
X140906989Y-130649695D01*
X140906992Y-130649697D01*
X140906993Y-130649698D01*
X141017615Y-130723613D01*
X141017618Y-130723614D01*
X141017626Y-130723620D01*
X141017632Y-130723622D01*
X141017633Y-130723623D01*
X141134512Y-130772035D01*
X141134514Y-130772037D01*
X141140553Y-130774538D01*
X141140557Y-130774539D01*
X141140559Y-130774540D01*
X141140560Y-130774540D01*
X141140563Y-130774541D01*
X141271061Y-130800500D01*
X141271064Y-130800500D01*
X141404126Y-130800500D01*
X147392483Y-130800500D01*
X147459522Y-130820185D01*
X147461374Y-130821398D01*
X147547137Y-130878703D01*
X147701918Y-130942816D01*
X147866228Y-130975499D01*
X147866232Y-130975500D01*
X147866233Y-130975500D01*
X148033768Y-130975500D01*
X148033769Y-130975499D01*
X148198082Y-130942816D01*
X148352863Y-130878703D01*
X148492162Y-130785626D01*
X148610626Y-130667162D01*
X148703703Y-130527863D01*
X148767816Y-130373082D01*
X148800500Y-130208767D01*
X148800500Y-130041233D01*
X148767816Y-129876918D01*
X148703703Y-129722137D01*
X148703627Y-129721953D01*
X148696158Y-129652484D01*
X148727433Y-129590004D01*
X148787522Y-129554352D01*
X148818188Y-129550500D01*
X149166532Y-129550500D01*
X149166533Y-129550499D01*
X149297036Y-129524541D01*
X149419969Y-129473620D01*
X149530606Y-129399695D01*
X150026207Y-128904092D01*
X150087527Y-128870610D01*
X150137095Y-128871144D01*
X150137237Y-128870253D01*
X150142863Y-128871144D01*
X150359778Y-128905500D01*
X150359779Y-128905500D01*
X150580221Y-128905500D01*
X150580222Y-128905500D01*
X150797951Y-128871015D01*
X151007606Y-128802895D01*
X151204022Y-128702815D01*
X151382365Y-128573242D01*
X151538242Y-128417365D01*
X151667815Y-128239022D01*
X151767895Y-128042606D01*
X151836015Y-127832951D01*
X151870500Y-127615222D01*
X151870500Y-127394778D01*
X151836015Y-127177049D01*
X151767895Y-126967394D01*
X151767895Y-126967393D01*
X151733237Y-126899375D01*
X151667815Y-126770978D01*
X151639681Y-126732254D01*
X151538247Y-126592641D01*
X151538243Y-126592636D01*
X151382363Y-126436756D01*
X151382358Y-126436752D01*
X151204025Y-126307187D01*
X151204024Y-126307186D01*
X151204022Y-126307185D01*
X151128920Y-126268918D01*
X151007606Y-126207104D01*
X151007603Y-126207103D01*
X150797952Y-126138985D01*
X150668115Y-126118421D01*
X150580222Y-126104500D01*
X150359778Y-126104500D01*
X150294538Y-126114833D01*
X150142047Y-126138985D01*
X149932396Y-126207103D01*
X149932393Y-126207104D01*
X149735974Y-126307187D01*
X149557641Y-126436752D01*
X149557636Y-126436756D01*
X149401756Y-126592636D01*
X149401752Y-126592641D01*
X149300318Y-126732254D01*
X149244988Y-126774920D01*
X149175375Y-126780899D01*
X149113580Y-126748293D01*
X149099682Y-126732254D01*
X148998247Y-126592641D01*
X148998243Y-126592636D01*
X148842363Y-126436756D01*
X148842358Y-126436752D01*
X148664025Y-126307187D01*
X148664024Y-126307186D01*
X148664022Y-126307185D01*
X148588920Y-126268918D01*
X148467606Y-126207104D01*
X148467603Y-126207103D01*
X148257952Y-126138985D01*
X148128115Y-126118421D01*
X148040222Y-126104500D01*
X147819778Y-126104500D01*
X147754538Y-126114833D01*
X147602047Y-126138985D01*
X147392396Y-126207103D01*
X147392393Y-126207104D01*
X147195974Y-126307187D01*
X147017641Y-126436752D01*
X147017636Y-126436756D01*
X146861756Y-126592636D01*
X146861752Y-126592641D01*
X146732187Y-126770974D01*
X146632104Y-126967393D01*
X146632103Y-126967396D01*
X146563985Y-127177047D01*
X146529500Y-127394778D01*
X146529500Y-127615221D01*
X146563985Y-127832954D01*
X146630342Y-128037183D01*
X146632337Y-128107024D01*
X146596256Y-128166856D01*
X146533555Y-128197684D01*
X146512411Y-128199500D01*
X144267589Y-128199500D01*
X144200550Y-128179815D01*
X144154795Y-128127011D01*
X144144851Y-128057853D01*
X144149658Y-128037183D01*
X144216014Y-127832954D01*
X144216013Y-127832954D01*
X144216015Y-127832951D01*
X144250500Y-127615222D01*
X144250500Y-127394778D01*
X144216015Y-127177049D01*
X144147895Y-126967394D01*
X144147895Y-126967393D01*
X144113237Y-126899375D01*
X144047815Y-126770978D01*
X144019681Y-126732254D01*
X143918247Y-126592641D01*
X143918243Y-126592636D01*
X143762363Y-126436756D01*
X143762358Y-126436752D01*
X143580081Y-126304321D01*
X143580818Y-126303305D01*
X143537834Y-126255794D01*
X143525500Y-126201879D01*
X143525500Y-124983543D01*
X169149499Y-124983543D01*
X169187947Y-125176829D01*
X169187950Y-125176839D01*
X169263364Y-125358907D01*
X169263371Y-125358920D01*
X169372860Y-125522781D01*
X169372863Y-125522785D01*
X169512214Y-125662136D01*
X169512218Y-125662139D01*
X169676079Y-125771628D01*
X169676092Y-125771635D01*
X169809455Y-125826875D01*
X169858165Y-125847051D01*
X169858169Y-125847051D01*
X169858170Y-125847052D01*
X170051456Y-125885500D01*
X170051459Y-125885500D01*
X170248543Y-125885500D01*
X170378582Y-125859632D01*
X170441835Y-125847051D01*
X170582655Y-125788721D01*
X170623907Y-125771635D01*
X170623907Y-125771634D01*
X170623914Y-125771632D01*
X170787782Y-125662139D01*
X170927139Y-125522782D01*
X171036632Y-125358914D01*
X171112051Y-125176835D01*
X171124632Y-125113582D01*
X171150500Y-124983543D01*
X171150500Y-124786456D01*
X171112052Y-124593170D01*
X171112051Y-124593169D01*
X171112051Y-124593165D01*
X171053109Y-124450865D01*
X171036635Y-124411092D01*
X171036628Y-124411079D01*
X170927139Y-124247218D01*
X170927136Y-124247214D01*
X170787785Y-124107863D01*
X170787781Y-124107860D01*
X170623920Y-123998371D01*
X170623907Y-123998364D01*
X170441839Y-123922950D01*
X170441829Y-123922947D01*
X170248543Y-123884500D01*
X170248541Y-123884500D01*
X170051459Y-123884500D01*
X170051457Y-123884500D01*
X169858170Y-123922947D01*
X169858160Y-123922950D01*
X169676092Y-123998364D01*
X169676079Y-123998371D01*
X169512218Y-124107860D01*
X169512214Y-124107863D01*
X169372863Y-124247214D01*
X169372860Y-124247218D01*
X169263371Y-124411079D01*
X169263364Y-124411092D01*
X169187950Y-124593160D01*
X169187947Y-124593170D01*
X169149500Y-124786456D01*
X169149500Y-124786459D01*
X169149500Y-124983541D01*
X169149500Y-124983543D01*
X169149499Y-124983543D01*
X143525500Y-124983543D01*
X143525500Y-124406162D01*
X143545185Y-124339123D01*
X143561814Y-124318486D01*
X152773402Y-115106898D01*
X168999500Y-115106898D01*
X168999500Y-116893102D01*
X169005126Y-116939954D01*
X169010122Y-116981561D01*
X169065639Y-117122343D01*
X169157077Y-117242922D01*
X169277656Y-117334360D01*
X169277657Y-117334360D01*
X169277658Y-117334361D01*
X169418436Y-117389877D01*
X169506898Y-117400500D01*
X169506903Y-117400500D01*
X171293097Y-117400500D01*
X171293102Y-117400500D01*
X171381564Y-117389877D01*
X171522342Y-117334361D01*
X171642922Y-117242922D01*
X171734361Y-117122342D01*
X171789877Y-116981564D01*
X171800500Y-116893102D01*
X171800500Y-115863985D01*
X185089500Y-115863985D01*
X185089500Y-116086014D01*
X185124230Y-116305293D01*
X185192839Y-116516448D01*
X185293634Y-116714266D01*
X185424124Y-116893872D01*
X185424128Y-116893877D01*
X185581122Y-117050871D01*
X185581127Y-117050875D01*
X185737788Y-117164695D01*
X185760737Y-117181368D01*
X185881543Y-117242922D01*
X185958551Y-117282160D01*
X185958553Y-117282160D01*
X185958556Y-117282162D01*
X186071739Y-117318937D01*
X186169706Y-117350769D01*
X186388986Y-117385500D01*
X186388991Y-117385500D01*
X186611014Y-117385500D01*
X186830293Y-117350769D01*
X187041444Y-117282162D01*
X187239263Y-117181368D01*
X187418879Y-117050870D01*
X187575870Y-116893879D01*
X187706368Y-116714263D01*
X187807162Y-116516444D01*
X187875769Y-116305293D01*
X187910500Y-116086014D01*
X187910500Y-115863985D01*
X187875769Y-115644706D01*
X187807160Y-115433551D01*
X187770593Y-115361785D01*
X187706368Y-115235737D01*
X187689695Y-115212788D01*
X187575875Y-115056127D01*
X187575871Y-115056122D01*
X187418877Y-114899128D01*
X187418872Y-114899124D01*
X187239266Y-114768634D01*
X187239265Y-114768633D01*
X187239263Y-114768632D01*
X187177487Y-114737156D01*
X187041448Y-114667839D01*
X186830293Y-114599230D01*
X186611014Y-114564500D01*
X186611009Y-114564500D01*
X186388991Y-114564500D01*
X186388986Y-114564500D01*
X186169706Y-114599230D01*
X185958551Y-114667839D01*
X185760733Y-114768634D01*
X185581127Y-114899124D01*
X185581122Y-114899128D01*
X185424128Y-115056122D01*
X185424124Y-115056127D01*
X185293634Y-115235733D01*
X185192839Y-115433551D01*
X185124230Y-115644706D01*
X185089500Y-115863985D01*
X171800500Y-115863985D01*
X171800500Y-115106898D01*
X171789877Y-115018436D01*
X171734361Y-114877658D01*
X171734360Y-114877657D01*
X171734360Y-114877656D01*
X171642922Y-114757077D01*
X171522343Y-114665639D01*
X171396540Y-114616029D01*
X171381564Y-114610123D01*
X171381563Y-114610122D01*
X171381561Y-114610122D01*
X171335926Y-114604642D01*
X171293102Y-114599500D01*
X169506898Y-114599500D01*
X169467853Y-114604188D01*
X169418438Y-114610122D01*
X169277656Y-114665639D01*
X169157077Y-114757077D01*
X169065639Y-114877656D01*
X169010122Y-115018438D01*
X169005597Y-115056122D01*
X168999500Y-115106898D01*
X152773402Y-115106898D01*
X161003769Y-106876530D01*
X196499500Y-106876530D01*
X196499500Y-107083469D01*
X196539868Y-107286412D01*
X196539870Y-107286420D01*
X196619059Y-107477599D01*
X196664836Y-107546111D01*
X196685713Y-107612789D01*
X196667227Y-107680168D01*
X196664836Y-107683889D01*
X196619059Y-107752400D01*
X196539870Y-107943579D01*
X196539868Y-107943587D01*
X196499500Y-108146530D01*
X196499500Y-108353469D01*
X196539868Y-108556412D01*
X196539870Y-108556420D01*
X196619058Y-108747596D01*
X196734024Y-108919657D01*
X196880342Y-109065975D01*
X196880345Y-109065977D01*
X197052402Y-109180941D01*
X197243580Y-109260130D01*
X197414209Y-109294070D01*
X197446530Y-109300499D01*
X197446534Y-109300500D01*
X197446535Y-109300500D01*
X198653466Y-109300500D01*
X198653467Y-109300499D01*
X198856420Y-109260130D01*
X199047598Y-109180941D01*
X199219655Y-109065977D01*
X199365977Y-108919655D01*
X199480941Y-108747598D01*
X199560130Y-108556420D01*
X199600500Y-108353465D01*
X199600500Y-108146535D01*
X199560130Y-107943580D01*
X199480941Y-107752402D01*
X199435162Y-107683888D01*
X199414285Y-107617215D01*
X199432769Y-107549834D01*
X199435134Y-107546151D01*
X199480941Y-107477598D01*
X199560130Y-107286420D01*
X199600500Y-107083465D01*
X199600500Y-106876535D01*
X199560130Y-106673580D01*
X199480941Y-106482402D01*
X199365977Y-106310345D01*
X199365975Y-106310342D01*
X199219657Y-106164024D01*
X199133626Y-106106541D01*
X199047598Y-106049059D01*
X198941834Y-106005250D01*
X198856420Y-105969870D01*
X198856412Y-105969868D01*
X198653469Y-105929500D01*
X198653465Y-105929500D01*
X197446535Y-105929500D01*
X197446530Y-105929500D01*
X197243587Y-105969868D01*
X197243579Y-105969870D01*
X197052403Y-106049058D01*
X196880342Y-106164024D01*
X196734024Y-106310342D01*
X196619058Y-106482403D01*
X196539870Y-106673579D01*
X196539868Y-106673587D01*
X196499500Y-106876530D01*
X161003769Y-106876530D01*
X162608426Y-105271873D01*
X162669747Y-105238390D01*
X162671821Y-105237957D01*
X162773082Y-105217816D01*
X162927863Y-105153703D01*
X163067162Y-105060626D01*
X163185626Y-104942162D01*
X163278703Y-104802863D01*
X163342816Y-104648082D01*
X163375500Y-104483767D01*
X163375500Y-104316233D01*
X163342816Y-104151918D01*
X163293227Y-104032201D01*
X163278704Y-103997139D01*
X163185626Y-103857837D01*
X163067162Y-103739373D01*
X162927860Y-103646295D01*
X162773082Y-103582184D01*
X162773074Y-103582182D01*
X162608771Y-103549500D01*
X162608767Y-103549500D01*
X162441233Y-103549500D01*
X162441228Y-103549500D01*
X162276925Y-103582182D01*
X162276917Y-103582184D01*
X162122139Y-103646295D01*
X161982837Y-103739373D01*
X161864373Y-103857837D01*
X161771295Y-103997139D01*
X161707184Y-104151917D01*
X161707182Y-104151923D01*
X161687060Y-104253084D01*
X161654675Y-104314995D01*
X161653124Y-104316573D01*
X142323181Y-123646517D01*
X142261858Y-123680002D01*
X142192166Y-123675018D01*
X142136233Y-123633146D01*
X142111816Y-123567682D01*
X142111500Y-123558836D01*
X142111500Y-119669468D01*
X142111499Y-119669464D01*
X142085541Y-119538964D01*
X142036944Y-119421643D01*
X142035300Y-119417048D01*
X141960698Y-119305398D01*
X141960697Y-119305397D01*
X141960695Y-119305394D01*
X141866606Y-119211305D01*
X135017482Y-112362181D01*
X134983997Y-112300858D01*
X134988981Y-112231166D01*
X135030853Y-112175233D01*
X135096317Y-112150816D01*
X135105163Y-112150500D01*
X152401532Y-112150500D01*
X152401533Y-112150499D01*
X152532036Y-112124541D01*
X152654969Y-112073620D01*
X152765606Y-111999695D01*
X163240033Y-101525266D01*
X163301354Y-101491783D01*
X163366029Y-101495017D01*
X163478864Y-101531680D01*
X163698708Y-101566500D01*
X163698709Y-101566500D01*
X163921291Y-101566500D01*
X163921292Y-101566500D01*
X164141136Y-101531680D01*
X164141139Y-101531679D01*
X164141140Y-101531679D01*
X164352823Y-101462899D01*
X164352823Y-101462898D01*
X164352826Y-101462898D01*
X164551150Y-101361847D01*
X164731225Y-101231015D01*
X164775554Y-101186685D01*
X164836875Y-101153201D01*
X164906566Y-101158185D01*
X164962500Y-101200056D01*
X164978588Y-101228877D01*
X165002037Y-101288339D01*
X165002038Y-101288341D01*
X165093477Y-101408922D01*
X165214056Y-101500360D01*
X165214057Y-101500360D01*
X165214058Y-101500361D01*
X165354836Y-101555877D01*
X165443298Y-101566500D01*
X165443303Y-101566500D01*
X167256697Y-101566500D01*
X167256702Y-101566500D01*
X167345164Y-101555877D01*
X167485942Y-101500361D01*
X167606522Y-101408922D01*
X167697961Y-101288342D01*
X167753477Y-101147564D01*
X167764100Y-101059102D01*
X167764100Y-98940898D01*
X167753477Y-98852436D01*
X167697961Y-98711658D01*
X167697960Y-98711657D01*
X167697960Y-98711656D01*
X167606522Y-98591077D01*
X167485943Y-98499639D01*
X167356205Y-98448477D01*
X167345164Y-98444123D01*
X167345163Y-98444122D01*
X167345161Y-98444122D01*
X167299526Y-98438642D01*
X167256702Y-98433500D01*
X165443298Y-98433500D01*
X165404253Y-98438188D01*
X165354838Y-98444122D01*
X165214056Y-98499639D01*
X165093477Y-98591077D01*
X165002038Y-98711658D01*
X164978588Y-98771123D01*
X164935682Y-98826267D01*
X164869774Y-98849459D01*
X164801790Y-98833338D01*
X164775553Y-98813313D01*
X164731227Y-98768987D01*
X164731225Y-98768985D01*
X164551150Y-98638153D01*
X164374739Y-98548267D01*
X164352823Y-98537100D01*
X164141139Y-98468320D01*
X163976253Y-98442205D01*
X163921292Y-98433500D01*
X163698708Y-98433500D01*
X163631644Y-98444122D01*
X163478862Y-98468320D01*
X163478859Y-98468320D01*
X163267176Y-98537100D01*
X163068849Y-98638153D01*
X162888772Y-98768987D01*
X162731387Y-98926372D01*
X162731387Y-98926373D01*
X162731385Y-98926375D01*
X162692792Y-98979494D01*
X162640318Y-99051718D01*
X162584988Y-99094383D01*
X162515374Y-99100362D01*
X162453579Y-99067756D01*
X162439682Y-99051718D01*
X162435132Y-99045455D01*
X162348615Y-98926375D01*
X162191225Y-98768985D01*
X162011150Y-98638153D01*
X161834739Y-98548267D01*
X161812823Y-98537100D01*
X161601139Y-98468320D01*
X161436253Y-98442205D01*
X161381292Y-98433500D01*
X161158708Y-98433500D01*
X161091644Y-98444122D01*
X160938862Y-98468320D01*
X160938859Y-98468320D01*
X160727176Y-98537100D01*
X160528849Y-98638153D01*
X160348772Y-98768987D01*
X160191387Y-98926372D01*
X160060553Y-99106449D01*
X159959500Y-99304776D01*
X159890720Y-99516459D01*
X159890720Y-99516462D01*
X159855900Y-99736308D01*
X159855900Y-100263697D01*
X159872692Y-100369718D01*
X159863737Y-100439012D01*
X159837900Y-100476797D01*
X156276518Y-104038181D01*
X156215195Y-104071666D01*
X156188837Y-104074500D01*
X139073737Y-104074500D01*
X139053522Y-104068564D01*
X139032486Y-104067437D01*
X139020671Y-104058918D01*
X139006698Y-104054815D01*
X138992903Y-104038895D01*
X138975813Y-104026572D01*
X138970479Y-104013016D01*
X138960943Y-104002011D01*
X138957944Y-103981158D01*
X138950231Y-103961554D01*
X138951559Y-103936752D01*
X138950999Y-103932853D01*
X138952119Y-103926311D01*
X138962939Y-103871913D01*
X138995322Y-103810004D01*
X138996817Y-103808482D01*
X153739072Y-89066228D01*
X170074500Y-89066228D01*
X170074500Y-89233771D01*
X170107182Y-89398074D01*
X170107184Y-89398082D01*
X170171295Y-89552860D01*
X170228602Y-89638625D01*
X170249480Y-89705302D01*
X170249500Y-89707516D01*
X170249500Y-97841535D01*
X170275457Y-97972028D01*
X170275459Y-97972036D01*
X170326378Y-98094965D01*
X170326383Y-98094975D01*
X170400304Y-98205605D01*
X170400307Y-98205609D01*
X172719390Y-100524692D01*
X172719398Y-100524698D01*
X172830020Y-100598613D01*
X172830023Y-100598614D01*
X172830031Y-100598620D01*
X172952964Y-100649540D01*
X172952968Y-100649540D01*
X172952969Y-100649541D01*
X173083466Y-100675500D01*
X173083469Y-100675500D01*
X173216531Y-100675500D01*
X174659500Y-100675500D01*
X174726539Y-100695185D01*
X174772294Y-100747989D01*
X174783500Y-100799500D01*
X174783500Y-101059102D01*
X174789126Y-101105954D01*
X174794122Y-101147561D01*
X174794122Y-101147563D01*
X174794123Y-101147564D01*
X174809551Y-101186687D01*
X174849639Y-101288343D01*
X174941077Y-101408922D01*
X175061656Y-101500360D01*
X175061657Y-101500360D01*
X175061658Y-101500361D01*
X175202436Y-101555877D01*
X175290898Y-101566500D01*
X175290903Y-101566500D01*
X177409097Y-101566500D01*
X177409102Y-101566500D01*
X177497564Y-101555877D01*
X177638342Y-101500361D01*
X177758922Y-101408922D01*
X177829459Y-101315904D01*
X177885651Y-101274382D01*
X177955372Y-101269830D01*
X178001147Y-101290511D01*
X178068975Y-101339791D01*
X178163049Y-101387724D01*
X178288668Y-101451731D01*
X178288670Y-101451731D01*
X178288673Y-101451733D01*
X178411934Y-101491783D01*
X178523176Y-101527928D01*
X178766709Y-101566500D01*
X178766714Y-101566500D01*
X179013291Y-101566500D01*
X179256823Y-101527928D01*
X179341665Y-101500361D01*
X179491327Y-101451733D01*
X179711025Y-101339791D01*
X179910506Y-101194859D01*
X180084859Y-101020506D01*
X180229791Y-100821025D01*
X180341733Y-100601327D01*
X180417928Y-100366823D01*
X180456500Y-100123291D01*
X180456500Y-99876708D01*
X180417928Y-99633176D01*
X180341731Y-99398668D01*
X180263534Y-99245199D01*
X180229791Y-99178975D01*
X180084859Y-98979494D01*
X179910506Y-98805141D01*
X179711025Y-98660209D01*
X179667738Y-98638153D01*
X179491331Y-98548268D01*
X179256823Y-98472071D01*
X179013291Y-98433500D01*
X179013286Y-98433500D01*
X178766714Y-98433500D01*
X178766709Y-98433500D01*
X178523176Y-98472071D01*
X178288668Y-98548268D01*
X178068971Y-98660211D01*
X178001148Y-98709487D01*
X177935341Y-98732967D01*
X177867288Y-98717141D01*
X177829459Y-98684094D01*
X177758922Y-98591077D01*
X177638343Y-98499639D01*
X177508605Y-98448477D01*
X177497564Y-98444123D01*
X177497563Y-98444122D01*
X177497561Y-98444122D01*
X177451926Y-98438642D01*
X177409102Y-98433500D01*
X175290898Y-98433500D01*
X175251853Y-98438188D01*
X175202438Y-98444122D01*
X175061656Y-98499639D01*
X174941077Y-98591077D01*
X174849639Y-98711656D01*
X174794122Y-98852438D01*
X174788188Y-98901853D01*
X174783500Y-98940898D01*
X174783500Y-98940903D01*
X174783500Y-99200500D01*
X174763815Y-99267539D01*
X174711011Y-99313294D01*
X174659500Y-99324500D01*
X173481163Y-99324500D01*
X173414124Y-99304815D01*
X173393482Y-99288181D01*
X171636819Y-97531518D01*
X171603334Y-97470195D01*
X171600500Y-97443837D01*
X171600500Y-89707516D01*
X171620185Y-89640477D01*
X171621398Y-89638625D01*
X171678703Y-89552863D01*
X171742816Y-89398082D01*
X171775500Y-89233767D01*
X171775500Y-89066233D01*
X171742816Y-88901918D01*
X171678703Y-88747137D01*
X171645294Y-88697137D01*
X171585626Y-88607837D01*
X171467162Y-88489373D01*
X171327860Y-88396295D01*
X171173082Y-88332184D01*
X171173074Y-88332182D01*
X171008771Y-88299500D01*
X171008767Y-88299500D01*
X170841233Y-88299500D01*
X170841228Y-88299500D01*
X170676925Y-88332182D01*
X170676917Y-88332184D01*
X170522139Y-88396295D01*
X170382837Y-88489373D01*
X170264373Y-88607837D01*
X170171295Y-88747139D01*
X170107184Y-88901917D01*
X170107182Y-88901925D01*
X170074500Y-89066228D01*
X153739072Y-89066228D01*
X181943482Y-60861819D01*
X182004805Y-60828334D01*
X182031163Y-60825500D01*
X194929124Y-60825500D01*
X194929125Y-60825499D01*
X195059628Y-60799541D01*
X195182561Y-60748620D01*
X195293198Y-60674695D01*
X196081130Y-59886761D01*
X196142451Y-59853278D01*
X196212142Y-59858262D01*
X196237207Y-59871014D01*
X196321357Y-59926666D01*
X196465422Y-59972992D01*
X196616642Y-59978732D01*
X196763804Y-59943462D01*
X196842360Y-59901424D01*
X198305533Y-58876899D01*
X198371904Y-58817458D01*
X198455380Y-58691235D01*
X198501706Y-58547170D01*
X198507446Y-58395950D01*
X198472176Y-58248788D01*
X198430138Y-58170232D01*
X197405613Y-56707059D01*
X197398302Y-56698896D01*
X197346174Y-56640690D01*
X197346173Y-56640689D01*
X197346172Y-56640688D01*
X197219949Y-56557212D01*
X197075884Y-56510886D01*
X196924664Y-56505146D01*
X196924663Y-56505146D01*
X196924655Y-56505147D01*
X196847893Y-56523544D01*
X196778112Y-56520026D01*
X196721311Y-56479339D01*
X196695523Y-56414403D01*
X196696520Y-56383567D01*
X196714268Y-56271516D01*
X196714268Y-56051072D01*
X196679783Y-55833343D01*
X196611663Y-55623689D01*
X196611663Y-55623687D01*
X196577005Y-55555669D01*
X196511583Y-55427272D01*
X196405014Y-55280591D01*
X196382015Y-55248935D01*
X196382011Y-55248930D01*
X196226131Y-55093050D01*
X196226126Y-55093046D01*
X196043849Y-54960615D01*
X196044586Y-54959599D01*
X196001602Y-54912088D01*
X195989268Y-54858173D01*
X195989268Y-51754000D01*
X196008953Y-51686961D01*
X196061757Y-51641206D01*
X196130915Y-51631262D01*
X196194471Y-51660287D01*
G37*
G04 #@! TD.AperFunction*
G04 #@! TA.AperFunction,Conductor*
G36*
X119744703Y-123135450D02*
G01*
X119751181Y-123141482D01*
X122502523Y-125892824D01*
X122536008Y-125954147D01*
X122531024Y-126023839D01*
X122489152Y-126079772D01*
X122424578Y-126104122D01*
X122419779Y-126104499D01*
X122202047Y-126138985D01*
X121992396Y-126207103D01*
X121992393Y-126207104D01*
X121795974Y-126307187D01*
X121617641Y-126436752D01*
X121617636Y-126436756D01*
X121461756Y-126592636D01*
X121461752Y-126592641D01*
X121332187Y-126770974D01*
X121232104Y-126967393D01*
X121232103Y-126967396D01*
X121163985Y-127177047D01*
X121129500Y-127394778D01*
X121129500Y-127615221D01*
X121164747Y-127837763D01*
X121163511Y-127837958D01*
X121163281Y-127842547D01*
X121166906Y-127852266D01*
X121161559Y-127876846D01*
X121160298Y-127901970D01*
X121153865Y-127912217D01*
X121152055Y-127920539D01*
X121130903Y-127948794D01*
X120991516Y-128088182D01*
X120930196Y-128121666D01*
X120903837Y-128124500D01*
X118891957Y-128124500D01*
X118824918Y-128104815D01*
X118779163Y-128052011D01*
X118769219Y-127982853D01*
X118774026Y-127962182D01*
X118790260Y-127912217D01*
X118816015Y-127832951D01*
X118850500Y-127615222D01*
X118850500Y-127394778D01*
X118816015Y-127177049D01*
X118815253Y-127172237D01*
X118816496Y-127172039D01*
X118819686Y-127108070D01*
X118849093Y-127061206D01*
X119388695Y-126521606D01*
X119462620Y-126410969D01*
X119513541Y-126288036D01*
X119539500Y-126157531D01*
X119539500Y-126024469D01*
X119539500Y-123229163D01*
X119559185Y-123162124D01*
X119611989Y-123116369D01*
X119681147Y-123106425D01*
X119744703Y-123135450D01*
G37*
G04 #@! TD.AperFunction*
G04 #@! TA.AperFunction,Conductor*
G36*
X138521259Y-105445185D02*
G01*
X138567014Y-105497989D01*
X138576958Y-105567147D01*
X138557322Y-105618390D01*
X138471298Y-105747134D01*
X138471296Y-105747138D01*
X138407184Y-105901917D01*
X138407182Y-105901925D01*
X138374500Y-106066228D01*
X138374500Y-106233771D01*
X138407182Y-106398074D01*
X138407184Y-106398082D01*
X138471295Y-106552860D01*
X138564373Y-106692162D01*
X138682837Y-106810626D01*
X138753494Y-106857837D01*
X138822137Y-106903703D01*
X138976918Y-106967816D01*
X139078086Y-106987939D01*
X139139993Y-107020322D01*
X139141573Y-107021874D01*
X139894390Y-107774692D01*
X139894394Y-107774695D01*
X140005024Y-107848616D01*
X140005028Y-107848618D01*
X140005031Y-107848620D01*
X140127964Y-107899541D01*
X140258464Y-107925499D01*
X140258468Y-107925500D01*
X140258469Y-107925500D01*
X140391531Y-107925500D01*
X147663837Y-107925500D01*
X147693277Y-107934144D01*
X147723264Y-107940668D01*
X147728279Y-107944422D01*
X147730876Y-107945185D01*
X147751518Y-107961819D01*
X147902523Y-108112824D01*
X147936008Y-108174147D01*
X147931024Y-108243839D01*
X147889152Y-108299772D01*
X147824578Y-108324122D01*
X147819779Y-108324499D01*
X147602047Y-108358985D01*
X147392396Y-108427103D01*
X147392393Y-108427104D01*
X147195974Y-108527187D01*
X147017641Y-108656752D01*
X147017636Y-108656756D01*
X146861756Y-108812636D01*
X146861752Y-108812641D01*
X146732187Y-108990974D01*
X146632104Y-109187393D01*
X146632103Y-109187396D01*
X146563985Y-109397047D01*
X146529500Y-109614778D01*
X146529500Y-109835221D01*
X146563985Y-110052952D01*
X146632103Y-110262603D01*
X146632104Y-110262606D01*
X146662354Y-110321973D01*
X146727129Y-110449100D01*
X146732187Y-110459025D01*
X146836510Y-110602615D01*
X146859990Y-110668421D01*
X146844164Y-110736475D01*
X146794058Y-110785170D01*
X146736192Y-110799500D01*
X144043808Y-110799500D01*
X143976769Y-110779815D01*
X143931014Y-110727011D01*
X143921070Y-110657853D01*
X143943490Y-110602615D01*
X144019681Y-110497745D01*
X144047815Y-110459022D01*
X144147895Y-110262606D01*
X144216015Y-110052951D01*
X144250500Y-109835222D01*
X144250500Y-109614778D01*
X144216015Y-109397049D01*
X144147895Y-109187394D01*
X144147895Y-109187393D01*
X144086028Y-109065975D01*
X144047815Y-108990978D01*
X143995996Y-108919655D01*
X143918247Y-108812641D01*
X143918243Y-108812636D01*
X143762363Y-108656756D01*
X143762358Y-108656752D01*
X143584025Y-108527187D01*
X143584024Y-108527186D01*
X143584022Y-108527185D01*
X143508920Y-108488918D01*
X143387606Y-108427104D01*
X143387603Y-108427103D01*
X143177952Y-108358985D01*
X143048115Y-108338421D01*
X142960222Y-108324500D01*
X142739778Y-108324500D01*
X142723268Y-108327115D01*
X142522047Y-108358985D01*
X142312396Y-108427103D01*
X142312393Y-108427104D01*
X142115974Y-108527187D01*
X141937641Y-108656752D01*
X141937636Y-108656756D01*
X141781756Y-108812636D01*
X141781752Y-108812641D01*
X141680318Y-108952254D01*
X141624988Y-108994920D01*
X141555375Y-109000899D01*
X141493580Y-108968293D01*
X141479682Y-108952254D01*
X141378247Y-108812641D01*
X141378243Y-108812636D01*
X141222363Y-108656756D01*
X141222358Y-108656752D01*
X141044025Y-108527187D01*
X141044024Y-108527186D01*
X141044022Y-108527185D01*
X140968920Y-108488918D01*
X140847606Y-108427104D01*
X140847603Y-108427103D01*
X140637952Y-108358985D01*
X140508115Y-108338421D01*
X140420222Y-108324500D01*
X140199778Y-108324500D01*
X140183268Y-108327115D01*
X139982047Y-108358985D01*
X139772396Y-108427103D01*
X139772393Y-108427104D01*
X139575974Y-108527187D01*
X139397641Y-108656752D01*
X139397636Y-108656756D01*
X139241756Y-108812636D01*
X139241752Y-108812641D01*
X139140318Y-108952254D01*
X139084988Y-108994920D01*
X139015375Y-109000899D01*
X138953580Y-108968293D01*
X138939682Y-108952254D01*
X138838247Y-108812641D01*
X138838243Y-108812636D01*
X138682363Y-108656756D01*
X138682358Y-108656752D01*
X138504025Y-108527187D01*
X138504024Y-108527186D01*
X138504022Y-108527185D01*
X138428920Y-108488918D01*
X138307606Y-108427104D01*
X138307603Y-108427103D01*
X138097952Y-108358985D01*
X137968115Y-108338421D01*
X137880222Y-108324500D01*
X137659778Y-108324500D01*
X137643268Y-108327115D01*
X137442047Y-108358985D01*
X137232396Y-108427103D01*
X137232393Y-108427104D01*
X137035974Y-108527187D01*
X136857641Y-108656752D01*
X136857636Y-108656756D01*
X136701756Y-108812636D01*
X136701752Y-108812641D01*
X136600318Y-108952254D01*
X136544988Y-108994920D01*
X136475375Y-109000899D01*
X136413580Y-108968293D01*
X136399682Y-108952254D01*
X136298247Y-108812641D01*
X136298243Y-108812636D01*
X136142363Y-108656756D01*
X136142358Y-108656752D01*
X135964025Y-108527187D01*
X135964024Y-108527186D01*
X135964022Y-108527185D01*
X135888920Y-108488918D01*
X135767606Y-108427104D01*
X135767603Y-108427103D01*
X135557952Y-108358985D01*
X135428115Y-108338421D01*
X135340222Y-108324500D01*
X135119778Y-108324500D01*
X135103268Y-108327115D01*
X134902047Y-108358985D01*
X134692396Y-108427103D01*
X134692393Y-108427104D01*
X134495974Y-108527187D01*
X134317641Y-108656752D01*
X134317636Y-108656756D01*
X134161756Y-108812636D01*
X134161752Y-108812641D01*
X134032187Y-108990974D01*
X133932104Y-109187393D01*
X133932103Y-109187396D01*
X133863985Y-109397047D01*
X133829500Y-109614778D01*
X133829500Y-109835221D01*
X133863985Y-110052952D01*
X133932103Y-110262603D01*
X133932104Y-110262606D01*
X133962354Y-110321973D01*
X134027129Y-110449100D01*
X134032187Y-110459025D01*
X134136510Y-110602615D01*
X134159990Y-110668421D01*
X134144164Y-110736475D01*
X134094058Y-110785170D01*
X134036192Y-110799500D01*
X131343808Y-110799500D01*
X131276769Y-110779815D01*
X131231014Y-110727011D01*
X131221070Y-110657853D01*
X131243490Y-110602615D01*
X131319681Y-110497745D01*
X131347815Y-110459022D01*
X131447895Y-110262606D01*
X131516015Y-110052951D01*
X131550500Y-109835222D01*
X131550500Y-109614778D01*
X131516015Y-109397049D01*
X131515253Y-109392237D01*
X131516496Y-109392039D01*
X131519686Y-109328070D01*
X131549093Y-109281206D01*
X132993482Y-107836819D01*
X133054805Y-107803334D01*
X133081163Y-107800500D01*
X134467483Y-107800500D01*
X134534522Y-107820185D01*
X134536374Y-107821398D01*
X134622137Y-107878703D01*
X134776918Y-107942816D01*
X134941228Y-107975499D01*
X134941232Y-107975500D01*
X134941233Y-107975500D01*
X135108768Y-107975500D01*
X135108769Y-107975499D01*
X135273082Y-107942816D01*
X135427863Y-107878703D01*
X135567162Y-107785626D01*
X135685626Y-107667162D01*
X135778703Y-107527863D01*
X135842816Y-107373082D01*
X135875500Y-107208767D01*
X135875500Y-107041233D01*
X135842816Y-106876918D01*
X135785843Y-106739374D01*
X135778704Y-106722139D01*
X135685626Y-106582837D01*
X135567162Y-106464373D01*
X135427860Y-106371295D01*
X135273082Y-106307184D01*
X135273074Y-106307182D01*
X135108771Y-106274500D01*
X135108767Y-106274500D01*
X134941233Y-106274500D01*
X134941228Y-106274500D01*
X134776925Y-106307182D01*
X134776917Y-106307184D01*
X134622140Y-106371295D01*
X134622131Y-106371300D01*
X134536374Y-106428602D01*
X134469697Y-106449480D01*
X134467483Y-106449500D01*
X132683467Y-106449500D01*
X132552969Y-106475458D01*
X132552959Y-106475461D01*
X132430038Y-106526376D01*
X132430020Y-106526386D01*
X132319398Y-106600301D01*
X132319390Y-106600307D01*
X130593794Y-108325903D01*
X130532471Y-108359388D01*
X130482903Y-108358861D01*
X130482763Y-108359747D01*
X130348115Y-108338421D01*
X130260222Y-108324500D01*
X130039778Y-108324500D01*
X130023268Y-108327115D01*
X129822047Y-108358985D01*
X129612396Y-108427103D01*
X129612393Y-108427104D01*
X129415974Y-108527187D01*
X129237641Y-108656752D01*
X129237636Y-108656756D01*
X129081756Y-108812636D01*
X129081752Y-108812641D01*
X128980318Y-108952254D01*
X128924988Y-108994920D01*
X128855375Y-109000899D01*
X128793580Y-108968293D01*
X128779682Y-108952254D01*
X128678247Y-108812641D01*
X128678243Y-108812636D01*
X128522363Y-108656756D01*
X128522358Y-108656752D01*
X128344025Y-108527187D01*
X128344024Y-108527186D01*
X128344022Y-108527185D01*
X128268920Y-108488918D01*
X128147606Y-108427104D01*
X128147603Y-108427103D01*
X127937952Y-108358985D01*
X127720213Y-108324498D01*
X127715410Y-108324120D01*
X127650125Y-108299227D01*
X127608662Y-108242990D01*
X127604186Y-108173263D01*
X127637474Y-108112825D01*
X130288482Y-105461819D01*
X130349805Y-105428334D01*
X130376163Y-105425500D01*
X138454220Y-105425500D01*
X138521259Y-105445185D01*
G37*
G04 #@! TD.AperFunction*
G04 #@! TA.AperFunction,Conductor*
G36*
X149340388Y-81944185D02*
G01*
X149386143Y-81996989D01*
X149396087Y-82066147D01*
X149367062Y-82129703D01*
X149361030Y-82136181D01*
X149314376Y-82182834D01*
X149314373Y-82182837D01*
X149221295Y-82322139D01*
X149157184Y-82476917D01*
X149157182Y-82476925D01*
X149124500Y-82641228D01*
X149124500Y-82808771D01*
X149157182Y-82973074D01*
X149157184Y-82973082D01*
X149221295Y-83127860D01*
X149278602Y-83213625D01*
X149299480Y-83280302D01*
X149299500Y-83282516D01*
X149299500Y-86993837D01*
X149279815Y-87060876D01*
X149263181Y-87081518D01*
X132981518Y-103363181D01*
X132920195Y-103396666D01*
X132893837Y-103399500D01*
X129562228Y-103399500D01*
X129495189Y-103379815D01*
X129449434Y-103327011D01*
X129439490Y-103257853D01*
X129468515Y-103194297D01*
X129493337Y-103172398D01*
X129504870Y-103164691D01*
X129529662Y-103148126D01*
X129648126Y-103029662D01*
X129709252Y-102938181D01*
X129718165Y-102924842D01*
X129771777Y-102880036D01*
X129841102Y-102871329D01*
X129890155Y-102890629D01*
X129947137Y-102928703D01*
X129947138Y-102928703D01*
X129947139Y-102928704D01*
X129970019Y-102938181D01*
X130101918Y-102992816D01*
X130266228Y-103025499D01*
X130266232Y-103025500D01*
X130266233Y-103025500D01*
X130433768Y-103025500D01*
X130433769Y-103025499D01*
X130598082Y-102992816D01*
X130752863Y-102928703D01*
X130892162Y-102835626D01*
X131010626Y-102717162D01*
X131103703Y-102577863D01*
X131167816Y-102423082D01*
X131200500Y-102258767D01*
X131200500Y-102091233D01*
X131167816Y-101926918D01*
X131103703Y-101772137D01*
X131035959Y-101670751D01*
X131010626Y-101632837D01*
X130892162Y-101514373D01*
X130752860Y-101421295D01*
X130598082Y-101357184D01*
X130598074Y-101357182D01*
X130496915Y-101337060D01*
X130435004Y-101304675D01*
X130433425Y-101303124D01*
X128411819Y-99281518D01*
X128378334Y-99220195D01*
X128375500Y-99193837D01*
X128375500Y-95657516D01*
X128395185Y-95590477D01*
X128396398Y-95588625D01*
X128453703Y-95502863D01*
X128517816Y-95348082D01*
X128550500Y-95183767D01*
X128550500Y-95016233D01*
X128517816Y-94851918D01*
X128453703Y-94697137D01*
X128422537Y-94650494D01*
X128360626Y-94557837D01*
X128242162Y-94439373D01*
X128102860Y-94346295D01*
X127948082Y-94282184D01*
X127948074Y-94282182D01*
X127783771Y-94249500D01*
X127783767Y-94249500D01*
X127616233Y-94249500D01*
X127616228Y-94249500D01*
X127451925Y-94282182D01*
X127451917Y-94282184D01*
X127297139Y-94346295D01*
X127157837Y-94439373D01*
X127039373Y-94557837D01*
X126946295Y-94697139D01*
X126882184Y-94851917D01*
X126882182Y-94851925D01*
X126849500Y-95016228D01*
X126849500Y-95183771D01*
X126882182Y-95348074D01*
X126882184Y-95348082D01*
X126936018Y-95478047D01*
X126943487Y-95547516D01*
X126912212Y-95609996D01*
X126852123Y-95645648D01*
X126821457Y-95649500D01*
X126666228Y-95649500D01*
X126501925Y-95682182D01*
X126501917Y-95682184D01*
X126396953Y-95725662D01*
X126327483Y-95733131D01*
X126265004Y-95701856D01*
X126229352Y-95641767D01*
X126225500Y-95611101D01*
X126225500Y-91132516D01*
X126245185Y-91065477D01*
X126246398Y-91063625D01*
X126303703Y-90977863D01*
X126367816Y-90823082D01*
X126400500Y-90658767D01*
X126400500Y-90491233D01*
X126367816Y-90326918D01*
X126303703Y-90172137D01*
X126272537Y-90125494D01*
X126210626Y-90032837D01*
X126164970Y-89987181D01*
X126131485Y-89925858D01*
X126136469Y-89856166D01*
X126178341Y-89800233D01*
X126243805Y-89775816D01*
X126252651Y-89775500D01*
X128792483Y-89775500D01*
X128859522Y-89795185D01*
X128861374Y-89796398D01*
X128898638Y-89821297D01*
X128947137Y-89853703D01*
X129101918Y-89917816D01*
X129266228Y-89950499D01*
X129266232Y-89950500D01*
X129266233Y-89950500D01*
X129433768Y-89950500D01*
X129433769Y-89950499D01*
X129598082Y-89917816D01*
X129752863Y-89853703D01*
X129892162Y-89760626D01*
X130010626Y-89642162D01*
X130103703Y-89502863D01*
X130167816Y-89348082D01*
X130200500Y-89183767D01*
X130200500Y-89016233D01*
X130167816Y-88851918D01*
X130103703Y-88697137D01*
X130044035Y-88607838D01*
X130010626Y-88557837D01*
X129892162Y-88439373D01*
X129752860Y-88346295D01*
X129598082Y-88282184D01*
X129598074Y-88282182D01*
X129433771Y-88249500D01*
X129433767Y-88249500D01*
X129266233Y-88249500D01*
X129266228Y-88249500D01*
X129101925Y-88282182D01*
X129101917Y-88282184D01*
X128947140Y-88346295D01*
X128947131Y-88346300D01*
X128861374Y-88403602D01*
X128794697Y-88424480D01*
X128792483Y-88424500D01*
X118082517Y-88424500D01*
X118015478Y-88404815D01*
X118013626Y-88403602D01*
X117927868Y-88346300D01*
X117927859Y-88346295D01*
X117773082Y-88282184D01*
X117773074Y-88282182D01*
X117608771Y-88249500D01*
X117608767Y-88249500D01*
X117455163Y-88249500D01*
X117388124Y-88229815D01*
X117342369Y-88177011D01*
X117332425Y-88107853D01*
X117361450Y-88044297D01*
X117367482Y-88037819D01*
X121018482Y-84386819D01*
X121079805Y-84353334D01*
X121106163Y-84350500D01*
X135644837Y-84350500D01*
X135711876Y-84370185D01*
X135757631Y-84422989D01*
X135767575Y-84492147D01*
X135738550Y-84555703D01*
X135732518Y-84562181D01*
X134941573Y-85353124D01*
X134880250Y-85386609D01*
X134878084Y-85387060D01*
X134776923Y-85407182D01*
X134776917Y-85407184D01*
X134622139Y-85471295D01*
X134482837Y-85564373D01*
X134364376Y-85682834D01*
X134364375Y-85682836D01*
X134271295Y-85822139D01*
X134207184Y-85976917D01*
X134207182Y-85976925D01*
X134174500Y-86141228D01*
X134174500Y-86308771D01*
X134207182Y-86473074D01*
X134207184Y-86473082D01*
X134271295Y-86627860D01*
X134364373Y-86767162D01*
X134482837Y-86885626D01*
X134575494Y-86947537D01*
X134622137Y-86978703D01*
X134776918Y-87042816D01*
X134867713Y-87060876D01*
X134941228Y-87075499D01*
X134941232Y-87075500D01*
X134941233Y-87075500D01*
X135108768Y-87075500D01*
X135108769Y-87075499D01*
X135273082Y-87042816D01*
X135427863Y-86978703D01*
X135567162Y-86885626D01*
X135685626Y-86767162D01*
X135778703Y-86627863D01*
X135842816Y-86473082D01*
X135862939Y-86371912D01*
X135895323Y-86310004D01*
X135896819Y-86308480D01*
X136862231Y-85343068D01*
X136923552Y-85309585D01*
X136974098Y-85309134D01*
X137116231Y-85337405D01*
X137116232Y-85337406D01*
X137116233Y-85337406D01*
X137283768Y-85337406D01*
X137283769Y-85337405D01*
X137448082Y-85304722D01*
X137602863Y-85240609D01*
X137742162Y-85147532D01*
X137860626Y-85029068D01*
X137953703Y-84889769D01*
X138017816Y-84734988D01*
X138050500Y-84570673D01*
X138050500Y-84474500D01*
X138070185Y-84407461D01*
X138122989Y-84361706D01*
X138174500Y-84350500D01*
X145606120Y-84350500D01*
X145606121Y-84350499D01*
X145736624Y-84324541D01*
X145859557Y-84273620D01*
X145970194Y-84199695D01*
X145970199Y-84199689D01*
X145972835Y-84197528D01*
X145974488Y-84196825D01*
X145975259Y-84196311D01*
X145975356Y-84196457D01*
X146037145Y-84170215D01*
X146106013Y-84182006D01*
X146157573Y-84229158D01*
X146175500Y-84293381D01*
X146175500Y-85147126D01*
X146155815Y-85214165D01*
X146139181Y-85234807D01*
X145035032Y-86338955D01*
X144973709Y-86372440D01*
X144963872Y-86373989D01*
X144787341Y-86409103D01*
X144787332Y-86409106D01*
X144623459Y-86476983D01*
X144623446Y-86476990D01*
X144475965Y-86575535D01*
X144475961Y-86575538D01*
X144350538Y-86700961D01*
X144350535Y-86700965D01*
X144251990Y-86848446D01*
X144251983Y-86848459D01*
X144184106Y-87012332D01*
X144184103Y-87012341D01*
X144149500Y-87186304D01*
X144149500Y-87363695D01*
X144184103Y-87537658D01*
X144184106Y-87537667D01*
X144251983Y-87701540D01*
X144251990Y-87701553D01*
X144350535Y-87849034D01*
X144350538Y-87849038D01*
X144475961Y-87974461D01*
X144475965Y-87974464D01*
X144623446Y-88073009D01*
X144623459Y-88073016D01*
X144707565Y-88107853D01*
X144787334Y-88140894D01*
X144787336Y-88140894D01*
X144787341Y-88140896D01*
X144961304Y-88175499D01*
X144961307Y-88175500D01*
X144961309Y-88175500D01*
X145138693Y-88175500D01*
X145138694Y-88175499D01*
X145196682Y-88163964D01*
X145312658Y-88140896D01*
X145312661Y-88140894D01*
X145312666Y-88140894D01*
X145476547Y-88073013D01*
X145624035Y-87974464D01*
X145749464Y-87849035D01*
X145848013Y-87701547D01*
X145915894Y-87537666D01*
X145915895Y-87537656D01*
X145917660Y-87531842D01*
X145919468Y-87532390D01*
X145947766Y-87478272D01*
X145949275Y-87476735D01*
X147464532Y-85961480D01*
X147543929Y-85842653D01*
X147598619Y-85710620D01*
X147604145Y-85682838D01*
X147626500Y-85570455D01*
X147626500Y-82528545D01*
X147626500Y-82048500D01*
X147646185Y-81981461D01*
X147698989Y-81935706D01*
X147750500Y-81924500D01*
X149273349Y-81924500D01*
X149340388Y-81944185D01*
G37*
G04 #@! TD.AperFunction*
G04 #@! TA.AperFunction,Conductor*
G36*
X186767408Y-46485102D02*
G01*
X186772771Y-46484016D01*
X186800573Y-46494840D01*
X186829198Y-46503246D01*
X186834133Y-46507907D01*
X186837880Y-46509366D01*
X186862475Y-46534673D01*
X186961105Y-46670426D01*
X187116983Y-46826304D01*
X187116988Y-46826308D01*
X187272539Y-46939321D01*
X187295325Y-46955876D01*
X187423722Y-47021298D01*
X187491740Y-47055956D01*
X187491743Y-47055957D01*
X187596568Y-47090016D01*
X187701396Y-47124076D01*
X187919125Y-47158561D01*
X187919126Y-47158561D01*
X188063979Y-47158561D01*
X188131018Y-47178246D01*
X188176773Y-47231050D01*
X188186717Y-47300208D01*
X188181910Y-47320878D01*
X188120217Y-47510751D01*
X188085732Y-47728484D01*
X188085732Y-47948927D01*
X188120217Y-48166658D01*
X188188335Y-48376309D01*
X188188336Y-48376312D01*
X188236771Y-48471369D01*
X188271623Y-48539769D01*
X188288419Y-48572731D01*
X188417984Y-48751064D01*
X188417988Y-48751069D01*
X188573868Y-48906949D01*
X188573873Y-48906953D01*
X188657645Y-48967816D01*
X188752210Y-49036521D01*
X188876509Y-49099855D01*
X188948625Y-49136601D01*
X188948628Y-49136602D01*
X189053453Y-49170661D01*
X189158281Y-49204721D01*
X189376010Y-49239206D01*
X189376011Y-49239206D01*
X189596453Y-49239206D01*
X189596454Y-49239206D01*
X189814183Y-49204721D01*
X190023838Y-49136601D01*
X190220254Y-49036521D01*
X190398597Y-48906948D01*
X190554474Y-48751071D01*
X190684047Y-48572728D01*
X190784127Y-48376312D01*
X190852247Y-48166657D01*
X190852248Y-48166647D01*
X190852750Y-48164562D01*
X190853160Y-48163847D01*
X190853753Y-48162023D01*
X190854136Y-48162147D01*
X190887535Y-48103967D01*
X190949559Y-48071798D01*
X191019128Y-48078268D01*
X191074156Y-48121323D01*
X191094943Y-48169308D01*
X191100457Y-48197028D01*
X191100459Y-48197036D01*
X191151378Y-48319965D01*
X191151383Y-48319975D01*
X191225304Y-48430605D01*
X191225307Y-48430609D01*
X194601949Y-51807250D01*
X194635434Y-51868573D01*
X194638268Y-51894931D01*
X194638268Y-52704611D01*
X194618583Y-52771650D01*
X194565779Y-52817405D01*
X194496621Y-52827349D01*
X194457974Y-52815096D01*
X194394497Y-52782753D01*
X194394488Y-52782749D01*
X194184837Y-52714631D01*
X194075971Y-52697388D01*
X193967107Y-52680146D01*
X193822252Y-52680146D01*
X193755213Y-52660461D01*
X193709458Y-52607657D01*
X193699514Y-52538499D01*
X193704321Y-52517828D01*
X193766015Y-52327951D01*
X193800500Y-52110222D01*
X193800500Y-51889778D01*
X193766015Y-51672049D01*
X193697895Y-51462394D01*
X193697895Y-51462393D01*
X193649152Y-51366732D01*
X193597815Y-51265978D01*
X193562412Y-51217249D01*
X193468247Y-51087641D01*
X193468243Y-51087636D01*
X193312363Y-50931756D01*
X193312358Y-50931752D01*
X193134025Y-50802187D01*
X193134024Y-50802186D01*
X193134022Y-50802185D01*
X193071096Y-50770122D01*
X192937606Y-50702104D01*
X192937603Y-50702103D01*
X192727952Y-50633985D01*
X192598507Y-50613483D01*
X192510222Y-50599500D01*
X192289778Y-50599500D01*
X192217201Y-50610995D01*
X192072047Y-50633985D01*
X191862396Y-50702103D01*
X191862393Y-50702104D01*
X191665974Y-50802187D01*
X191487641Y-50931752D01*
X191487636Y-50931756D01*
X191331756Y-51087636D01*
X191331752Y-51087641D01*
X191202187Y-51265974D01*
X191102104Y-51462393D01*
X191102103Y-51462396D01*
X191033985Y-51672047D01*
X190999500Y-51889778D01*
X190999500Y-52110221D01*
X191033985Y-52327952D01*
X191102103Y-52537603D01*
X191102104Y-52537606D01*
X191137798Y-52607657D01*
X191185390Y-52701061D01*
X191202187Y-52734025D01*
X191331752Y-52912358D01*
X191331756Y-52912363D01*
X191487640Y-53068247D01*
X191642595Y-53180827D01*
X191685261Y-53236156D01*
X191691240Y-53305770D01*
X191658635Y-53367565D01*
X191597796Y-53401922D01*
X191569710Y-53405145D01*
X184919919Y-53405145D01*
X184789426Y-53431102D01*
X184789418Y-53431104D01*
X184666489Y-53482023D01*
X184666479Y-53482028D01*
X184555849Y-53555949D01*
X184555845Y-53555952D01*
X150862181Y-87249617D01*
X150800858Y-87283102D01*
X150731166Y-87278118D01*
X150675233Y-87236246D01*
X150650816Y-87170782D01*
X150650500Y-87161936D01*
X150650500Y-83282516D01*
X150670185Y-83215477D01*
X150671398Y-83213625D01*
X150728703Y-83127863D01*
X150792816Y-82973082D01*
X150825500Y-82808767D01*
X150825500Y-82641233D01*
X150792816Y-82476918D01*
X150728703Y-82322137D01*
X150685301Y-82257182D01*
X150635626Y-82182837D01*
X150588970Y-82136181D01*
X150555485Y-82074858D01*
X150560469Y-82005166D01*
X150602341Y-81949233D01*
X150667805Y-81924816D01*
X150676651Y-81924500D01*
X152659865Y-81924500D01*
X152754159Y-81905742D01*
X152800028Y-81896619D01*
X152932061Y-81841929D01*
X152932067Y-81841925D01*
X152992496Y-81801548D01*
X153011960Y-81788542D01*
X153050888Y-81762532D01*
X185594736Y-49218684D01*
X185674133Y-49099857D01*
X185728823Y-48967824D01*
X185744461Y-48889206D01*
X185756704Y-48827659D01*
X185756704Y-47245670D01*
X185776389Y-47178631D01*
X185793023Y-47157989D01*
X186431132Y-46519880D01*
X186492455Y-46486395D01*
X186518813Y-46483561D01*
X186762159Y-46483561D01*
X186767408Y-46485102D01*
G37*
G04 #@! TD.AperFunction*
G04 #@! TA.AperFunction,Conductor*
G36*
X141199403Y-19505473D02*
G01*
X142791609Y-19544874D01*
X142794637Y-19544987D01*
X144385410Y-19623766D01*
X144388336Y-19623946D01*
X145976764Y-19742061D01*
X145979772Y-19742322D01*
X147564718Y-19899688D01*
X147567627Y-19900014D01*
X149148209Y-20096543D01*
X149151190Y-20096951D01*
X150512996Y-20300603D01*
X150726373Y-20332513D01*
X150729406Y-20333004D01*
X152298318Y-20607468D01*
X152301203Y-20608009D01*
X153862870Y-20921207D01*
X153865784Y-20921828D01*
X155419272Y-21273574D01*
X155422120Y-21274256D01*
X156966390Y-21664314D01*
X156969258Y-21665076D01*
X158503419Y-22093221D01*
X158506243Y-22094047D01*
X160029341Y-22560013D01*
X160032194Y-22560924D01*
X161543191Y-23064392D01*
X161546063Y-23065387D01*
X163044213Y-23606105D01*
X163047047Y-23607168D01*
X164531346Y-24184775D01*
X164534128Y-24185897D01*
X166003701Y-24800055D01*
X166006429Y-24801234D01*
X167460372Y-25451565D01*
X167463062Y-25452808D01*
X168801663Y-26091744D01*
X168900459Y-26138901D01*
X168903210Y-26140257D01*
X170323099Y-26861650D01*
X170325817Y-26863073D01*
X171727457Y-27619389D01*
X171730139Y-27620879D01*
X172297132Y-27945185D01*
X173112678Y-28411658D01*
X173115257Y-28413176D01*
X173787790Y-28820254D01*
X174477815Y-29237920D01*
X174480419Y-29239541D01*
X175062317Y-29611732D01*
X175822116Y-30097711D01*
X175824643Y-30099372D01*
X177144750Y-30990506D01*
X177147223Y-30992221D01*
X177923270Y-31544520D01*
X178140998Y-31699473D01*
X178184204Y-31754382D01*
X178190865Y-31823934D01*
X178158866Y-31886045D01*
X178098366Y-31920997D01*
X178069099Y-31924500D01*
X175808524Y-31924500D01*
X175678031Y-31950456D01*
X175678027Y-31950458D01*
X175678025Y-31950458D01*
X175678024Y-31950459D01*
X175634560Y-31968462D01*
X175591094Y-31986466D01*
X175591093Y-31986465D01*
X175555094Y-32001378D01*
X175455028Y-32068240D01*
X175455026Y-32068241D01*
X175455025Y-32068240D01*
X175444458Y-32075301D01*
X175444452Y-32075306D01*
X175005086Y-32514671D01*
X174943763Y-32548156D01*
X174894195Y-32547629D01*
X174894055Y-32548515D01*
X174786386Y-32531462D01*
X174671514Y-32513268D01*
X174451070Y-32513268D01*
X174407524Y-32520165D01*
X174233337Y-32547753D01*
X174043463Y-32609446D01*
X173973622Y-32611441D01*
X173913790Y-32575360D01*
X173882962Y-32512659D01*
X173881146Y-32491515D01*
X173881146Y-32346662D01*
X173865301Y-32246622D01*
X173846661Y-32128933D01*
X173788671Y-31950456D01*
X173778542Y-31919280D01*
X173778541Y-31919277D01*
X173729960Y-31823934D01*
X173678461Y-31722862D01*
X173661468Y-31699473D01*
X173548893Y-31544525D01*
X173548889Y-31544520D01*
X173393009Y-31388640D01*
X173393004Y-31388636D01*
X173214671Y-31259071D01*
X173214670Y-31259070D01*
X173214668Y-31259069D01*
X173094446Y-31197812D01*
X173018252Y-31158988D01*
X173018249Y-31158987D01*
X172808598Y-31090869D01*
X172665774Y-31068248D01*
X172590868Y-31056384D01*
X172370424Y-31056384D01*
X172326878Y-31063281D01*
X172152691Y-31090869D01*
X171962817Y-31152562D01*
X171892976Y-31154557D01*
X171833144Y-31118476D01*
X171802316Y-31055775D01*
X171800500Y-31034631D01*
X171800500Y-30889778D01*
X171788543Y-30814286D01*
X171766015Y-30672049D01*
X171731955Y-30567221D01*
X171697896Y-30462396D01*
X171697895Y-30462393D01*
X171663237Y-30394375D01*
X171597815Y-30265978D01*
X171581260Y-30243192D01*
X171468247Y-30087641D01*
X171468243Y-30087636D01*
X171312363Y-29931756D01*
X171312358Y-29931752D01*
X171134025Y-29802187D01*
X171134024Y-29802186D01*
X171134022Y-29802185D01*
X171071096Y-29770122D01*
X170937606Y-29702104D01*
X170937603Y-29702103D01*
X170727952Y-29633985D01*
X170619086Y-29616742D01*
X170510222Y-29599500D01*
X170289778Y-29599500D01*
X170217201Y-29610995D01*
X170072047Y-29633985D01*
X169862396Y-29702103D01*
X169862393Y-29702104D01*
X169665974Y-29802187D01*
X169487641Y-29931752D01*
X169487636Y-29931756D01*
X169331756Y-30087636D01*
X169331752Y-30087641D01*
X169202187Y-30265974D01*
X169102104Y-30462393D01*
X169102103Y-30462396D01*
X169033985Y-30672047D01*
X168999500Y-30889778D01*
X168999500Y-31110221D01*
X169033985Y-31327952D01*
X169102103Y-31537603D01*
X169102104Y-31537606D01*
X169202187Y-31734025D01*
X169331752Y-31912358D01*
X169331756Y-31912363D01*
X169487634Y-32068241D01*
X169487641Y-32068247D01*
X169620883Y-32165052D01*
X169665978Y-32197815D01*
X169794375Y-32263237D01*
X169862393Y-32297895D01*
X169862396Y-32297896D01*
X169882171Y-32304321D01*
X170072049Y-32366015D01*
X170289778Y-32400500D01*
X170289779Y-32400500D01*
X170510221Y-32400500D01*
X170510222Y-32400500D01*
X170727951Y-32366015D01*
X170917828Y-32304320D01*
X170987669Y-32302326D01*
X171047502Y-32338407D01*
X171078330Y-32401108D01*
X171080146Y-32422252D01*
X171080146Y-32567106D01*
X171081453Y-32575360D01*
X171114631Y-32784836D01*
X171182749Y-32994487D01*
X171182750Y-32994490D01*
X171217414Y-33062520D01*
X171277962Y-33181351D01*
X171282833Y-33190909D01*
X171412398Y-33369242D01*
X171412402Y-33369247D01*
X171568282Y-33525127D01*
X171568287Y-33525131D01*
X171693765Y-33616295D01*
X171746624Y-33654699D01*
X171875021Y-33720121D01*
X171943039Y-33754779D01*
X171943042Y-33754780D01*
X172007084Y-33775588D01*
X172152695Y-33822899D01*
X172370424Y-33857384D01*
X172370425Y-33857384D01*
X172590867Y-33857384D01*
X172590868Y-33857384D01*
X172808597Y-33822899D01*
X172998474Y-33761204D01*
X173068315Y-33759210D01*
X173128148Y-33795291D01*
X173158976Y-33857992D01*
X173160792Y-33879136D01*
X173160792Y-34023990D01*
X173167498Y-34066330D01*
X173196039Y-34246531D01*
X173194803Y-34246726D01*
X173191590Y-34310738D01*
X173162195Y-34357562D01*
X172906576Y-34613182D01*
X172845256Y-34646666D01*
X172818897Y-34649500D01*
X169094931Y-34649500D01*
X169027892Y-34629815D01*
X169007250Y-34613181D01*
X162805609Y-28411539D01*
X162805605Y-28411536D01*
X162694975Y-28337615D01*
X162694965Y-28337610D01*
X162572036Y-28286691D01*
X162572028Y-28286689D01*
X162441535Y-28260732D01*
X162441531Y-28260732D01*
X150539395Y-28260732D01*
X150472356Y-28241047D01*
X150451714Y-28224413D01*
X148952609Y-26725307D01*
X148952605Y-26725304D01*
X148841975Y-26651383D01*
X148841965Y-26651378D01*
X148787493Y-26628815D01*
X148719036Y-26600459D01*
X148719028Y-26600457D01*
X148588535Y-26574500D01*
X148588531Y-26574500D01*
X145491531Y-26574500D01*
X121991531Y-26574500D01*
X121858469Y-26574500D01*
X121858464Y-26574500D01*
X121727971Y-26600457D01*
X121727963Y-26600459D01*
X121641686Y-26636197D01*
X121641685Y-26636197D01*
X121605032Y-26651378D01*
X121605029Y-26651380D01*
X121502010Y-26720215D01*
X121502010Y-26720216D01*
X121496943Y-26723601D01*
X121494392Y-26725306D01*
X121494391Y-26725307D01*
X119995287Y-28224412D01*
X119933964Y-28257897D01*
X119907606Y-28260731D01*
X117147056Y-28260731D01*
X117080017Y-28241046D01*
X117034262Y-28188242D01*
X117024318Y-28119084D01*
X117053343Y-28055528D01*
X117075933Y-28035156D01*
X118176818Y-27264308D01*
X118243189Y-27204867D01*
X118326665Y-27078644D01*
X118372991Y-26934579D01*
X118378731Y-26783359D01*
X118343461Y-26636197D01*
X118301423Y-26557641D01*
X118274455Y-26519126D01*
X162757561Y-26519126D01*
X162757561Y-26739570D01*
X162765285Y-26788335D01*
X162792046Y-26957300D01*
X162860164Y-27166951D01*
X162860165Y-27166954D01*
X162909768Y-27264302D01*
X162956567Y-27356150D01*
X162960248Y-27363373D01*
X163089813Y-27541706D01*
X163089817Y-27541711D01*
X163245697Y-27697591D01*
X163245702Y-27697595D01*
X163329230Y-27758281D01*
X163424039Y-27827163D01*
X163552436Y-27892585D01*
X163620454Y-27927243D01*
X163620457Y-27927244D01*
X163725282Y-27961303D01*
X163830110Y-27995363D01*
X164047839Y-28029848D01*
X164047840Y-28029848D01*
X164268282Y-28029848D01*
X164268283Y-28029848D01*
X164486012Y-27995363D01*
X164640446Y-27945185D01*
X164675890Y-27933669D01*
X164745732Y-27931674D01*
X164805564Y-27967755D01*
X164836392Y-28030456D01*
X164838208Y-28051600D01*
X164838208Y-28196453D01*
X164872693Y-28414184D01*
X164940811Y-28623835D01*
X164940812Y-28623838D01*
X164980691Y-28702103D01*
X165031687Y-28802187D01*
X165040895Y-28820257D01*
X165170460Y-28998590D01*
X165170464Y-28998595D01*
X165326344Y-29154475D01*
X165326349Y-29154479D01*
X165479816Y-29265978D01*
X165504686Y-29284047D01*
X165606892Y-29336124D01*
X165701101Y-29384127D01*
X165701104Y-29384128D01*
X165773490Y-29407647D01*
X165910757Y-29452247D01*
X166128486Y-29486732D01*
X166128487Y-29486732D01*
X166348929Y-29486732D01*
X166348930Y-29486732D01*
X166566659Y-29452247D01*
X166776314Y-29384127D01*
X166972730Y-29284047D01*
X167151073Y-29154474D01*
X167306950Y-28998597D01*
X167436523Y-28820254D01*
X167536603Y-28623838D01*
X167604723Y-28414183D01*
X167639208Y-28196454D01*
X167639208Y-27976010D01*
X167604723Y-27758281D01*
X167560079Y-27620879D01*
X167536604Y-27548628D01*
X167536603Y-27548625D01*
X167466341Y-27410731D01*
X167436523Y-27352210D01*
X167372659Y-27264308D01*
X167306955Y-27173873D01*
X167306951Y-27173868D01*
X167151071Y-27017988D01*
X167151066Y-27017984D01*
X166972733Y-26888419D01*
X166972732Y-26888418D01*
X166972730Y-26888417D01*
X166909804Y-26856354D01*
X166776314Y-26788336D01*
X166776311Y-26788335D01*
X166566660Y-26720217D01*
X166445675Y-26701055D01*
X166348930Y-26685732D01*
X166128486Y-26685732D01*
X166084940Y-26692629D01*
X165910753Y-26720217D01*
X165720878Y-26781910D01*
X165651037Y-26783905D01*
X165591204Y-26747824D01*
X165560377Y-26685123D01*
X165558561Y-26663979D01*
X165558561Y-26519126D01*
X165551625Y-26475337D01*
X165524076Y-26301397D01*
X165471719Y-26140257D01*
X165455957Y-26091744D01*
X165455956Y-26091741D01*
X165421298Y-26023723D01*
X165355876Y-25895326D01*
X165309053Y-25830879D01*
X165226308Y-25716989D01*
X165226304Y-25716984D01*
X165070424Y-25561104D01*
X165070419Y-25561100D01*
X164892086Y-25431535D01*
X164892085Y-25431534D01*
X164892083Y-25431533D01*
X164829157Y-25399470D01*
X164695667Y-25331452D01*
X164695664Y-25331451D01*
X164486013Y-25263333D01*
X164377147Y-25246090D01*
X164268283Y-25228848D01*
X164047839Y-25228848D01*
X163975262Y-25240343D01*
X163830108Y-25263333D01*
X163620457Y-25331451D01*
X163620454Y-25331452D01*
X163424035Y-25431535D01*
X163245702Y-25561100D01*
X163245697Y-25561104D01*
X163089817Y-25716984D01*
X163089813Y-25716989D01*
X162960248Y-25895322D01*
X162860165Y-26091741D01*
X162860164Y-26091744D01*
X162792046Y-26301395D01*
X162764496Y-26475343D01*
X162757561Y-26519126D01*
X118274455Y-26519126D01*
X117276898Y-25094468D01*
X117217457Y-25028097D01*
X117091234Y-24944621D01*
X116947169Y-24898295D01*
X116795949Y-24892555D01*
X116795948Y-24892555D01*
X116795943Y-24892556D01*
X116648788Y-24927824D01*
X116570237Y-24969859D01*
X116570223Y-24969868D01*
X115107060Y-25994386D01*
X115107051Y-25994393D01*
X115040689Y-26053826D01*
X114957213Y-26180048D01*
X114957211Y-26180051D01*
X114910885Y-26324118D01*
X114905145Y-26475337D01*
X114905146Y-26475343D01*
X114923543Y-26552104D01*
X114920025Y-26621885D01*
X114879339Y-26678687D01*
X114814403Y-26704475D01*
X114783560Y-26703477D01*
X114715685Y-26692726D01*
X114671515Y-26685731D01*
X114451071Y-26685731D01*
X114378494Y-26697226D01*
X114233340Y-26720216D01*
X114023689Y-26788334D01*
X114023686Y-26788335D01*
X113827267Y-26888418D01*
X113648934Y-27017983D01*
X113648929Y-27017987D01*
X113493049Y-27173867D01*
X113493045Y-27173872D01*
X113360614Y-27356150D01*
X113359598Y-27355412D01*
X113312087Y-27398397D01*
X113258172Y-27410731D01*
X109950163Y-27410731D01*
X109883124Y-27391046D01*
X109837369Y-27338242D01*
X109827425Y-27269084D01*
X109856450Y-27205528D01*
X109891279Y-27177604D01*
X110187087Y-27017988D01*
X110474204Y-26863061D01*
X110476877Y-26861661D01*
X111896797Y-26140252D01*
X111899501Y-26138919D01*
X113336967Y-25452793D01*
X113339596Y-25451578D01*
X114793600Y-24801221D01*
X114796268Y-24800067D01*
X116265899Y-24185885D01*
X116268625Y-24184786D01*
X117752978Y-23607157D01*
X117755760Y-23606114D01*
X119253960Y-23065378D01*
X119256782Y-23064400D01*
X120767829Y-22560916D01*
X120770634Y-22560020D01*
X121645065Y-22292503D01*
X121653270Y-22290301D01*
X130180999Y-20316844D01*
X130190560Y-20315026D01*
X131648820Y-20096949D01*
X131651779Y-20096544D01*
X133232381Y-19900013D01*
X133235272Y-19899689D01*
X134820235Y-19742322D01*
X134823228Y-19742061D01*
X136411668Y-19623946D01*
X136414584Y-19623766D01*
X138005365Y-19544987D01*
X138008387Y-19544874D01*
X139600596Y-19505473D01*
X139603664Y-19505436D01*
X141196336Y-19505436D01*
X141199403Y-19505473D01*
G37*
G04 #@! TD.AperFunction*
M02*
