G04 #@! TF.GenerationSoftware,KiCad,Pcbnew,9.0.1*
G04 #@! TF.CreationDate,2025-05-24T10:28:28+02:00*
G04 #@! TF.ProjectId,carte_rants_V1,63617274-655f-4726-916e-74735f56312e,rev?*
G04 #@! TF.SameCoordinates,Original*
G04 #@! TF.FileFunction,Legend,Top*
G04 #@! TF.FilePolarity,Positive*
%FSLAX46Y46*%
G04 Gerber Fmt 4.6, Leading zero omitted, Abs format (unit mm)*
G04 Created by KiCad (PCBNEW 9.0.1) date 2025-05-24 10:28:28*
%MOMM*%
%LPD*%
G01*
G04 APERTURE LIST*
%ADD10C,0.150000*%
%ADD11C,0.120000*%
%ADD12C,3.500000*%
%ADD13C,4.000000*%
G04 APERTURE END LIST*
D10*
X130046600Y-113948000D02*
X135726600Y-113948000D01*
X130046600Y-119998000D02*
X130046600Y-113948000D01*
X130046600Y-119998000D02*
X135726600Y-119998000D01*
X135726600Y-119998000D02*
X135726600Y-113948000D01*
X130986751Y-118998000D02*
G75*
G02*
X130326449Y-118998000I-330151J0D01*
G01*
X130326449Y-118998000D02*
G75*
G02*
X130986751Y-118998000I330151J0D01*
G01*
X130150000Y-35250000D02*
X130150000Y-50750000D01*
X130150000Y-35250000D02*
X150650000Y-35250000D01*
X130150000Y-50750000D02*
X150650000Y-50750000D01*
X150650000Y-35250000D02*
X150650000Y-50750000D01*
D11*
X126897936Y-118385000D02*
X127352064Y-118385000D01*
X126897936Y-119855000D02*
X127352064Y-119855000D01*
X133707936Y-84172500D02*
X134162064Y-84172500D01*
X133707936Y-85642500D02*
X134162064Y-85642500D01*
X127352064Y-120585000D02*
X126897936Y-120585000D01*
X127352064Y-122055000D02*
X126897936Y-122055000D01*
X136390000Y-120838748D02*
X136390000Y-121361252D01*
X137860000Y-120838748D02*
X137860000Y-121361252D01*
X166540000Y-116713748D02*
X166540000Y-117236252D01*
X168010000Y-116713748D02*
X168010000Y-117236252D01*
X144315000Y-89188748D02*
X144315000Y-89711252D01*
X145785000Y-89188748D02*
X145785000Y-89711252D01*
X123415000Y-119813748D02*
X123415000Y-120336252D01*
X124885000Y-119813748D02*
X124885000Y-120336252D01*
X138590000Y-120838748D02*
X138590000Y-121361252D01*
X140060000Y-120838748D02*
X140060000Y-121361252D01*
X192222936Y-103610000D02*
X192677064Y-103610000D01*
X192222936Y-105080000D02*
X192677064Y-105080000D01*
X192222936Y-105710000D02*
X192677064Y-105710000D01*
X192222936Y-107180000D02*
X192677064Y-107180000D01*
X192222936Y-107810000D02*
X192677064Y-107810000D01*
X192222936Y-109280000D02*
X192677064Y-109280000D01*
X180702064Y-115340000D02*
X180247936Y-115340000D01*
X180702064Y-116810000D02*
X180247936Y-116810000D01*
X103365000Y-122250000D02*
X103365000Y-125550000D01*
X103365000Y-122250000D02*
X108875000Y-122250000D01*
X103365000Y-125550000D02*
X108875000Y-125550000D01*
D10*
X137360000Y-80682500D02*
X142985000Y-80682500D01*
X138485000Y-86232500D02*
X142985000Y-86232500D01*
D11*
X134396252Y-81972500D02*
X133873748Y-81972500D01*
X134396252Y-83442500D02*
X133873748Y-83442500D01*
X100890000Y-124111252D02*
X100890000Y-123588748D01*
X102360000Y-124111252D02*
X102360000Y-123588748D01*
X124300000Y-130200000D02*
X124300000Y-135600000D01*
X127600000Y-130200000D02*
X124300000Y-130200000D01*
X127600000Y-130200000D02*
X127600000Y-135600000D01*
X128140000Y-134827064D02*
X128140000Y-134372936D01*
X129610000Y-134827064D02*
X129610000Y-134372936D01*
X134396252Y-79772500D02*
X133873748Y-79772500D01*
X134396252Y-81242500D02*
X133873748Y-81242500D01*
D12*
X133650000Y-43000000D03*
X147150000Y-43000000D03*
D13*
X165400000Y-140000000D03*
X115400000Y-140000000D03*
X130400000Y-24000000D03*
X150400000Y-24000000D03*
M02*
