M48
; DRILL file {KiCad 9.0.1} date 2025-05-24T10:28:30+0200
; FORMAT={-:-/ absolute / metric / decimal}
; #@! TF.CreationDate,2025-05-24T10:28:30+02:00
; #@! TF.GenerationSoftware,Kicad,Pcbnew,9.0.1
; #@! TF.FileFunction,Plated,1,2,PTH
FMAT,2
METRIC
; #@! TA.AperFunction,Plated,PTH,ViaDrill
T1C0.400
; #@! TA.AperFunction,Plated,PTH,ComponentDrill
T2C0.650
; #@! TA.AperFunction,Plated,PTH,ComponentDrill
T3C0.700
; #@! TA.AperFunction,Plated,PTH,ComponentDrill
T4C1.000
; #@! TA.AperFunction,Plated,PTH,ComponentDrill
T5C1.016
; #@! TA.AperFunction,Plated,PTH,ComponentDrill
T6C2.100
; #@! TA.AperFunction,Plated,PTH,ComponentDrill
T7C2.200
; #@! TA.AperFunction,Plated,PTH,ComponentDrill
T8C3.000
%
G90
G05
T1
X107.4Y-81.375
X111.025Y-78.875
X112.225Y-122.65
X114.575Y-42.05
X116.45Y-106.3
X117.525Y-89.1
X117.525Y-111.725
X119.7Y-107.4
X120.0Y-112.6
X122.7Y-96.375
X124.1Y-122.1
X125.55Y-48.12
X125.55Y-90.575
X126.75Y-96.5
X127.475Y-105.025
X127.7Y-95.1
X128.987Y-102.487
X129.35Y-89.1
X129.45Y-42.375
X129.45Y-117.95
X129.625Y-119.725
X130.35Y-102.175
X132.05Y-112.3
X132.7Y-119.695
X133.325Y-78.975
X133.625Y-91.425
X133.95Y-112.25
X135.025Y-86.225
X135.025Y-107.125
X135.18Y-34.37
X135.425Y-103.875
X137.2Y-84.487
X138.125Y-103.725
X138.35Y-125.4
X139.225Y-106.15
X140.05Y-91.275
X141.5Y-98.8
X143.525Y-80.175
X144.899Y-82.457
X145.05Y-87.275
X145.325Y-83.075
X146.275Y-81.825
X147.95Y-130.125
X149.975Y-82.725
X162.525Y-104.4
X170.925Y-89.15
T2
X198.05Y-104.44
X198.05Y-105.71
X198.05Y-106.98
X198.05Y-108.25
T3
X186.5Y-115.975
X191.5Y-115.975
T4
X84.029Y-58.242
X85.486Y-56.161
X86.943Y-54.081
X88.4Y-52.0
X89.857Y-49.919
X91.314Y-47.839
X92.771Y-45.758
X102.21Y-109.725
X102.21Y-127.505
X104.158Y-35.371
X104.75Y-109.725
X104.75Y-127.505
X106.239Y-33.914
X107.29Y-109.725
X107.29Y-127.505
X108.319Y-32.457
X109.83Y-109.725
X109.83Y-127.505
X110.4Y-31.0
X112.37Y-109.725
X112.37Y-127.505
X112.481Y-29.543
X114.561Y-28.086
X114.745Y-36.75
X114.745Y-39.29
X114.91Y-109.725
X114.91Y-127.505
X116.642Y-26.629
X117.285Y-36.75
X117.285Y-39.29
X117.45Y-109.725
X117.45Y-127.505
X119.825Y-36.75
X119.825Y-39.29
X119.99Y-109.725
X119.99Y-127.505
X122.365Y-36.75
X122.365Y-39.29
X122.53Y-109.725
X122.53Y-127.505
X124.905Y-36.75
X124.905Y-39.29
X125.07Y-109.725
X125.07Y-127.505
X127.445Y-36.75
X127.445Y-39.29
X127.61Y-109.725
X127.61Y-127.505
X130.15Y-109.725
X130.15Y-127.505
X132.69Y-109.725
X132.69Y-127.505
X132.78Y-30.0
X135.23Y-109.725
X135.23Y-127.505
X135.32Y-30.0
X137.77Y-109.725
X137.77Y-127.505
X137.86Y-30.0
X140.31Y-109.725
X140.31Y-127.505
X140.4Y-30.0
X142.85Y-109.725
X142.85Y-127.505
X142.94Y-30.0
X145.39Y-109.725
X145.39Y-127.505
X145.48Y-30.0
X147.93Y-109.725
X147.93Y-127.505
X148.02Y-30.0
X150.47Y-109.725
X150.47Y-127.505
X164.158Y-26.629
X166.239Y-28.086
X168.319Y-29.543
X170.4Y-31.0
X170.4Y-116.0
X170.4Y-118.54
X172.481Y-32.457
X174.561Y-33.914
X176.642Y-35.371
X188.029Y-45.758
X189.486Y-47.839
X190.943Y-49.919
X192.4Y-52.0
X193.857Y-54.081
X195.314Y-56.161
X196.771Y-58.242
T5
X101.91Y-100.0
X104.45Y-100.0
X114.45Y-100.0
X116.99Y-100.0
X119.53Y-100.0
X122.07Y-100.0
X158.73Y-100.0
X161.27Y-100.0
X163.81Y-100.0
X166.35Y-100.0
X176.35Y-100.0
X178.89Y-100.0
T6
X133.65Y-43.0
X147.15Y-43.0
T7
X104.45Y-75.0
X104.45Y-93.0
X176.35Y-75.0
X176.35Y-93.0
T8
X115.4Y-140.0
X130.4Y-24.0
X150.4Y-24.0
X165.4Y-140.0
M30
